 <svg version="1.0" xmlns="http://www.w3.org/2000/svg" width="700.000000pt" height="351.000000pt" viewBox="0 0 700.000000 351.000000" preserveAspectRatio="xMidYMid meet">
<metadata>
Created by potrace 1.12, written by Peter Selinger 2001-2015
</metadata>
<g transform="translate(0.000000,351.000000) scale(0.100000,-0.100000)" fill="white" stroke="none">
<path d="M2276 3494 c-275 -59 -485 -236 -559 -469 -21 -66 -22 -87 -22 -385
0 -298 1 -319 22 -385 46 -145 148 -273 291 -366 42 -28 78 -52 80 -53 1 -2
-28 -21 -65 -42 -146 -85 -306 -271 -355 -413 -22 -64 -23 -78 -23 -421 0
-341 1 -358 23 -434 13 -44 41 -115 63 -157 99 -189 326 -331 587 -365 l52 -7
0 180 0 179 -57 18 c-128 40 -204 96 -250 183 -46 87 -53 139 -53 401 0 258
10 331 55 430 51 110 121 175 237 217 l63 23 3 195 2 195 -74 35 c-95 45 -149
94 -186 171 -42 87 -52 174 -48 419 3 173 7 221 22 262 40 108 117 185 229
226 l57 22 0 178 c0 137 -3 179 -12 178 -7 0 -44 -7 -82 -15z"></path>
<path d="M2742 3330 l3 -182 63 -23 c116 -42 175 -96 213 -195 24 -64 36 -351
21 -519 -9 -94 -16 -124 -41 -176 -39 -78 -111 -147 -196 -187 l-65 -30 2
-195 3 -195 54 -18 c150 -53 241 -156 282 -318 18 -74 20 -106 17 -359 -3
-278 -3 -278 -30 -335 -50 -108 -161 -198 -280 -228 -33 -9 -48 -18 -52 -33
-8 -30 -8 -200 0 -275 l7 -62 41 6 c84 13 213 56 300 102 73 37 109 64 181
137 102 101 149 180 187 310 22 76 23 96 23 405 0 287 -2 332 -18 385 -56 180
-192 346 -368 446 -32 19 -59 37 -59 40 0 4 29 26 65 49 127 83 251 241 297
380 20 58 22 91 26 321 4 322 -6 399 -74 539 -101 207 -303 345 -562 385 l-42
7 2 -182z"></path>
<path d="M3824 3481 c-2 -2 -4 -80 -4 -173 l0 -168 867 2 867 3 43 155 c24 85
43 161 43 167 0 10 -193 13 -906 15 -498 2 -908 1 -910 -1z"></path>
<path d="M0 3310 l0 -170 453 2 452 3 3 105 c2 58 0 133 -3 168 l-7 62 -449 0
-449 0 0 -170z"></path>
<path d="M6090 3310 l0 -170 455 0 455 0 0 170 0 170 -455 0 -455 0 0 -170z"></path>
<path d="M527 2763 c-9 -8 -9 -2269 0 -2526 l6 -197 182 0 182 0 6 187 c9 244
9 1702 0 2176 l-6 367 -182 0 c-100 0 -185 -3 -188 -7z"></path>
<path d="M5026 2688 c-69 -231 -520 -1857 -700 -2529 -14 -53 -26 -102 -26
-108 0 -8 59 -11 199 -11 181 0 200 2 205 18 7 23 486 1764 627 2277 60 220
112 408 115 418 5 16 -9 17 -195 17 l-200 0 -25 -82z"></path>
<path d="M6620 1405 l0 -1365 190 0 190 0 0 1365 0 1365 -190 0 -190 0 0
-1365z"></path>
</g>
</svg>