 <svg version="1.0" xmlns="http://www.w3.org/2000/svg" width="700.000000pt" height="153.000000pt" viewBox="0 0 700.000000 153.000000" preserveAspectRatio="xMidYMid meet">
<metadata>
Created by potrace 1.12, written by Peter Selinger 2001-2015
</metadata>
<g transform="translate(0.000000,153.000000) scale(0.100000,-0.100000)" fill="#8C3232" stroke="none">
<path d="M230 1485 c-8 -2 -63 -7 -122 -10 -107 -7 -108 -7 -108 -32 l0 -25
100 7 c56 4 100 4 100 -1 -1 -44 -12 -54 -62 -52 -44 2 -53 -1 -74 -25 -28
-33 -31 -73 -8 -106 16 -22 16 -25 0 -51 -22 -38 -20 -72 5 -104 17 -22 28
-26 69 -26 44 0 50 -3 69 -36 28 -46 19 -61 -67 -117 -97 -63 -99 -65 -105
-193 -1 -22 -8 -48 -15 -56 -16 -20 -1 -133 31 -221 69 -189 224 -338 422
-404 102 -35 119 -36 202 -13 245 67 423 242 490 480 16 58 18 111 18 515 l0
450 -65 7 c-70 8 -855 20 -880 13z m891 -71 c10 -6 12 -67 3 -77 -4 -3 -16 0
-28 8 -11 8 -35 15 -53 15 -27 0 -35 5 -43 26 -17 45 -14 47 51 40 33 -3 65
-8 70 -12z m-562 -14 c20 -10 21 -19 21 -179 0 -92 -2 -170 -5 -173 -3 -3 -25
1 -47 9 -38 13 -53 12 -156 -7 -62 -12 -119 -20 -125 -17 -9 3 -11 52 -9 181
l3 176 52 0 c29 0 72 7 97 15 49 16 135 14 169 -5z m208 9 c15 -6 64 -14 108
-18 l80 -6 5 -35 c5 -35 5 -35 57 -35 76 -1 87 -18 28 -44 -27 -12 -55 -20
-64 -19 -12 2 -17 -9 -22 -52 -3 -30 -4 -79 -1 -107 4 -41 1 -54 -11 -58 -8
-4 -59 2 -113 11 -111 20 -142 22 -197 11 l-37 -8 2 173 3 172 40 12 c52 16
87 17 122 3z m-617 -94 c15 -18 10 -45 -12 -59 -14 -8 -22 -6 -39 10 -17 18
-19 25 -10 43 13 24 43 28 61 6z m65 -15 c7 -12 -12 -40 -26 -40 -10 0 -12 34
-2 43 9 10 21 9 28 -3z m915 -74 c0 -33 -12 -39 -40 -19 -22 15 -22 17 -5 30
28 20 45 16 45 -11z m-976 -68 c8 -13 8 -23 0 -35 -28 -45 -89 -9 -64 38 13
24 48 22 64 -3z m923 -3 c4 -13 -83 -49 -97 -40 -11 7 -14 38 -3 49 11 10 96
3 100 -9z m-862 -21 c0 -10 -8 -20 -17 -22 -18 -3 -26 27 -11 42 12 11 28 0
28 -20z m915 -153 c0 -65 -3 -121 -6 -124 -4 -4 -37 25 -75 63 l-68 70 15 36
c12 28 26 41 67 59 29 12 55 21 60 18 4 -2 7 -57 7 -122z m-660 25 c0 -7 -7
-19 -16 -26 -12 -11 -18 -10 -31 3 -15 15 -15 17 8 26 33 13 39 13 39 -3z
m295 -5 c3 -5 1 -13 -5 -16 -15 -9 -43 3 -35 15 8 13 32 13 40 1z m-120 -22
c39 -10 43 -14 35 -30 -7 -11 -7 -20 0 -24 14 -9 5 -95 -15 -133 -17 -32 -16
-35 1 -68 10 -19 22 -34 26 -34 11 0 10 5 -4 35 -10 22 -8 28 11 46 12 12 26
32 32 46 11 29 31 21 27 -10 -4 -32 22 -27 43 8 28 48 25 56 -21 49 -39 -6
-57 7 -25 20 8 3 15 14 15 24 0 48 88 76 153 48 20 -8 37 -20 37 -25 0 -6 6
-11 13 -11 6 0 38 -27 70 -60 31 -33 51 -60 44 -60 -8 0 -22 9 -32 20 -10 11
-23 20 -28 20 -6 0 15 -27 46 -59 32 -33 57 -64 57 -70 0 -28 -43 1 -85 56
-53 69 -45 47 26 -71 17 -30 24 -58 27 -122 3 -60 1 -84 -7 -84 -14 0 -13 -1
-41 121 -11 53 -28 105 -36 115 -18 21 -18 23 12 -85 18 -63 12 -101 -15 -101
-15 0 -19 11 -25 54 -7 61 -14 86 -26 86 -4 0 -4 -17 1 -37 4 -21 6 -39 4 -41
-2 -3 -15 9 -29 24 -14 16 -26 24 -26 17 0 -7 14 -28 30 -46 29 -33 40 -67 21
-67 -5 0 -27 21 -50 48 -22 26 -40 41 -41 34 0 -7 21 -35 46 -62 44 -47 50
-70 18 -70 -8 0 -13 -3 -13 -7 3 -20 -2 -24 -16 -13 -18 15 -20 14 -29 -22
-12 -52 47 -22 95 49 36 52 62 59 49 12 -5 -18 -7 -36 -4 -41 3 -5 0 -15 -6
-23 -6 -8 -9 -19 -5 -24 7 -13 -22 -71 -35 -71 -14 0 -12 34 3 49 10 11 8 13
-13 8 -14 -3 -43 -9 -65 -13 -44 -7 -87 -27 -124 -55 -13 -11 -32 -19 -43 -19
-29 0 -16 -24 15 -28 14 -2 39 4 56 12 44 23 58 19 32 -8 -26 -28 -108 -51
-151 -42 -42 8 -45 -8 -5 -30 27 -14 37 -16 47 -6 14 14 68 16 68 3 0 -11 -58
-61 -71 -61 -6 0 -28 10 -49 22 -46 27 -60 18 -36 -23 10 -16 15 -37 12 -45
-6 -16 -34 -18 -56 -4 -13 8 -12 11 4 23 15 11 17 17 7 35 -14 27 -12 27 -57
-3 -20 -14 -42 -25 -48 -25 -6 1 -33 21 -61 45 l-49 45 31 0 c20 0 44 -10 63
-27 34 -28 52 -26 74 10 14 22 3 30 -44 30 -46 0 -49 16 -7 31 21 8 31 6 47
-9 11 -10 23 -15 28 -11 4 4 -4 17 -18 28 -26 21 -61 21 -116 -2 -37 -16 -69
-8 -109 25 -35 29 -30 39 13 23 24 -9 42 -9 79 0 37 10 56 10 81 1 46 -16 53
-3 9 16 -44 18 -58 19 -109 3 -33 -10 -41 -9 -56 6 -14 14 -15 18 -3 25 22 14
5 28 -41 34 -24 4 -52 7 -63 9 -17 3 -19 -2 -17 -29 2 -19 -1 -33 -7 -33 -12
0 -26 46 -22 72 1 9 -6 29 -15 43 -14 21 -16 41 -11 105 3 44 2 80 -1 80 -6 0
-23 -40 -62 -144 -7 -19 -14 -26 -21 -19 -12 12 22 125 51 168 31 47 23 52
-18 12 -36 -36 -62 -47 -62 -28 0 5 24 30 52 56 41 36 47 45 28 40 -54 -15
-80 -17 -80 -7 0 6 9 13 19 17 27 8 101 63 101 75 0 5 -16 2 -35 -6 -39 -16
-65 -18 -65 -5 0 5 38 33 85 63 197 124 221 127 239 26 6 -33 4 -38 -12 -38
-29 0 -42 -22 -33 -56 7 -26 12 -29 49 -30 40 0 53 8 32 21 -11 7 -14 55 -3
55 15 0 73 -65 73 -82 0 -10 5 -18 10 -18 6 0 10 4 10 10 0 5 19 22 41 36 l42
26 -32 15 c-42 21 -40 37 4 30 19 -3 35 -2 35 3 0 13 -86 60 -109 60 -41 0
-23 25 34 46 40 16 49 16 100 3z m-160 -69 c3 -5 15 -10 26 -10 10 0 19 -5 19
-11 0 -18 -64 -6 -68 14 -4 18 13 24 23 7z m-347 -472 c7 -7 12 -23 12 -37 0
-15 9 -41 20 -59 18 -29 25 -33 54 -31 30 3 40 -3 80 -48 25 -28 46 -55 46
-59 0 -5 19 -28 42 -51 34 -35 39 -43 22 -43 -58 0 -232 157 -287 258 -34 63
-27 108 11 70z m792 -123 c7 -8 23 -15 36 -15 12 0 25 -4 28 -8 6 -11 -86
-101 -139 -136 -48 -31 -77 -36 -52 -8 9 10 22 34 28 53 7 19 23 47 36 62 12
16 23 37 23 48 0 23 23 25 40 4z m-190 -214 c0 -11 -39 -21 -45 -11 -2 4 -2
10 2 14 10 9 43 7 43 -3z m-195 -22 c4 -6 5 -12 2 -15 -7 -7 -37 7 -37 17 0
13 27 11 35 -2z"></path>
<path d="M421 1346 c-13 -24 -8 -46 10 -46 6 0 8 9 4 19 -3 11 -1 22 5 26 12
7 13 25 2 25 -5 0 -14 -11 -21 -24z"></path>
<path d="M358 1355 c-8 -8 3 -55 13 -55 5 0 9 6 9 14 0 8 3 21 6 30 6 15 -15
23 -28 11z"></path>
<path d="M484 1352 c-9 -6 -11 -33 -5 -61 1 -2 7 1 14 7 12 10 18 12 37 12 6
0 5 10 -2 25 -11 25 -24 30 -44 17z"></path>
<path d="M283 1343 c-7 -2 -13 -16 -13 -29 0 -35 25 -30 26 6 1 17 1 30 0 29
-1 0 -7 -3 -13 -6z"></path>
<path d="M314 1323 c2 -15 7 -29 12 -30 13 -4 11 50 -2 54 -7 2 -11 -7 -10
-24z"></path>
<path d="M277 1260 c-21 -31 -21 -44 0 -61 15 -13 16 -11 10 10 -3 14 -1 31 4
38 6 7 9 18 7 25 -3 7 -11 2 -21 -12z"></path>
<path d="M380 1255 c0 -8 5 -15 10 -15 6 0 10 7 10 15 0 8 -4 15 -10 15 -5 0
-10 -7 -10 -15z"></path>
<path d="M430 1259 c0 -14 25 -39 39 -39 6 0 11 5 11 10 0 6 -4 10 -10 10 -5
0 -10 7 -10 15 0 8 -7 15 -15 15 -8 0 -15 -5 -15 -11z"></path>
<path d="M495 1250 c-3 -5 -1 -10 4 -10 6 0 11 5 11 10 0 6 -2 10 -4 10 -3 0
-8 -4 -11 -10z"></path>
<path d="M330 1236 c0 -8 -6 -17 -12 -19 -10 -4 -9 -8 2 -16 22 -16 35 -8 38
22 2 19 -1 27 -12 27 -9 0 -16 -6 -16 -14z"></path>
<path d="M530 1221 c0 -20 13 -35 23 -25 7 8 -4 44 -14 44 -5 0 -9 -9 -9 -19z"></path>
<path d="M490 1216 c0 -9 5 -16 10 -16 6 0 10 4 10 9 0 6 -4 13 -10 16 -5 3
-10 -1 -10 -9z"></path>
<path d="M345 1159 c-10 -15 1 -23 20 -15 9 3 13 10 10 16 -8 13 -22 13 -30
-1z"></path>
<path d="M411 1154 c0 -11 3 -14 6 -6 3 7 2 16 -1 19 -3 4 -6 -2 -5 -13z"></path>
<path d="M460 1146 c0 -25 23 -39 65 -40 16 0 19 5 16 24 -4 31 -25 46 -29 22
-7 -32 -21 -36 -31 -9 -13 34 -21 34 -21 3z"></path>
<path d="M283 1153 c-18 -7 -16 -28 2 -43 20 -16 32 -5 16 14 -10 11 -8 17 6
25 13 8 14 10 3 10 -8 0 -21 -3 -27 -6z"></path>
<path d="M652 1363 c33 -68 48 -82 48 -43 0 11 -4 20 -10 20 -5 0 -10 7 -10
15 0 8 -7 15 -16 15 -9 0 -14 -3 -12 -7z"></path>
<path d="M794 1346 c-8 -20 -1 -61 10 -61 4 0 10 17 12 38 3 36 -11 51 -22 23z"></path>
<path d="M740 1326 c0 -24 12 -41 22 -30 8 7 -3 54 -13 54 -5 0 -9 -11 -9 -24z"></path>
<path d="M866 1331 c-3 -5 1 -11 9 -15 9 -3 15 0 15 9 0 16 -16 20 -24 6z"></path>
<path d="M842 1290 c2 -6 7 -11 11 -11 4 1 17 1 29 1 27 0 21 5 -15 14 -20 5
-28 3 -25 -4z"></path>
<path d="M950 1280 c0 -5 5 -10 10 -10 6 0 10 5 10 10 0 6 -4 10 -10 10 -5 0
-10 -4 -10 -10z"></path>
<path d="M635 1249 c-9 -13 4 -64 13 -54 9 9 9 65 0 65 -4 0 -10 -5 -13 -11z"></path>
<path d="M736 1238 c7 -23 18 -32 31 -26 3 2 7 13 8 26 0 17 -5 22 -23 22 -20
0 -22 -4 -16 -22z"></path>
<path d="M802 1235 c-14 -16 -1 -55 18 -55 14 0 12 14 -2 28 -9 9 -8 15 8 27
14 11 15 14 4 14 -8 0 -21 -6 -28 -14z"></path>
<path d="M862 1230 c-9 -15 -10 -26 -2 -40 13 -25 22 -25 44 -1 14 15 15 24 6
40 -14 27 -32 27 -48 1z m28 -20 c0 -5 -4 -10 -10 -10 -5 0 -10 5 -10 10 0 6
5 10 10 10 6 0 10 -4 10 -10z"></path>
<path d="M630 1140 c0 -22 5 -40 10 -40 6 0 10 18 10 40 0 22 -4 40 -10 40 -5
0 -10 -18 -10 -40z"></path>
<path d="M690 1151 c0 -12 -4 -21 -10 -21 -5 0 -10 -4 -10 -10 0 -5 12 -10 26
-10 22 0 25 4 22 27 -4 32 -28 44 -28 14z"></path>
<path d="M740 1142 c0 -30 8 -45 20 -37 9 6 0 65 -11 65 -5 0 -9 -13 -9 -28z"></path>
<path d="M827 1154 c-3 -3 -3 -12 0 -20 3 -8 0 -14 -6 -14 -6 0 -11 7 -11 15
0 8 -4 15 -10 15 -5 0 -10 -11 -10 -24 0 -17 7 -25 25 -28 30 -6 35 -2 35 28
0 23 -12 38 -23 28z"></path>
<path d="M870 1120 c0 -16 5 -30 10 -30 6 0 10 6 10 14 0 8 8 17 17 20 15 6
15 8 3 16 -27 17 -40 11 -40 -20z"></path>
<path d="M576 961 c-3 -5 1 -14 10 -21 11 -10 18 -10 27 -1 9 9 9 14 -3 21
-19 12 -27 12 -34 1z"></path>
<path d="M510 705 c-12 -32 -13 -45 -2 -45 12 0 31 59 21 66 -5 3 -14 -7 -19
-21z"></path>
<path d="M677 663 c-8 -14 -1 -108 8 -108 5 0 11 26 13 58 3 50 -7 73 -21 50z"></path>
<path d="M262 630 c-8 -16 -25 -35 -40 -42 -35 -18 -40 -38 -8 -38 21 0 25 -5
28 -37 2 -27 8 -38 20 -38 9 0 25 -8 36 -18 14 -13 22 -15 27 -7 4 7 3 16 -3
22 -6 6 -7 21 -1 41 5 18 9 37 9 44 0 19 -24 6 -35 -19 -6 -12 -16 -23 -22
-26 -18 -5 -16 23 3 39 8 7 22 26 30 43 14 29 13 28 -20 -9 -29 -33 -36 -37
-42 -22 -4 11 3 30 20 51 27 36 31 46 18 46 -4 0 -13 -13 -20 -30z"></path>
<path d="M210 630 c0 -5 5 -10 10 -10 6 0 10 5 10 10 0 6 -4 10 -10 10 -5 0
-10 -4 -10 -10z"></path>
<path d="M362 618 c-14 -14 -16 -42 -3 -34 7 5 23 46 17 46 -1 0 -7 -5 -14
-12z"></path>
<path d="M504 614 c3 -9 6 -18 6 -20 0 -2 5 -4 10 -4 6 0 10 9 10 20 0 12 -7
20 -16 20 -11 0 -14 -5 -10 -16z"></path>
<path d="M386 570 c-16 -22 -33 -37 -38 -34 -14 9 -9 -36 8 -72 21 -44 32 -43
36 4 2 23 8 36 16 35 15 -4 16 13 1 22 -6 4 -16 -1 -24 -11 -7 -11 -17 -16
-21 -11 -4 4 1 17 12 30 22 26 47 68 42 72 -2 2 -16 -14 -32 -35z"></path>
<path d="M576 584 c-10 -25 -7 -34 9 -28 8 4 15 15 15 25 0 23 -16 25 -24 3z"></path>
<path d="M425 561 c-3 -5 -1 -12 4 -15 5 -4 7 -30 4 -59 -5 -52 -5 -54 33 -85
21 -18 43 -32 48 -32 5 0 21 -10 34 -22 14 -13 23 -18 21 -12 -2 7 -28 30 -56
53 -52 41 -53 42 -53 96 0 30 3 55 8 55 14 0 41 -39 52 -77 11 -37 46 -90 54
-82 9 9 -7 59 -25 77 -22 25 -36 72 -20 72 6 0 11 9 11 20 0 11 -4 20 -10 20
-5 0 -10 -9 -10 -20 0 -25 -2 -25 -42 0 -37 22 -44 24 -53 11z"></path>
<path d="M840 556 c0 -4 7 -17 16 -31 14 -21 14 -24 -3 -33 -10 -6 -14 -14
-10 -19 5 -4 13 0 18 10 12 20 35 23 42 5 3 -7 6 -8 6 -3 0 6 -5 17 -12 25
-19 23 -57 54 -57 46z"></path>
<path d="M600 510 c0 -44 12 -52 27 -17 l11 22 12 -27 c14 -30 30 -37 30 -13
0 8 5 15 10 15 11 0 14 -53 3 -63 -8 -9 -10 -67 -2 -67 14 0 30 30 36 63 5 31
-5 60 -35 107 -2 2 -7 -2 -13 -10 -8 -13 -11 -13 -19 2 -6 9 -17 15 -25 12 -8
-4 -15 -1 -15 5 0 6 -4 11 -10 11 -5 0 -10 -18 -10 -40z"></path>
<path d="M752 520 c-16 -27 -16 -27 13 -27 26 0 29 5 19 31 -8 21 -17 20 -32
-4z"></path>
<path d="M550 505 c0 -8 5 -15 10 -15 6 0 10 7 10 15 0 8 -4 15 -10 15 -5 0
-10 -7 -10 -15z"></path>
<path d="M190 501 c0 -6 5 -13 10 -16 6 -3 10 1 10 9 0 9 -4 16 -10 16 -5 0
-10 -4 -10 -9z"></path>
<path d="M815 500 c3 -5 8 -10 11 -10 2 0 4 5 4 10 0 6 -5 10 -11 10 -5 0 -7
-4 -4 -10z"></path>
<path d="M787 474 c-4 -4 -7 -17 -7 -29 0 -12 -11 -39 -25 -60 -15 -20 -24
-40 -21 -42 6 -7 106 79 106 91 0 5 -9 1 -20 -9 -11 -10 -20 -13 -20 -8 0 6 7
16 15 23 15 12 11 35 -5 25 -4 -3 -10 0 -12 6 -2 5 -7 7 -11 3z"></path>
<path d="M202 461 c4 -13 18 -16 19 -4 0 4 -5 9 -11 12 -7 2 -11 -2 -8 -8z"></path>
<path d="M639 408 c-7 -18 -14 -36 -17 -40 -2 -5 0 -8 5 -8 7 0 22 26 40 68 3
6 1 12 -5 12 -6 0 -16 -15 -23 -32z"></path>
<path d="M380 380 c0 -5 5 -10 10 -10 6 0 10 5 10 10 0 6 -4 10 -10 10 -5 0
-10 -4 -10 -10z"></path>
<path d="M2314 1460 c-29 -11 -54 -48 -54 -78 0 -24 34 -62 99 -110 21 -16 31
-32 31 -51 0 -62 -62 -71 -109 -14 -35 42 -44 40 -35 -6 8 -37 33 -51 95 -51
52 0 99 43 99 90 0 35 -41 82 -98 112 -28 15 -33 22 -30 49 2 18 10 36 19 42
25 16 68 0 79 -29 12 -30 34 -22 24 9 -12 43 -65 59 -120 37z"></path>
<path d="M2499 1441 c-12 -31 -4 -38 20 -17 12 11 31 16 53 14 l33 -3 3 -128
c2 -122 2 -129 -18 -134 -39 -10 -19 -18 45 -18 63 0 81 7 50 19 -13 5 -15 26
-13 133 l3 128 37 3 c29 2 39 -1 48 -18 14 -26 30 -17 30 18 l0 27 -141 0
c-140 0 -141 0 -150 -24z"></path>
<path d="M3491 1444 c-23 -19 -31 -34 -31 -57 1 -40 17 -62 77 -101 36 -23 49
-38 51 -59 8 -70 -80 -81 -114 -15 -19 36 -39 25 -28 -16 8 -32 38 -46 95 -46
31 0 47 7 70 29 52 52 31 119 -52 161 -51 27 -65 54 -44 86 22 34 59 31 86 -6
25 -33 40 -32 32 3 -13 53 -90 65 -142 21z"></path>
<path d="M4535 1456 c-16 -7 -43 -28 -60 -45 -24 -26 -30 -41 -33 -94 -3 -52
0 -67 20 -97 66 -98 227 -91 279 12 53 105 -12 226 -128 235 -28 2 -61 -2 -78
-11z m120 -39 c80 -80 48 -247 -47 -247 -68 0 -108 57 -108 152 1 60 16 95 51
114 39 22 69 16 104 -19z"></path>
<path d="M4935 1458 c-43 -15 -94 -67 -107 -109 -22 -76 24 -165 99 -190 62
-20 222 2 184 25 -17 11 -13 66 4 72 33 13 12 24 -45 24 -59 0 -80 -12 -39
-23 17 -5 20 -12 17 -44 l-3 -38 -49 1 c-42 0 -53 5 -76 31 -51 57 -48 163 6
214 20 19 36 24 76 24 43 0 53 -4 74 -30 27 -34 40 -29 27 12 -14 40 -97 56
-168 31z"></path>
<path d="M1510 1451 c0 -6 5 -13 11 -17 8 -5 10 -43 7 -127 -4 -96 -9 -123
-22 -132 -24 -18 -21 -20 29 -20 45 0 58 8 30 19 -12 4 -15 26 -15 106 0 55 3
100 8 100 4 0 28 -49 54 -107 26 -59 51 -109 56 -111 5 -1 30 45 57 103 26 58
52 105 56 105 5 0 9 -43 9 -95 0 -76 -3 -97 -15 -101 -30 -12 -14 -19 40 -19
54 0 70 7 40 19 -12 4 -15 28 -15 130 0 72 4 127 10 131 21 13 9 26 -22 23
-31 -3 -36 -9 -83 -105 -27 -56 -54 -102 -58 -102 -5 -1 -31 46 -58 104 -50
103 -51 105 -85 105 -19 0 -34 -4 -34 -9z"></path>
<path d="M2046 1438 c-8 -13 -33 -72 -56 -133 -23 -60 -51 -117 -61 -127 -10
-9 -19 -18 -19 -20 0 -1 20 -3 45 -3 25 0 45 3 45 8 0 4 -5 7 -11 7 -15 0 -5
66 12 86 8 10 26 14 52 12 37 -3 41 -6 54 -42 9 -27 10 -43 3 -50 -18 -18 -11
-21 45 -21 59 0 65 4 36 22 -12 7 -34 60 -62 147 -25 75 -49 135 -56 136 -7 0
-19 -10 -27 -22z m22 -95 c6 -20 9 -40 6 -45 -6 -9 -48 -11 -56 -2 -7 7 22 84
32 84 4 0 12 -16 18 -37z"></path>
<path d="M2868 1320 c3 -136 3 -142 -17 -147 -12 -3 -21 -10 -21 -15 0 -6 7
-7 16 -4 9 3 62 6 120 6 103 0 104 0 110 25 9 35 -3 44 -22 17 -12 -17 -25
-22 -63 -22 -26 0 -52 5 -59 12 -7 7 -12 34 -12 60 l0 48 40 0 c27 0 43 -5 46
-15 12 -30 24 -14 24 30 0 44 -12 60 -24 30 -3 -10 -19 -15 -46 -15 l-41 0 3
53 3 52 47 3 c39 3 49 0 58 -17 16 -30 30 -26 21 7 -7 27 -9 27 -97 30 l-89 3
3 -141z"></path>
<path d="M3130 1451 c0 -5 7 -11 15 -15 12 -4 15 -29 15 -131 0 -102 -3 -127
-15 -131 -30 -12 -14 -19 40 -19 54 0 70 7 39 19 -11 4 -14 18 -12 58 4 74 26
75 67 4 31 -55 70 -86 111 -86 23 0 27 15 6 23 -8 3 -33 32 -55 65 l-40 59 30
29 c43 42 39 93 -12 119 -31 17 -189 21 -189 6z m152 -28 c41 -37 9 -119 -44
-111 -20 3 -23 9 -26 52 -2 27 -1 55 2 62 7 19 46 18 68 -3z"></path>
<path d="M3840 1451 c0 -5 7 -11 15 -15 12 -4 15 -29 15 -131 0 -102 -3 -127
-15 -131 -31 -12 -13 -20 45 -19 59 0 75 7 45 19 -13 5 -15 26 -13 133 3 122
4 128 24 131 14 2 29 -7 43 -25 26 -31 22 -65 -11 -100 -27 -28 -20 -37 18
-23 45 17 64 40 64 76 0 46 -8 63 -41 79 -31 17 -189 21 -189 6z"></path>
<path d="M4140 1452 c0 -6 5 -14 10 -17 6 -4 10 -59 10 -131 0 -102 -3 -126
-15 -130 -31 -12 -13 -19 45 -19 58 0 76 7 45 19 -11 4 -15 20 -15 55 0 55 16
75 37 45 66 -94 81 -109 116 -118 51 -13 55 -3 14 36 -19 18 -44 49 -56 69
l-21 36 25 23 c32 30 34 88 4 116 -17 15 -40 20 -110 22 -57 3 -89 0 -89 -6z
m145 -26 c26 -19 26 -83 0 -103 -11 -7 -29 -12 -40 -11 -16 2 -21 12 -23 52
-2 27 -1 55 2 62 7 18 37 18 61 0z"></path>
<path d="M5190 1451 c0 -5 7 -11 15 -15 12 -4 15 -29 15 -131 0 -102 -3 -127
-15 -131 -30 -12 -14 -19 40 -19 54 0 70 7 39 19 -11 4 -14 18 -12 58 4 75 25
74 71 0 22 -36 48 -64 64 -70 31 -13 163 -12 163 0 0 5 -5 8 -11 8 -15 0 -5
66 12 86 8 10 26 14 52 12 37 -3 41 -6 54 -42 9 -27 10 -43 3 -50 -18 -18 -11
-21 40 -21 52 0 59 5 36 25 -8 6 -34 69 -57 138 -23 70 -45 131 -50 136 -17
18 -39 -18 -85 -137 -26 -67 -51 -128 -57 -135 -22 -28 -60 -9 -103 53 l-43
60 30 27 c44 41 39 97 -12 123 -31 17 -189 21 -189 6z m152 -28 c41 -37 9
-119 -44 -111 -20 3 -23 9 -26 52 -2 27 -1 55 2 62 7 19 46 18 68 -3z m296
-80 c6 -20 9 -40 6 -45 -6 -9 -48 -11 -56 -2 -7 7 22 84 32 84 4 0 12 -16 18
-37z"></path>
<path d="M5820 1451 c0 -5 9 -11 20 -14 19 -5 20 -11 14 -124 -4 -77 -11 -123
-20 -134 -21 -23 -18 -26 26 -26 44 0 46 2 27 26 -13 17 -12 191 1 191 4 0 27
-47 52 -105 24 -58 48 -105 52 -105 5 0 32 50 60 110 28 61 54 110 58 110 10
0 0 -193 -11 -204 -17 -18 -9 -22 46 -22 59 0 64 3 39 21 -13 9 -18 36 -22
134 -5 118 -4 122 17 128 35 9 24 23 -19 23 l-40 0 -52 -105 c-29 -58 -56
-104 -60 -103 -8 3 -81 155 -92 191 -4 13 -16 17 -51 17 -25 0 -45 -4 -45 -9z"></path>
<path d="M6471 1450 c-48 -4 -52 -7 -38 -19 24 -19 25 -236 1 -262 -14 -16
-12 -17 40 -21 54 -3 72 4 41 16 -12 4 -15 29 -15 135 0 113 2 131 17 140 26
14 15 17 -46 11z"></path>
<path d="M6830 1451 c0 -2 8 -10 18 -17 13 -10 18 -31 21 -98 2 -53 -1 -86 -7
-86 -10 0 -99 93 -154 160 -27 35 -37 40 -71 40 l-40 0 21 -23 c20 -21 22 -34
22 -123 0 -65 -5 -108 -14 -126 l-14 -26 44 -4 c49 -4 54 1 24 20 -18 11 -20
23 -20 107 0 52 4 95 8 95 5 0 53 -51 107 -114 55 -63 103 -112 107 -110 4 3
8 64 8 136 0 105 3 135 16 149 14 16 12 17 -30 21 -25 2 -46 1 -46 -1z"></path>
<path d="M1775 931 c-79 -36 -117 -110 -96 -189 18 -67 89 -112 175 -112 61 0
94 15 106 46 15 39 5 41 -35 5 -40 -35 -79 -40 -125 -16 -40 20 -60 63 -60
125 0 28 7 64 15 80 34 65 128 78 172 23 26 -32 37 -27 27 12 -12 47 -104 61
-179 26z"></path>
<path d="M2103 930 c-58 -29 -87 -80 -87 -147 0 -88 56 -144 151 -151 48 -3
64 0 92 20 58 39 76 72 76 138 0 63 -16 95 -67 133 -40 30 -114 33 -165 7z
m126 -26 c85 -71 53 -254 -44 -254 -65 0 -105 58 -105 152 1 60 16 95 51 114
36 20 64 17 98 -12z"></path>
<path d="M3499 921 c-12 -31 -4 -38 20 -17 12 11 31 16 53 14 l33 -3 3 -128
c2 -122 2 -129 -18 -134 -40 -11 -19 -19 45 -19 63 1 81 8 50 20 -13 5 -15 26
-13 133 l3 128 38 3 c32 3 39 0 44 -17 9 -34 33 -25 33 12 l0 32 -141 0 c-140
0 -141 0 -150 -24z"></path>
<path d="M4631 924 c-22 -18 -31 -35 -31 -56 0 -43 15 -64 65 -94 66 -38 87
-92 46 -114 -33 -17 -62 -11 -91 20 -33 35 -40 37 -40 10 0 -37 35 -60 91 -60
43 0 55 5 80 29 49 49 34 113 -34 147 -72 37 -94 76 -59 107 26 24 49 21 78
-8 31 -31 34 -31 34 0 0 49 -89 61 -139 19z"></path>
<path d="M4947 936 c-73 -27 -107 -76 -107 -153 0 -93 68 -152 177 -153 69 0
99 13 107 45 10 39 3 40 -32 5 -83 -83 -204 5 -189 137 7 66 51 108 113 108
37 0 50 -5 69 -27 13 -16 27 -28 30 -28 10 0 5 59 -6 65 -23 15 -125 15 -162
1z"></path>
<path d="M6150 939 c-83 -25 -126 -87 -118 -171 8 -83 78 -138 177 -138 67 0
99 14 107 45 9 38 0 40 -34 5 -104 -104 -251 69 -167 196 37 56 126 66 164 18
10 -13 22 -24 25 -24 10 0 7 58 -4 65 -19 12 -115 14 -150 4z"></path>
<path d="M2410 934 c0 -4 7 -12 16 -19 14 -10 15 -27 9 -134 -5 -90 -11 -124
-21 -128 -27 -10 -13 -18 31 -18 45 0 58 8 30 19 -12 4 -15 26 -15 106 0 55 3
100 8 100 7 0 43 -80 80 -177 9 -24 21 -43 27 -43 5 1 33 50 60 110 28 60 53
109 58 110 4 0 7 -45 7 -100 0 -80 -3 -102 -15 -106 -30 -12 -14 -19 40 -19
54 0 70 7 40 19 -22 8 -22 266 0 266 8 0 15 5 15 10 0 6 -17 10 -39 10 l-38 0
-51 -105 c-28 -58 -55 -105 -60 -105 -5 0 -30 46 -55 103 l-46 102 -40 3 c-23
2 -41 0 -41 -4z"></path>
<path d="M2850 931 c0 -5 7 -11 15 -15 12 -4 15 -29 15 -131 0 -102 -3 -127
-15 -131 -31 -12 -13 -19 45 -19 33 0 60 2 60 5 0 3 -9 11 -20 18 -19 12 -20
21 -18 135 3 119 4 122 26 125 61 9 87 -87 35 -127 -33 -27 -24 -36 21 -21 71
23 90 98 35 144 -28 23 -39 26 -115 26 -46 0 -84 -4 -84 -9z"></path>
<path d="M3150 931 c0 -6 5 -13 10 -16 6 -3 10 -50 10 -105 0 -110 11 -145 51
-166 40 -20 108 -18 146 6 40 24 53 67 53 178 0 64 3 84 15 88 30 12 14 24
-30 24 -44 0 -60 -12 -30 -24 19 -7 21 -178 2 -216 -32 -64 -107 -64 -139 0
-20 39 -26 204 -8 215 23 14 7 25 -35 25 -25 0 -45 -4 -45 -9z"></path>
<path d="M3840 931 c0 -5 7 -11 15 -15 12 -4 15 -29 15 -132 0 -117 -1 -126
-20 -131 -46 -12 -13 -18 97 -18 l117 0 10 27 c13 36 0 48 -20 20 -12 -17 -25
-22 -63 -22 -59 0 -73 14 -69 72 3 42 4 43 41 46 26 2 39 -1 43 -12 11 -29 24
-16 24 24 0 40 -7 48 -25 31 -6 -5 -26 -11 -45 -13 l-35 -3 0 55 0 55 44 3
c37 3 48 -1 62 -20 22 -28 33 -20 20 16 -10 26 -12 26 -111 26 -55 0 -100 -4
-100 -9z"></path>
<path d="M4130 931 c0 -5 7 -11 15 -15 12 -4 15 -29 15 -131 0 -102 -3 -127
-15 -131 -30 -12 -14 -20 40 -20 54 0 70 8 39 20 -11 4 -14 18 -12 58 4 74 26
75 67 4 31 -55 70 -86 111 -86 26 0 25 8 -3 30 -13 10 -37 41 -54 68 l-31 50
29 25 c40 35 39 77 -2 111 -28 23 -39 26 -115 26 -46 0 -84 -4 -84 -9z m152
-28 c41 -37 9 -119 -44 -111 -20 3 -23 9 -26 52 -2 27 -1 55 2 62 7 19 46 18
68 -3z"></path>
<path d="M5180 931 c0 -5 7 -11 15 -15 12 -4 15 -29 15 -131 0 -102 -3 -127
-15 -131 -31 -12 -13 -21 45 -21 58 0 76 9 45 21 -12 4 -15 29 -15 131 0 102
3 127 15 131 33 13 12 24 -45 24 -33 0 -60 -4 -60 -9z"></path>
<path d="M5370 931 c0 -5 7 -11 15 -15 12 -4 15 -29 15 -132 0 -117 -1 -126
-20 -131 -46 -12 -13 -18 97 -18 l116 0 10 28 c12 37 0 48 -22 19 -15 -20 -24
-23 -71 -20 l-55 3 0 55 c0 55 0 55 33 58 22 2 34 -2 38 -12 12 -31 24 -16 24
29 0 46 -14 61 -23 24 -4 -16 -12 -20 -39 -17 l-33 3 0 55 0 55 42 3 c34 2 45
-1 55 -17 18 -29 30 -26 26 7 l-3 27 -102 3 c-59 1 -103 -1 -103 -7z"></path>
<path d="M5640 931 c0 -5 9 -11 20 -14 19 -5 20 -14 20 -131 0 -103 -3 -128
-15 -132 -29 -12 -14 -22 30 -22 45 1 58 11 30 22 -12 4 -15 26 -15 106 0 94
8 120 27 86 20 -35 186 -215 194 -210 5 3 9 66 9 140 0 110 3 136 15 140 30
12 14 24 -30 24 -47 0 -54 -6 -30 -24 10 -8 15 -35 16 -91 1 -44 -1 -82 -4
-85 -6 -5 -152 153 -168 182 -7 13 -21 18 -54 18 -25 0 -45 -4 -45 -9z"></path>
<path d="M6380 931 c0 -5 7 -11 15 -15 12 -4 15 -28 15 -126 0 -109 -2 -121
-20 -132 -11 -7 -20 -15 -20 -19 0 -3 53 -5 117 -5 l117 1 7 29 c11 39 2 47
-20 18 -15 -20 -24 -23 -71 -20 l-55 3 0 55 c0 55 0 55 33 58 22 2 34 -2 38
-12 11 -29 24 -16 24 24 0 40 -13 53 -24 24 -4 -10 -16 -14 -38 -12 -33 3 -33
3 -33 58 l0 55 42 3 c34 2 45 -1 55 -17 18 -29 30 -26 26 7 l-3 27 -102 3
c-59 1 -103 -1 -103 -7z"></path>
<path d="M1480 460 c0 -7 920 -10 2740 -10 1820 0 2740 3 2740 10 0 7 -920 10
-2740 10 -1820 0 -2740 -3 -2740 -10z"></path>
<path d="M1715 242 c-13 -13 -3 -20 28 -18 l32 1 0 -82 c-1 -77 1 -83 20 -83
19 0 21 6 20 83 l0 82 33 -2 c21 -1 32 3 29 10 -4 12 -151 20 -162 9z"></path>
<path d="M1940 238 c0 -4 5 -10 10 -13 13 -8 13 -132 0 -140 -14 -9 -2 -25 18
-25 15 0 17 12 17 93 0 89 -1 92 -22 92 -13 0 -23 -3 -23 -7z"></path>
<path d="M2077 208 l6 -38 -42 0 c-51 0 -54 -18 -3 -22 36 -3 37 -4 35 -43 -1
-36 1 -40 23 -41 24 -2 32 10 14 21 -5 3 -10 35 -10 70 0 35 5 67 10 70 18 11
11 20 -15 20 -23 0 -24 -3 -18 -37z"></path>
<path d="M2190 238 c0 -4 5 -10 10 -13 6 -3 10 -35 10 -70 0 -35 -4 -67 -10
-70 -22 -14 -7 -21 50 -23 50 -2 61 0 70 18 11 21 1 27 -17 9 -6 -6 -23 -9
-39 -7 -29 3 -29 3 -29 73 l0 70 38 -1 c24 -1 36 3 34 10 -4 12 -117 16 -117
4z"></path>
<path d="M2887 198 c6 -52 10 -65 17 -57 2 2 6 28 9 57 5 47 4 52 -13 52 -17
0 -18 -5 -13 -52z"></path>
<path d="M3010 241 c0 -6 5 -13 10 -16 6 -3 10 -35 10 -70 0 -35 -4 -67 -10
-70 -18 -11 -10 -22 13 -18 21 4 22 9 22 94 0 86 -1 89 -22 89 -13 0 -23 -4
-23 -9z"></path>
<path d="M3150 243 c0 -5 4 -13 9 -18 4 -6 21 -43 36 -83 16 -39 32 -72 36
-72 16 0 21 41 6 53 -16 14 -48 91 -44 109 1 7 -8 14 -20 16 -13 2 -23 -1 -23
-5z"></path>
<path d="M3280 234 c0 -9 7 -14 17 -12 25 5 28 28 4 28 -12 0 -21 -6 -21 -16z"></path>
<path d="M3398 169 c3 -50 1 -79 -7 -83 -23 -15 -9 -21 48 -23 42 -2 63 2 71
13 16 19 5 31 -14 15 -8 -7 -27 -11 -43 -9 -24 3 -28 8 -28 33 0 28 2 30 33
27 26 -2 32 1 32 18 0 19 -4 20 -36 14 -35 -6 -35 -6 -32 22 3 33 38 45 65 23
13 -11 15 -10 11 6 -3 17 -12 20 -54 20 l-50 0 4 -76z"></path>
<path d="M3625 243 c-18 -3 -20 -12 -20 -93 0 -88 1 -90 24 -90 19 0 22 4 17
20 -3 11 -9 29 -12 40 -10 33 17 24 57 -20 35 -39 59 -51 59 -30 0 6 -4 10 -8
10 -5 0 -18 14 -31 31 -21 28 -21 32 -7 54 19 29 20 49 3 63 -16 13 -56 21
-82 15z m63 -46 c2 -18 -2 -29 -12 -33 -29 -11 -43 2 -38 36 4 25 9 30 26 28
15 -2 22 -11 24 -31z"></path>
<path d="M3882 239 c2 -7 10 -15 17 -17 8 -3 12 1 9 9 -2 7 -10 15 -17 17 -8
3 -12 -1 -9 -9z"></path>
<path d="M4005 153 c0 -90 1 -93 23 -93 21 0 30 14 14 24 -9 6 -9 133 1 142
13 13 7 19 -15 19 -22 0 -23 -3 -23 -92z"></path>
<path d="M4135 239 c-10 -15 3 -25 16 -12 7 7 7 13 1 17 -6 3 -14 1 -17 -5z"></path>
<path d="M4275 240 c-7 -12 2 -30 16 -30 12 0 12 27 0 35 -5 3 -12 1 -16 -5z"></path>
<path d="M4350 245 c0 -2 14 -27 30 -55 30 -51 38 -94 20 -105 -19 -12 -10
-22 20 -22 34 0 34 0 18 26 -9 14 -9 29 -1 54 9 31 8 34 -7 30 -13 -4 -21 4
-31 30 -7 20 -21 38 -31 40 -10 3 -18 3 -18 2z"></path>
<path d="M4459 245 c0 0 -2 -12 -3 -27 l-2 -27 23 21 c13 12 23 24 23 28 0 4
-33 9 -41 5z"></path>
<path d="M4685 227 c-18 -15 -28 -36 -32 -64 -5 -37 -2 -45 25 -73 39 -38 88
-41 129 -6 23 20 28 32 28 71 0 39 -5 51 -28 71 -36 31 -87 32 -122 1z m109
-19 c21 -29 20 -87 -1 -110 -23 -26 -78 -24 -97 4 -21 29 -20 87 1 110 23 26
78 24 97 -4z"></path>
<path d="M4905 153 c0 -88 1 -93 21 -93 19 0 21 5 20 83 l-1 82 33 -2 c21 -1
32 3 29 10 -2 7 -25 12 -53 12 l-49 0 0 -92z"></path>
<path d="M5215 228 c-15 -14 -28 -38 -31 -59 -12 -74 89 -137 146 -91 14 11
22 24 18 28 -5 4 -16 0 -26 -9 -45 -40 -112 -1 -112 65 0 34 24 68 48 68 7 0
12 5 12 10 0 17 -28 11 -55 -12z"></path>
<path d="M5300 244 c0 -8 32 -33 43 -34 4 0 3 9 -3 20 -10 18 -40 29 -40 14z"></path>
<path d="M5417 163 c2 -77 4 -88 20 -88 15 0 17 7 15 38 l-4 38 49 -3 c51 -3
49 0 40 -63 -1 -5 6 -10 16 -10 16 0 18 11 20 88 2 84 1 87 -21 87 -19 0 -22
-4 -16 -27 4 -16 7 -32 8 -38 0 -5 -21 -11 -48 -13 l-49 -3 6 40 c5 37 3 41
-16 41 -21 0 -22 -4 -20 -87z"></path>
<path d="M5667 163 c2 -64 6 -89 15 -91 11 -2 13 13 10 69 -3 44 0 75 7 82 17
17 13 27 -11 27 -22 0 -23 -3 -21 -87z"></path>
<path d="M5799 221 c-33 -33 -37 -67 -14 -111 25 -48 114 -63 146 -24 18 21 2
30 -19 11 -45 -41 -112 -1 -112 65 0 27 7 42 25 56 14 11 25 23 25 26 0 15
-24 4 -51 -23z"></path>
<path d="M5890 243 c0 -4 9 -14 21 -21 18 -12 20 -11 17 5 -3 17 -38 32 -38
16z"></path>
<path d="M6054 234 c-3 -10 -12 -33 -20 -51 -8 -17 -14 -36 -14 -42 0 -12 20
-15 21 -3 6 57 25 71 34 24 2 -11 9 -30 15 -42 6 -11 8 -25 5 -30 -6 -10 22
-26 30 -18 6 6 -44 160 -56 172 -5 5 -11 1 -15 -10z"></path>
<path d="M6213 224 c-28 -22 -33 -32 -33 -69 0 -35 5 -48 25 -64 57 -44 126
-36 130 16 2 26 -2 32 -21 36 -26 5 -30 -3 -13 -20 17 -17 3 -43 -23 -43 -59
0 -97 75 -64 125 9 14 23 25 31 25 8 0 15 5 15 10 0 16 -13 12 -47 -16z"></path>
<path d="M6300 241 c0 -12 29 -35 36 -28 11 10 -5 37 -21 37 -8 0 -15 -4 -15
-9z"></path>
<path d="M6437 239 c-21 -12 -47 -61 -47 -88 0 -12 12 -34 28 -50 28 -31 82
-52 82 -32 0 6 -9 11 -19 11 -28 0 -61 47 -61 86 0 23 7 38 25 52 37 29 31 44
-8 21z"></path>
<path d="M6500 245 c0 -2 11 -15 25 -29 30 -30 34 -89 8 -118 -15 -17 -15 -18
0 -18 20 0 47 49 47 85 0 16 -12 38 -29 56 -26 26 -51 38 -51 24z"></path>
<path d="M2508 168 c5 -85 19 -108 69 -108 52 0 73 28 73 100 0 33 0 63 0 68
0 4 -5 7 -12 7 -8 0 -11 -20 -9 -63 3 -72 -8 -92 -50 -92 -38 0 -51 27 -48 98
2 44 -1 58 -12 60 -12 2 -14 -10 -11 -70z"></path>
<path d="M2755 150 c0 -77 2 -90 16 -90 14 0 16 9 11 65 -2 36 -1 65 4 65 5 0
32 -27 59 -60 51 -61 65 -71 65 -46 0 16 -130 156 -145 156 -6 0 -10 -38 -10
-90z"></path>
<path d="M3820 221 c-14 -27 -4 -47 37 -72 24 -15 33 -27 31 -43 -3 -24 -41
-34 -64 -16 -17 15 -19 -1 -2 -18 18 -18 53 -15 71 6 27 29 20 58 -19 88 -27
21 -35 33 -31 51 5 28 -8 30 -23 4z"></path>
<path d="M4199 233 c0 -4 0 -38 1 -75 1 -37 -3 -69 -9 -73 -20 -12 -11 -22 19
-22 30 0 39 10 19 22 -6 4 -9 36 -8 78 2 47 -2 72 -9 75 -7 2 -12 0 -13 -5z"></path>
<path d="M3271 192 c-7 -13 -11 -28 -8 -35 2 -7 9 -2 16 11 7 13 11 28 8 35
-2 7 -9 2 -16 -11z"></path>
<path d="M2260 170 c-13 -9 -13 -11 0 -20 9 -6 18 -6 24 0 15 15 -6 31 -24 20z"></path>
<path d="M4977 164 c-8 -8 1 -24 14 -24 5 0 9 7 9 15 0 15 -12 20 -23 9z"></path>
<path d="M6000 101 c-13 -26 -13 -31 5 -31 9 0 15 9 15 25 0 30 -6 32 -20 6z"></path>
</g>
</svg>