<svg xmlns="http://www.w3.org/2000/svg" width="300" height="300" class="coderspace-logo" alt="CoderSpace logo" version="1.0" viewBox="0 0 1600.000000 1200.000000" preserveAspectRatio="xMidYMid meet">
  <g transform="translate(0.000000,1200.000000) scale(0.100000,-0.100000)" fill="white" stroke="none">
    <path d="M7710 11619 c-1231 -87 -2357 -697 -3100 -1679 -724 -958 -1009                 -2177 -784 -3355 248 -1299 1090 -2412 2272 -3004 1196 -599 2608 -599 3804 0                 813 407 1488 1080 1893 1889 682 1361 590 2967 -243 4240 -357 547 -869 1029                 -1436 1355 -726 416 -1577 612 -2406 554z m486 -619 c522 -32 974 -151 1419                 -375 383 -191 683 -411 983 -719 286 -294 480 -569 662 -941 390 -795 471                 -1709 229 -2575 -106 -378 -298 -781 -522 -1095 -236 -331 -524 -621 -852                 -860 -897 -652 -2080 -850 -3157 -529 -378 113 -759 301 -1073 529 -398 290                 -743 662 -990 1070 -87 144 -232 439 -288 590 -332 884 -307 1878 71 2742 292                 668 817 1266 1447 1648 138 83 414 219 566 279 326 127 724 213 1089 235 185                 12 239 12 416 1z"/>
    <path d="M6140 9090 c-507 -90 -891 -436 -1035 -935 -59 -206 -60 -217 -60                 -875 0 -590 1 -608 23 -718 78 -388 267 -686 555 -879 236 -158 465 -218 827                 -217 231 0 334 13 508 60 506 137 811 518 878 1097 l6 57 -356 0 c-196 0 -356                 -3 -356 -7 0 -42 -36 -207 -58 -270 -87 -247 -249 -366 -534 -392 -427 -39                 -682 175 -774 649 -13 67 -17 176 -21 526 -7 641 10 796 116 1009 79 158 166                 249 298 312 177 85 463 79 651 -13 170 -83 277 -266 316 -539 l12 -80 353 -3                 354 -2 -6 60 c-19 181 -80 388 -159 543 -186 363 -486 560 -948 622 -153 21                 -457 18 -590 -5z"/>
    <path d="M9380 9104 c-413 -51 -746 -225 -931 -487 -102 -145 -143 -288 -143                 -497 1 -214 37 -347 139 -500 141 -211 473 -405 965 -562 461 -147 588 -202                 693 -298 100 -92 146 -215 134 -358 -16 -190 -133 -318 -347 -379 -100 -28                 -433 -25 -545 5 -273 74 -414 234 -433 492 l-7 85 -356 3 -356 2 4 -77 c10                 -177 62 -351 145 -490 49 -83 187 -223 286 -291 284 -194 626 -292 1022 -292                 611 0 1073 229 1230 610 84 205 92 479 20 704 -43 132 -107 235 -209 336 -187                 186 -455 323 -901 461 -306 94 -518 184 -630 268 -213 159 -191 480 43 634                 107 71 221 98 409 98 199 0 330 -38 443 -128 98 -78 169 -215 181 -353 l7 -70                 355 0 355 0 -6 83 c-13 181 -63 331 -157 474 -168 256 -448 433 -797 504 -90                 18 -147 22 -343 24 -129 2 -251 1 -270 -1z"/>
    
    
    
    
    
    
    
    
    
    
  </g>
</svg>