 <svg version="1.0" xmlns="http://www.w3.org/2000/svg" width="700.000000pt" height="249.000000pt" viewBox="0 0 700.000000 249.000000" preserveAspectRatio="xMidYMid meet">
<metadata>
Created by potrace 1.12, written by Peter Selinger 2001-2015
</metadata>
<g transform="translate(0.000000,249.000000) scale(0.100000,-0.100000)" fill="white" stroke="none">
<path d="M1360 2475 c-7 -8 -16 -15 -21 -15 -5 0 -58 -37 -118 -82 -60 -46
-116 -87 -125 -93 -15 -9 -16 -27 -14 -133 l3 -123 64 51 c35 28 67 50 70 48
4 -2 98 -70 210 -153 237 -176 229 -171 233 -165 2 3 2 109 0 236 l-3 232
-121 88 c-67 49 -130 97 -140 107 -22 21 -22 21 -38 2z"></path>
<path d="M2873 2213 c-35 -7 -110 -80 -123 -119 -7 -20 -10 -64 -8 -99 4 -71
32 -117 93 -155 49 -30 146 -30 204 0 51 26 60 45 33 72 l-20 21 -34 -27 c-85
-64 -208 -1 -208 107 0 111 116 177 202 115 32 -23 51 -19 72 16 9 13 6 21
-14 36 -44 34 -122 48 -197 33z"></path>
<path d="M3262 2209 c-49 -15 -119 -89 -128 -134 -12 -67 2 -144 34 -184 45
-55 86 -73 165 -73 57 1 74 5 109 29 53 35 83 80 92 133 13 85 -22 169 -89
210 -41 25 -132 35 -183 19z m139 -75 c20 -10 38 -32 51 -61 18 -40 19 -50 8
-90 -17 -59 -70 -103 -124 -103 -131 0 -185 167 -80 249 33 26 101 28 145 5z"></path>
<path d="M3600 2216 c-1 -1 -2 -89 -3 -196 l-2 -195 35 0 35 0 1 127 c0 71 3
129 7 130 4 2 29 -34 57 -79 28 -46 55 -83 59 -83 5 0 32 38 60 85 29 47 56
85 60 85 4 0 8 -60 7 -132 l-1 -133 30 0 30 0 3 193 2 192 -39 0 c-26 0 -41
-5 -45 -16 -11 -28 -98 -154 -107 -154 -4 0 -32 39 -62 87 -51 83 -55 87 -90
89 -20 0 -37 0 -37 0z"></path>
<path d="M4560 2076 c0 -162 6 -184 60 -230 28 -23 40 -26 103 -26 140 0 177
57 177 274 l0 116 -39 0 -40 0 -3 -146 c-3 -139 -4 -147 -27 -165 -37 -30 -96
-25 -132 10 l-29 29 0 136 c0 127 -1 136 -19 136 -11 0 -26 3 -35 6 -14 5 -16
-11 -16 -140z"></path>
<path d="M5000 2213 l-25 -4 2 -192 2 -192 32 0 31 0 -1 127 c-1 69 2 128 6
131 5 3 53 -55 108 -129 93 -125 102 -135 130 -132 l30 3 3 193 2 192 -25 2
c-14 0 -30 1 -37 2 -8 1 -11 -29 -9 -109 1 -61 3 -119 4 -129 3 -28 -21 -31
-32 -4 -5 13 -44 66 -86 118 -42 52 -81 103 -86 113 -5 9 -13 16 -17 16 -4 -1
-18 -4 -32 -6z"></path>
<path d="M5896 2212 c-3 -5 6 -24 20 -43 14 -19 50 -70 80 -115 54 -80 54 -81
54 -157 l0 -77 35 0 35 0 0 80 0 81 61 92 c34 51 68 100 76 109 21 24 10 35
-32 30 -32 -4 -40 -11 -83 -83 -26 -43 -52 -78 -57 -79 -6 0 -32 36 -59 80
-38 63 -53 80 -71 80 -13 0 -30 3 -38 6 -8 3 -18 1 -21 -4z"></path>
<path d="M4080 2014 l0 -195 33 3 32 3 2 128 c1 71 3 131 6 133 2 2 28 -34 58
-80 48 -76 79 -105 79 -76 0 6 16 34 36 63 20 28 40 62 45 75 5 12 13 22 19
22 7 0 10 -44 9 -132 l-1 -133 33 0 34 0 3 193 2 193 -42 -3 c-42 -3 -44 -5
-93 -85 -27 -45 -53 -84 -56 -87 -3 -4 -32 34 -63 84 -56 88 -58 90 -97 90
l-39 0 0 -196z"></path>
<path d="M5420 2014 l0 -195 33 3 32 3 3 193 2 192 -35 0 -35 0 0 -196z"></path>
<path d="M5542 2183 c3 -27 6 -28 67 -33 l64 -5 -2 -162 -2 -163 35 0 36 0 2
163 3 162 63 3 c61 3 62 3 62 32 l0 30 -166 0 -165 0 3 -27z"></path>
<path d="M1048 1918 c-90 -68 -223 -167 -296 -221 l-132 -99 0 -608 c0 -335 4
-611 8 -614 4 -3 64 38 133 90 68 52 135 102 149 111 14 10 88 65 165 124
l141 107 256 -192 c140 -105 271 -204 291 -219 20 -16 41 -26 47 -22 7 4 10
203 10 614 l0 609 -127 94 c-71 52 -205 151 -299 221 -95 70 -174 127 -177
127 -3 0 -79 -55 -169 -122z"></path>
<path d="M1895 1854 c-77 -57 -140 -109 -140 -114 0 -5 29 -29 64 -54 l64 -44
-2 -310 c-2 -214 1 -312 8 -317 6 -3 35 13 64 37 93 77 84 74 115 45 37 -35
256 -196 262 -192 3 2 4 190 2 419 l-2 415 -129 96 c-71 52 -134 102 -141 110
-7 8 -15 15 -19 14 -3 0 -69 -47 -146 -105z"></path>
<path d="M200 1649 c-41 -33 -86 -67 -100 -76 -14 -10 -42 -30 -62 -46 l-38
-29 0 -301 0 -300 23 20 c12 11 77 62 145 112 l123 92 124 -95 c68 -52 126
-91 129 -88 3 3 6 137 6 298 l0 292 -27 18 c-16 9 -72 50 -126 91 -54 40 -104
73 -110 72 -7 0 -46 -27 -87 -60z"></path>
<path d="M2754 1587 c-2 -7 -3 -96 -2 -197 l3 -185 35 0 35 0 0 65 0 65 30 -2
c117 -7 189 33 201 112 8 58 -19 113 -67 137 -43 22 -227 26 -235 5z m218 -79
c43 -56 6 -104 -86 -110 l-59 -3 -2 65 c0 36 1 69 3 74 3 5 32 6 65 3 48 -4
65 -10 79 -29z"></path>
<path d="M3118 1593 c-2 -5 -3 -93 -3 -198 l0 -190 35 0 35 0 5 65 5 65 41 3
c40 3 41 2 87 -68 43 -64 50 -70 81 -70 19 0 38 4 41 10 3 5 -16 38 -43 72
l-50 63 44 40 c38 35 44 47 44 81 0 51 -32 102 -75 120 -36 15 -241 21 -247 7z
m209 -69 c28 -5 47 -39 39 -70 -9 -34 -57 -56 -119 -52 l-52 3 -3 54 c-2 29
-1 59 2 66 4 12 75 11 133 -1z"></path>
<path d="M3594 1585 c-190 -97 -124 -384 89 -385 120 0 207 85 207 202 -1 69
-27 126 -76 163 -34 26 -48 30 -114 33 -53 2 -84 -2 -106 -13z m168 -70 c27
-18 40 -37 48 -67 21 -77 -6 -140 -76 -173 -31 -15 -42 -15 -81 -5 -63 18 -93
60 -93 130 0 117 109 178 202 115z"></path>
<path d="M4034 1574 c-21 -14 -50 -42 -64 -62 -21 -31 -25 -49 -25 -112 0 -66
3 -80 29 -117 36 -54 75 -74 156 -80 57 -4 72 -1 120 24 l55 28 0 85 0 85 -80
0 -80 0 0 -30 c0 -29 2 -30 45 -30 45 0 45 0 48 -37 3 -35 1 -38 -35 -53 -92
-39 -190 28 -192 131 -1 47 30 101 69 121 37 19 98 16 135 -7 l32 -20 22 24
c13 14 20 29 17 34 -14 24 -77 42 -143 42 -57 0 -76 -4 -109 -26z"></path>
<path d="M4386 1592 c-3 -5 -4 -94 -3 -198 l3 -189 34 0 34 0 1 65 0 65 41 3
c41 3 42 2 94 -67 43 -59 57 -71 80 -71 46 0 45 17 -4 80 -25 32 -46 63 -46
69 0 7 11 16 24 21 38 14 61 57 59 108 -3 93 -52 122 -206 122 -58 0 -108 -4
-111 -8z m236 -84 c24 -31 22 -50 -7 -78 -21 -20 -36 -24 -92 -24 l-68 -1 -3
54 c-5 80 -4 81 79 77 62 -4 75 -8 91 -28z"></path>
<path d="M4890 1568 c-11 -18 -20 -36 -20 -40 0 -4 -14 -37 -31 -75 -17 -37
-38 -84 -46 -103 -9 -19 -26 -57 -39 -85 -13 -27 -20 -53 -15 -58 13 -13 63
-4 71 13 37 81 27 75 128 78 81 2 93 1 98 -15 22 -65 35 -83 64 -83 34 0 44
12 31 37 -14 26 -61 133 -61 138 0 2 -15 37 -34 77 -19 40 -41 90 -50 111 -13
31 -20 37 -46 37 -23 0 -35 -7 -50 -32z m60 -81 c0 -7 11 -34 25 -61 13 -27
22 -52 19 -57 -7 -12 -111 -11 -119 0 -3 5 3 27 14 48 11 21 25 51 30 66 10
27 31 29 31 4z"></path>
<path d="M5172 1403 l3 -198 30 0 30 0 3 133 c1 72 6 132 10 132 4 -1 25 -29
46 -64 75 -121 67 -118 112 -46 21 34 46 74 54 87 8 14 19 24 24 22 5 -2 9
-62 10 -134 l1 -130 30 0 30 0 3 198 2 197 -38 0 c-37 0 -40 -2 -96 -90 -32
-49 -59 -90 -61 -90 -2 0 -29 41 -61 90 -56 88 -59 90 -96 90 l-38 0 2 -197z"></path>
<path d="M5678 1571 c-29 -26 -33 -35 -33 -81 0 -61 23 -87 95 -108 111 -33
147 -72 98 -106 -32 -22 -67 -20 -123 9 l-49 24 -23 -21 c-28 -26 -23 -34 41
-64 125 -58 245 -12 246 94 0 36 -5 49 -31 73 -17 15 -47 31 -67 35 -20 4 -56
15 -79 25 -34 15 -43 23 -43 43 0 46 69 61 134 29 29 -13 38 -14 51 -3 46 38
-17 80 -120 80 -57 0 -68 -3 -97 -29z"></path>
<path d="M2882 978 c-5 -7 -33 -69 -62 -138 -55 -132 -77 -184 -92 -213 -13
-27 -1 -37 42 -37 36 0 39 2 52 43 l15 42 80 3 c86 3 93 0 110 -53 8 -25 15
-30 48 -33 42 -4 64 10 48 30 -5 7 -24 49 -42 93 -35 86 -33 83 -85 198 -34
74 -36 77 -69 77 -19 0 -39 -6 -45 -12z m68 -154 c28 -66 27 -70 -27 -69 -27
1 -48 5 -48 11 1 12 44 104 50 104 2 0 13 -21 25 -46z"></path>
<path d="M3274 984 c-31 -7 -102 -70 -121 -108 -33 -64 -13 -185 39 -232 62
-57 172 -73 247 -35 60 31 65 43 31 76 l-29 27 -27 -21 c-18 -14 -41 -21 -71
-21 -38 0 -50 5 -79 34 -29 29 -34 41 -34 83 0 98 84 149 171 104 l42 -22 23
22 c32 30 30 43 -7 70 -23 16 -48 23 -98 25 -36 1 -76 0 -87 -2z"></path>
<path d="M3665 983 c-33 -9 -84 -52 -110 -94 -35 -55 -35 -145 0 -205 62 -105
224 -129 318 -46 23 21 22 27 -13 52 l-30 21 -26 -20 c-18 -14 -41 -21 -72
-21 -38 0 -49 5 -78 36 -28 29 -34 43 -34 77 0 73 48 127 113 127 12 0 40 -9
61 -21 l38 -20 29 27 c16 15 29 31 29 35 0 4 -17 17 -37 29 -38 23 -143 36
-188 23z"></path>
<path d="M3954 975 c-3 -6 -3 -94 -2 -195 l3 -185 150 0 150 0 0 35 0 35 -105
5 -105 5 0 35 0 35 90 5 90 5 0 35 0 35 -93 3 -93 3 3 37 3 37 105 0 105 1 0
38 0 38 -149 2 c-94 0 -150 -3 -152 -9z"></path>
<path d="M4340 798 c0 -103 0 -191 0 -195 0 -5 62 -8 138 -8 l137 0 3 37 3 37
-98 3 -98 3 -1 155 -2 154 -41 1 -41 1 0 -188z"></path>
<path d="M4683 975 c-2 -6 -2 -94 -1 -195 l3 -185 150 0 150 0 0 35 0 35 -105
5 -105 5 0 35 0 35 90 5 90 5 0 35 0 35 -93 3 -93 3 3 37 3 37 100 0 100 1 0
37 0 38 -144 2 c-91 1 -145 -2 -148 -8z"></path>
<path d="M5073 975 c-2 -6 -2 -94 -1 -195 l3 -185 40 0 40 0 3 63 3 63 32 -3
c23 -2 38 -13 59 -43 16 -22 33 -50 38 -62 8 -19 17 -23 58 -23 27 0 51 3 55
6 3 4 -14 33 -39 66 -45 57 -51 88 -19 88 22 0 55 59 55 101 0 44 -24 95 -53
112 -28 16 -268 26 -274 12z m225 -87 c6 -6 12 -23 12 -39 0 -39 -33 -59 -96
-59 l-52 0 -4 53 c-3 28 -3 55 -2 58 5 9 128 -2 142 -13z"></path>
<path d="M5586 958 c-8 -18 -26 -59 -40 -90 -14 -31 -26 -60 -26 -63 0 -8 -35
-88 -65 -150 -14 -27 -21 -53 -16 -58 4 -4 26 -7 47 -5 36 3 40 6 55 48 9 25
19 44 23 43 3 -2 42 -3 86 -3 66 0 80 -3 80 -15 0 -9 7 -29 15 -45 13 -25 22
-30 54 -30 48 0 52 5 35 38 -7 15 -44 101 -83 192 l-70 165 -40 3 c-38 3 -42
1 -55 -30z m64 -101 c0 -7 9 -30 21 -51 11 -21 19 -40 17 -41 -7 -7 -88 -9
-94 -2 -4 4 -2 17 4 30 6 12 16 34 22 50 10 27 30 37 30 14z"></path>
<path d="M6286 975 c-79 -28 -126 -98 -126 -188 0 -73 31 -131 89 -169 39 -24
54 -28 115 -27 96 1 149 32 188 110 32 62 34 89 13 150 -40 112 -162 166 -279
124z m134 -80 c69 -36 80 -144 21 -197 -25 -22 -41 -28 -77 -28 -40 0 -51 5
-80 36 -28 29 -34 43 -34 80 0 53 23 92 65 110 40 18 70 17 105 -1z"></path>
<path d="M6633 975 c-2 -6 -2 -94 -1 -195 l3 -185 40 0 40 0 5 60 c5 59 6 60
36 63 29 3 35 -2 74 -62 42 -64 44 -66 86 -66 23 0 46 4 49 10 3 5 -14 37 -39
69 l-46 60 29 21 c32 22 61 71 61 102 0 33 -39 97 -68 112 -34 17 -262 27
-269 11z m230 -93 c24 -21 21 -44 -7 -71 -19 -18 -33 -22 -77 -19 l-54 3 -3
44 c-2 24 -1 49 1 56 7 17 117 7 140 -13z"></path>
<path d="M5812 943 l3 -38 57 0 58 0 2 -155 3 -155 40 0 40 0 5 154 5 154 55
1 55 1 3 38 3 37 -166 0 -166 0 3 -37z"></path>
<path d="M5236 151 c-34 -53 -43 -57 -60 -23 -17 34 -44 58 -53 48 -4 -3 8
-27 25 -51 23 -33 32 -57 32 -85 0 -29 4 -40 15 -40 11 0 15 11 15 36 0 26 9
47 35 78 36 44 42 61 25 71 -5 3 -21 -12 -34 -34z"></path>
<path d="M5430 172 c-42 -21 -62 -57 -54 -97 10 -49 41 -75 89 -75 98 0 124
129 35 175 -35 18 -28 18 -70 -3z m90 -54 c13 -25 13 -31 0 -55 -9 -15 -28
-32 -44 -38 -25 -8 -31 -6 -52 18 -29 34 -30 61 -3 88 29 29 79 23 99 -13z"></path>
<path d="M5875 174 c-42 -23 -55 -42 -55 -86 0 -54 37 -88 95 -88 42 0 73 19
61 39 -4 6 -18 3 -36 -7 -27 -15 -32 -16 -57 -2 -35 20 -43 72 -16 102 15 17
26 19 65 14 58 -8 65 8 13 30 -41 17 -33 17 -70 -2z"></path>
<path d="M6310 168 c-80 -54 -49 -168 46 -168 25 0 47 6 54 15 18 22 5 30 -25
17 -36 -17 -52 -15 -75 8 -26 26 -26 72 0 95 15 13 29 16 59 11 52 -8 63 10
17 29 -44 18 -37 19 -76 -7z"></path>
<path d="M6872 170 c-56 -35 -65 -99 -20 -148 51 -53 148 -8 148 70 0 34 -36
88 -59 88 -5 0 -15 2 -23 5 -7 3 -28 -4 -46 -15z m92 -42 c22 -32 20 -55 -9
-83 -29 -30 -58 -32 -85 -5 -24 24 -26 67 -3 92 23 26 78 24 97 -4z"></path>
<path d="M2796 155 c-9 -13 -16 -28 -16 -32 0 -4 -11 -30 -25 -57 -14 -27 -25
-53 -25 -58 0 -18 27 -7 38 16 8 19 18 23 52 23 34 0 44 -4 52 -23 9 -20 38
-35 38 -20 0 15 -81 176 -89 176 -5 0 -16 -11 -25 -25z m42 -49 c12 -27 7 -36
-19 -36 -24 0 -28 10 -18 38 11 29 23 28 37 -2z"></path>
<path d="M2907 173 c-14 -13 -6 -22 21 -25 26 -3 27 -5 30 -75 2 -55 6 -73 17
-73 11 0 15 18 17 73 3 70 4 72 31 75 15 2 27 9 27 18 0 11 -16 14 -68 14 -38
0 -72 -3 -75 -7z"></path>
<path d="M3140 166 c0 -8 10 -16 23 -18 20 -3 22 -9 25 -75 2 -55 6 -73 17
-73 11 0 15 18 17 72 3 66 5 73 26 78 47 10 26 25 -40 28 -55 2 -68 0 -68 -12z"></path>
<path d="M3310 91 c0 -89 16 -128 22 -53 3 37 3 37 48 37 45 0 45 0 48 -37 5
-64 22 -42 22 30 0 37 3 78 7 91 5 19 2 22 -13 19 -14 -3 -19 -12 -19 -38 0
-35 0 -35 -45 -35 -45 0 -45 0 -45 34 0 19 -6 36 -12 38 -10 4 -13 -18 -13
-86z"></path>
<path d="M3507 173 c-4 -3 -7 -44 -7 -90 l0 -83 66 0 c48 0 65 3 61 13 -2 7
-22 12 -53 12 -46 0 -49 2 -49 25 0 23 4 25 48 28 62 4 59 27 -4 27 -37 0 -44
3 -44 20 0 17 8 20 53 23 37 2 52 7 52 18 0 11 -14 14 -58 14 -32 0 -62 -3
-65 -7z"></path>
<path d="M3759 173 c-6 -42 6 -141 18 -155 26 -29 87 -24 112 8 27 34 31 154
6 154 -12 0 -15 -14 -15 -63 0 -49 -4 -68 -18 -80 -45 -41 -82 -2 -82 85 0 32
-4 58 -10 58 -5 0 -11 -3 -11 -7z"></path>
<path d="M3957 173 c-11 -11 -8 -173 3 -173 6 0 10 27 10 60 0 33 4 60 8 60 4
0 28 -27 53 -60 24 -32 50 -59 57 -60 9 0 12 24 12 90 0 76 -2 90 -16 90 -14
0 -16 -10 -12 -60 2 -33 1 -60 -3 -60 -4 0 -29 27 -54 60 -50 64 -48 63 -58
53z"></path>
<path d="M4146 173 c-3 -3 -6 -44 -6 -90 0 -67 3 -83 15 -83 12 0 15 16 15 84
0 78 -7 105 -24 89z"></path>
<path d="M4206 171 c-4 -6 -1 -23 7 -38 8 -16 25 -52 38 -81 12 -28 27 -52 33
-52 6 0 22 24 35 53 13 28 30 65 38 80 10 20 12 32 5 39 -11 11 -27 -12 -52
-77 -9 -22 -20 -40 -25 -40 -5 0 -18 23 -28 50 -21 57 -41 83 -51 66z"></path>
<path d="M4407 174 c-4 -4 -7 -45 -7 -91 l0 -83 66 0 c48 0 65 3 61 13 -2 7
-22 12 -53 12 -46 0 -49 2 -49 25 0 22 5 26 45 30 56 6 54 25 -3 25 -35 0 -42
3 -42 20 0 17 8 21 48 25 26 3 47 10 47 15 0 12 -102 19 -113 9z"></path>
<path d="M4567 173 c-4 -3 -7 -44 -7 -90 0 -65 3 -83 14 -83 9 0 16 12 18 33
2 26 7 31 23 29 11 -2 31 -18 46 -34 32 -40 60 -35 29 5 l-21 27 20 26 c26 33
26 49 1 74 -14 14 -33 20 -68 20 -27 0 -52 -3 -55 -7z m103 -38 c18 -21 -4
-45 -42 -45 -16 0 -31 6 -34 15 -10 26 4 45 34 45 16 0 35 -7 42 -15z"></path>
<path d="M4751 166 c-7 -8 -11 -27 -9 -43 2 -23 11 -30 48 -43 33 -11 45 -21
45 -35 0 -16 -6 -20 -30 -19 -16 1 -41 5 -55 9 -25 8 -25 8 -6 -13 37 -42 126
-20 126 30 0 21 -19 35 -66 52 -52 18 -51 41 1 42 59 2 62 3 41 19 -25 19 -80
19 -95 1z"></path>
<path d="M4906 173 c-3 -3 -6 -44 -6 -90 0 -67 3 -83 15 -83 12 0 15 16 15 84
0 78 -7 105 -24 89z"></path>
<path d="M4965 170 c-3 -5 1 -12 9 -15 9 -3 23 -7 31 -10 11 -3 15 -21 15 -75
0 -92 18 -91 22 2 3 66 5 73 26 78 13 3 24 10 25 15 3 14 -119 19 -128 5z"></path>
<path d="M5597 173 c-4 -3 -7 -44 -7 -90 0 -66 3 -83 14 -83 10 0 16 13 18 38
3 35 5 37 38 37 48 0 50 19 3 25 -30 4 -38 9 -38 25 0 17 8 20 48 23 33 2 47
7 47 18 0 10 -14 14 -58 14 -32 0 -62 -3 -65 -7z"></path>
<path d="M6008 173 c-2 -5 -2 -45 0 -90 3 -62 7 -83 17 -83 9 0 15 14 17 38 3
36 4 37 43 37 39 0 40 -1 43 -37 2 -24 8 -38 17 -38 18 0 16 171 -2 177 -7 3
-13 -10 -15 -34 -3 -37 -4 -38 -43 -38 -39 0 -40 1 -43 38 -2 23 -8 37 -17 37
-8 0 -15 -3 -17 -7z"></path>
<path d="M6198 173 c-7 -17 4 -173 13 -173 5 0 10 34 11 75 0 41 1 80 2 87 1
13 -20 23 -26 11z"></path>
<path d="M6492 128 c-13 -29 -30 -65 -38 -80 -7 -14 -14 -31 -14 -37 0 -20 25
-12 35 11 15 34 80 35 101 2 17 -25 34 -32 34 -13 0 9 -15 46 -56 137 -8 17
-20 32 -27 32 -7 0 -22 -24 -35 -52z m52 -14 c11 -29 6 -44 -13 -44 -26 0 -34
15 -21 40 13 24 26 26 34 4z"></path>
<path d="M6655 155 c-32 -31 -34 -91 -4 -129 16 -21 29 -26 63 -26 52 0 79 25
74 67 -2 24 -8 28 -35 31 -25 2 -33 -1 -33 -12 0 -10 9 -16 25 -16 14 0 25 -6
25 -13 0 -37 -65 -50 -93 -19 -21 23 -22 85 -2 102 9 8 30 11 55 7 44 -6 61 6
31 22 -34 19 -80 13 -106 -14z"></path>
</g>
</svg>