 <svg version="1.0" xmlns="http://www.w3.org/2000/svg" width="700.000000pt" height="263.000000pt" viewBox="0 0 700.000000 263.000000" preserveAspectRatio="xMidYMid meet">
<metadata>
Created by potrace 1.12, written by Peter Selinger 2001-2015
</metadata>
<g transform="translate(0.000000,263.000000) scale(0.100000,-0.100000)" fill="white" stroke="none">
<path d="M1317 2388 l-137 -103 0 -106 c0 -58 3 -108 6 -112 6 -6 107 69 112
84 6 15 -8 10 -43 -17 -19 -14 -39 -23 -45 -19 -11 7 -13 120 -2 148 8 18 236
187 254 187 16 0 245 -169 252 -186 3 -8 6 -58 6 -110 0 -56 4 -94 10 -94 6 0
10 45 10 114 l0 114 -132 97 c-72 53 -136 99 -142 101 -7 3 -73 -42 -149 -98z"></path>
<path d="M2908 2231 c-89 -29 -138 -94 -138 -184 0 -67 12 -102 48 -141 55
-59 157 -74 233 -36 47 24 58 45 36 68 -15 15 -20 14 -56 -6 -90 -51 -181 -7
-196 95 -16 108 109 188 196 124 l31 -23 20 20 c12 11 18 27 15 35 -13 35
-134 65 -189 48z"></path>
<path d="M3315 2235 c-5 -2 -22 -6 -37 -9 -99 -22 -157 -166 -109 -271 31 -68
93 -105 176 -105 139 0 233 140 180 268 -18 43 -50 78 -85 97 -26 14 -108 27
-125 20z m84 -73 c119 -64 77 -252 -57 -252 -38 0 -50 5 -83 39 -35 34 -39 44
-39 87 0 60 28 110 73 129 43 19 66 18 106 -3z"></path>
<path d="M3600 2039 l0 -190 28 3 27 3 3 128 c1 70 6 127 10 126 4 0 28 -34
54 -75 26 -40 52 -74 57 -74 6 0 34 35 63 78 l53 77 5 -130 5 -130 30 0 30 0
0 185 0 185 -35 0 c-33 0 -38 -5 -88 -80 -29 -44 -56 -81 -60 -83 -4 -1 -31
36 -61 83 -50 79 -56 85 -87 85 l-34 0 0 -191z"></path>
<path d="M4062 2043 l3 -188 29 0 29 0 -2 128 c-1 70 1 127 6 127 4 0 30 -34
57 -75 27 -42 52 -78 56 -80 4 -3 31 31 60 75 29 44 55 80 59 80 3 0 6 -57 6
-127 l0 -128 30 0 30 0 0 185 0 185 -32 3 c-31 3 -36 -1 -88 -82 -30 -47 -58
-86 -63 -86 -4 1 -30 38 -57 83 -47 77 -53 82 -88 85 l-37 3 2 -188z"></path>
<path d="M4509 2223 c0 -5 0 -66 1 -138 1 -100 5 -138 18 -164 47 -95 221 -95
277 0 17 29 20 52 20 169 l0 135 -32 3 -33 3 0 -131 0 -132 -29 -29 c-38 -37
-88 -39 -128 -5 -28 24 -28 25 -31 160 l-4 136 -29 0 c-16 0 -29 -3 -30 -7z"></path>
<path d="M4904 2217 c-2 -7 -3 -91 -2 -187 l3 -175 30 0 30 0 5 128 5 129 101
-129 c79 -102 105 -128 125 -128 l24 0 3 188 2 187 -30 0 -30 0 0 -125 c0 -69
-3 -125 -7 -124 -5 0 -51 56 -103 125 -81 107 -98 124 -122 124 -16 0 -31 -6
-34 -13z"></path>
<path d="M5332 2043 l3 -188 30 0 30 0 0 185 0 185 -33 3 -32 3 2 -188z"></path>
<path d="M5460 2201 c0 -29 1 -30 58 -33 l57 -3 5 -155 5 -155 30 0 30 0 5
155 5 155 55 5 c51 5 55 7 55 30 l0 25 -152 3 -153 3 0 -30z"></path>
<path d="M5803 2216 c4 -9 35 -57 69 -108 62 -91 63 -94 68 -173 l5 -80 30 0
30 0 3 78 3 79 69 104 c39 57 70 106 70 109 0 3 -16 5 -35 5 -32 0 -38 -5 -82
-75 -27 -42 -54 -74 -60 -73 -7 2 -32 35 -56 73 -40 65 -46 70 -82 73 -31 3
-37 0 -32 -12z"></path>
<path d="M1320 2154 c1 -5 20 -23 43 -40 90 -66 149 -105 152 -102 5 5 -159
136 -179 144 -9 3 -16 2 -16 -2z"></path>
<path d="M1023 1849 l-283 -211 0 -254 c0 -163 4 -254 10 -254 6 0 10 70 10
189 0 103 3 216 6 250 l7 62 259 190 c143 105 267 193 276 195 15 4 464 -317
528 -377 l24 -22 0 -229 c0 -148 4 -228 10 -228 7 0 9 83 8 243 l-3 242 -275
207 c-151 113 -279 207 -285 207 -5 0 -137 -94 -292 -210z"></path>
<path d="M1960 1884 c-69 -52 -126 -101 -127 -107 -2 -7 24 -31 57 -54 l60
-43 0 -160 c0 -100 4 -160 10 -160 6 0 11 49 12 123 4 212 7 196 -47 243 -29
26 -46 48 -42 57 5 14 198 157 212 157 4 0 60 -38 125 -85 l117 -85 7 -62 c3
-33 6 -121 6 -194 0 -83 4 -134 10 -134 6 0 10 73 10 199 l0 199 -135 101
c-74 55 -138 101 -142 101 -5 -1 -64 -44 -133 -96z"></path>
<path d="M288 1647 l-138 -102 0 -132 c0 -82 4 -133 10 -133 6 0 10 43 10 108
0 59 3 117 6 128 7 25 223 184 250 184 22 0 210 -134 218 -155 3 -9 6 -68 6
-131 0 -69 4 -114 10 -114 6 0 10 51 10 134 l0 134 -117 88 c-65 49 -120 90
-123 91 -3 1 -67 -44 -142 -100z"></path>
<path d="M3645 1645 c-5 -2 -22 -6 -37 -9 -37 -8 -85 -51 -108 -97 -34 -66
-21 -168 28 -222 51 -57 161 -74 238 -37 133 65 136 277 5 344 -27 14 -108 28
-126 21z m101 -81 c35 -24 57 -80 51 -133 -4 -36 -13 -52 -41 -78 -30 -27 -44
-33 -82 -33 -41 0 -51 5 -85 39 -35 34 -39 44 -39 87 0 114 105 177 196 118z"></path>
<path d="M2784 1627 c-2 -7 -3 -91 -2 -187 l3 -175 30 0 c30 0 30 1 33 60 l3
60 62 0 c104 1 157 46 157 133 0 47 -29 88 -76 108 -44 18 -203 19 -210 1z
m194 -63 c15 -10 22 -25 22 -49 0 -48 -39 -77 -99 -73 l-46 3 -3 54 c-2 29 -1
60 2 67 7 20 96 18 124 -2z"></path>
<path d="M3132 1453 l3 -188 30 0 30 0 0 65 0 65 41 3 c40 3 41 2 87 -68 43
-64 50 -70 82 -70 46 0 44 12 -10 80 l-43 55 41 36 c38 33 41 39 41 87 0 92
-50 122 -204 122 l-100 0 2 -187z m218 107 c28 -28 25 -64 -7 -90 -22 -17 -38
-20 -87 -18 l-61 3 -1 55 c0 30 1 58 3 63 2 4 33 7 69 7 51 0 68 -4 84 -20z"></path>
<path d="M4015 1624 c-45 -23 -66 -45 -86 -89 -23 -49 -24 -113 -4 -162 20
-48 41 -71 89 -95 54 -27 155 -22 209 11 l37 23 0 79 0 79 -80 0 c-78 0 -80
-1 -80 -24 0 -23 5 -25 48 -28 45 -3 47 -5 50 -35 4 -40 -27 -63 -86 -63 -57
0 -96 21 -116 64 -61 128 67 254 182 179 21 -13 26 -13 43 3 27 25 24 38 -16
57 -46 22 -149 22 -190 1z"></path>
<path d="M4350 1638 c0 -2 -1 -86 -1 -188 l-1 -185 28 0 c28 0 29 1 34 65 l5
65 39 0 c37 0 42 -4 86 -65 45 -64 71 -79 106 -66 12 5 5 20 -32 71 -44 63
-46 67 -28 80 11 8 22 15 26 15 14 0 38 59 38 90 0 46 -27 90 -65 106 -28 12
-234 22 -235 12z m216 -83 c18 -19 23 -31 19 -48 -13 -42 -32 -52 -103 -52
l-67 0 -3 49 c-5 72 -1 76 68 76 52 0 65 -4 86 -25z"></path>
<path d="M4833 1623 c-4 -10 -39 -92 -79 -183 -40 -91 -69 -169 -65 -173 13
-13 53 -4 62 13 4 8 14 29 21 45 l13 30 89 0 88 0 17 -45 c15 -41 19 -45 51
-45 19 0 34 5 33 10 -3 13 -146 336 -156 353 -12 19 -66 15 -74 -5z m71 -134
c14 -33 26 -65 26 -70 0 -10 -103 -13 -112 -3 -7 6 44 134 53 134 4 0 18 -27
33 -61z"></path>
<path d="M5102 1453 l3 -188 25 0 25 0 3 128 c1 70 6 127 10 127 4 0 25 -30
47 -66 66 -107 64 -107 125 -14 29 44 55 78 57 76 3 -2 5 -60 6 -128 l2 -123
30 0 30 0 0 185 0 185 -32 3 c-30 3 -35 -2 -89 -82 -31 -47 -60 -86 -63 -86
-3 1 -30 39 -59 85 -51 80 -56 85 -88 85 l-34 0 2 -187z"></path>
<path d="M5588 1611 c-28 -25 -33 -36 -33 -76 0 -39 5 -51 28 -71 15 -13 46
-28 70 -34 75 -19 107 -38 107 -63 0 -13 -5 -28 -12 -35 -19 -19 -99 -14 -137
9 l-34 20 -21 -21 -21 -21 24 -18 c54 -41 158 -53 211 -26 33 17 60 61 60 99
0 41 -45 84 -108 102 -102 29 -130 65 -77 100 27 17 75 12 109 -12 17 -12 22
-11 38 3 10 9 18 21 18 28 0 21 -69 45 -130 45 -52 0 -64 -4 -92 -29z"></path>
<path d="M3290 1049 c-163 -49 -189 -283 -40 -359 74 -38 201 -20 234 33 8 13
6 22 -11 38 l-21 22 -44 -22 c-52 -25 -69 -26 -108 -6 -42 22 -60 53 -60 106
0 94 78 142 162 100 l43 -21 23 25 c12 15 22 30 22 35 0 16 -77 50 -122 55
-24 2 -59 0 -78 -6z"></path>
<path d="M3680 1051 c-55 -18 -91 -43 -117 -83 -23 -33 -28 -53 -28 -102 0
-121 72 -196 190 -196 63 0 119 22 139 53 8 13 6 22 -11 38 l-21 22 -44 -22
c-53 -25 -69 -26 -108 -6 -102 53 -62 225 52 225 13 0 38 -9 57 -21 l34 -21
25 25 c14 14 22 32 19 40 -13 34 -134 65 -187 48z"></path>
<path d="M6176 1045 c-80 -28 -126 -96 -126 -187 0 -65 22 -112 73 -152 32
-26 49 -31 106 -34 70 -4 111 8 155 47 51 45 72 153 42 224 -26 64 -112 118
-186 117 -14 -1 -42 -7 -64 -15z m148 -104 c26 -27 31 -39 31 -81 0 -43 -5
-54 -33 -82 -27 -28 -40 -33 -78 -33 -39 0 -50 5 -74 32 -38 43 -47 91 -25
137 35 73 120 85 179 27z"></path>
<path d="M2903 1038 c-21 -35 -152 -352 -147 -360 3 -4 20 -8 39 -8 31 0 36 4
54 45 l20 45 76 0 76 0 19 -45 c18 -41 22 -45 54 -45 19 0 37 4 40 8 5 8 -126
325 -147 360 -5 6 -23 12 -42 12 -19 0 -37 -6 -42 -12z m67 -150 c10 -26 15
-49 12 -52 -7 -8 -82 -7 -82 0 0 20 36 104 44 101 4 -1 16 -24 26 -49z"></path>
<path d="M3945 1037 c-3 -7 -4 -91 -3 -187 l3 -175 140 0 140 0 0 35 0 35 -97
3 -98 3 0 40 0 41 83 -3 82 -4 0 35 0 35 -84 5 -85 5 0 35 -1 35 100 0 100 1
0 34 0 35 -138 3 c-106 2 -139 0 -142 -11z"></path>
<path d="M4305 1038 c-3 -8 -4 -92 -3 -188 l3 -175 133 -3 133 -3 -3 38 -3 38
-89 5 -89 5 -1 145 -1 145 -38 3 c-24 2 -39 -1 -42 -10z"></path>
<path d="M4639 1048 c0 -2 -1 -86 -1 -188 l-1 -185 139 0 139 0 0 35 0 35 -95
5 -95 5 0 35 0 35 85 0 85 0 -1 35 0 35 -88 3 -87 3 3 37 3 37 95 1 95 1 0 34
0 34 -137 3 c-76 1 -138 1 -139 0z"></path>
<path d="M5004 1037 c-2 -7 -3 -91 -2 -187 l3 -175 39 0 39 0 1 55 c1 54 1 55
33 58 29 3 35 -2 73 -57 40 -59 42 -61 85 -61 25 0 45 2 45 6 0 3 -18 32 -41
65 l-40 59 35 34 c33 30 36 38 36 87 0 101 -43 129 -200 129 -73 0 -102 -4
-106 -13z m214 -79 c16 -14 15 -63 -2 -77 -9 -7 -38 -11 -73 -9 l-58 3 -3 39
c-2 21 -1 43 1 50 5 14 116 9 135 -6z"></path>
<path d="M5504 1038 c-28 -44 -152 -354 -145 -361 5 -5 23 -7 41 -5 27 2 35 9
43 33 16 51 24 55 104 55 l74 0 19 -45 c18 -41 22 -45 54 -45 19 0 37 4 40 8
3 5 -29 89 -72 188 l-77 179 -37 3 c-22 2 -39 -2 -44 -10z m66 -150 c10 -26
15 -49 12 -52 -7 -8 -82 -7 -82 0 0 20 36 104 44 101 4 -1 16 -24 26 -49z"></path>
<path d="M5714 1036 c-3 -8 -4 -25 -2 -38 3 -20 10 -24 58 -28 l55 -5 5 -145
5 -145 35 0 35 0 5 145 5 145 55 5 55 5 0 35 0 35 -153 3 c-126 2 -153 0 -158
-12z"></path>
<path d="M6510 870 c0 -99 0 -183 0 -187 0 -5 17 -8 38 -8 l37 0 5 55 c5 54 5
55 37 55 27 0 37 -8 70 -55 32 -45 44 -56 72 -58 62 -6 65 3 21 62 -46 63 -48
71 -20 86 44 24 64 109 38 165 -21 47 -74 65 -193 65 l-105 0 0 -180z m216 78
c17 -18 17 -22 3 -46 -13 -24 -21 -27 -77 -30 l-62 -3 0 49 c0 27 2 51 4 53 2
2 29 2 59 1 40 -3 61 -9 73 -24z"></path>
<path d="M5344 270 c-30 -12 -54 -49 -54 -83 0 -37 49 -87 85 -87 37 0 85 50
85 89 0 57 -65 102 -116 81z m71 -35 c30 -30 31 -54 4 -89 -25 -31 -61 -34
-89 -6 -29 29 -26 74 6 99 34 27 50 26 79 -4z"></path>
<path d="M5765 268 c-33 -17 -45 -40 -45 -80 0 -56 38 -93 87 -85 36 6 61 22
52 32 -3 2 -19 -1 -36 -7 -26 -10 -35 -9 -57 5 -37 25 -37 89 -1 113 24 16 34
15 80 -1 17 -6 17 -4 -4 14 -26 23 -46 26 -76 9z"></path>
<path d="M6172 255 c-59 -49 -36 -140 38 -151 23 -4 42 0 55 9 27 20 14 31
-19 16 -34 -16 -73 1 -82 36 -16 63 29 110 82 86 15 -6 29 -9 32 -6 10 9 -12
24 -44 31 -24 4 -37 0 -62 -21z"></path>
<path d="M6544 270 c-50 -20 -70 -93 -39 -137 22 -31 78 -40 111 -19 20 14 24
24 22 48 -2 25 -8 32 -28 33 -35 3 -50 -8 -20 -15 29 -7 34 -37 8 -54 -25 -15
-71 4 -82 35 -21 60 28 114 81 90 14 -7 24 -7 28 -1 4 6 -6 15 -20 20 -30 12
-33 12 -61 0z"></path>
<path d="M6720 267 c-55 -28 -62 -108 -13 -147 36 -28 69 -25 104 9 36 36 38
79 7 115 -28 31 -65 40 -98 23z m74 -28 c48 -38 22 -119 -38 -119 -28 0 -66
42 -66 72 0 22 43 68 63 68 8 0 26 -9 41 -21z"></path>
<path d="M2830 266 c0 -2 -16 -38 -35 -79 -19 -44 -30 -79 -25 -82 6 -4 14 5
20 19 8 22 16 26 49 26 30 0 44 -6 55 -22 9 -12 18 -19 22 -15 10 10 -58 157
-73 157 -7 0 -13 -2 -13 -4z m30 -55 c16 -30 12 -41 -13 -41 -32 0 -38 8 -25
36 14 29 24 30 38 5z"></path>
<path d="M2930 261 c0 -5 10 -11 23 -13 20 -3 22 -9 25 -70 2 -38 7 -68 12
-68 5 0 10 30 12 68 3 61 5 67 26 70 46 7 20 22 -38 22 -33 0 -60 -4 -60 -9z"></path>
<path d="M3155 260 c3 -5 16 -10 28 -10 22 0 22 -3 19 -70 -4 -60 -2 -70 13
-70 14 0 16 10 14 68 -2 59 0 67 17 70 50 9 33 22 -30 22 -42 0 -65 -4 -61
-10z"></path>
<path d="M3317 263 c-3 -5 -5 -41 -5 -80 -1 -59 2 -73 14 -73 11 0 14 9 12 33
-3 32 -3 32 42 32 43 0 45 -1 48 -32 6 -63 22 -32 22 41 0 75 -16 114 -22 54
-3 -32 -4 -33 -48 -33 -43 0 -45 1 -42 27 3 25 -12 47 -21 31z"></path>
<path d="M3497 263 c-4 -3 -7 -39 -7 -79 l0 -72 58 -4 c74 -5 94 5 22 12 -51
5 -55 7 -55 30 0 22 5 25 43 28 23 2 42 7 42 12 0 5 -19 10 -42 12 -35 2 -43
7 -43 23 0 17 8 20 48 23 26 2 47 7 47 13 0 10 -103 13 -113 2z"></path>
<path d="M3742 204 c5 -80 30 -110 83 -100 43 9 55 31 55 105 0 82 -18 71 -22
-14 -3 -55 -5 -60 -32 -70 -41 -14 -66 19 -66 91 0 33 -4 54 -11 54 -8 0 -10
-22 -7 -66z"></path>
<path d="M3930 268 c-1 -2 -3 -38 -6 -80 -5 -69 -3 -78 12 -78 14 0 16 8 10
60 -4 33 -3 60 1 60 5 0 29 -27 53 -60 25 -33 51 -60 58 -60 8 0 12 23 12 80
0 47 -4 80 -10 80 -6 0 -10 -27 -10 -60 0 -33 -3 -60 -7 -60 -5 1 -28 28 -52
60 -38 50 -59 70 -61 58z"></path>
<path d="M4117 263 c-11 -11 -8 -153 3 -153 6 0 10 33 10 80 0 80 -1 86 -13
73z"></path>
<path d="M4170 265 c0 -20 65 -155 75 -155 10 0 75 135 75 156 0 20 -31 -24
-46 -67 -10 -27 -23 -49 -29 -49 -5 0 -21 27 -33 60 -13 33 -28 60 -33 60 -5
0 -9 -2 -9 -5z"></path>
<path d="M4360 190 l0 -80 45 -1 c25 -1 50 -2 55 -3 6 -1 9 3 8 8 -2 5 -21 10
-43 10 -36 1 -40 4 -40 26 0 22 5 25 38 28 20 2 37 7 37 12 0 5 -17 10 -37 12
-31 2 -39 7 -41 26 -3 20 1 22 42 22 25 0 46 5 46 10 0 6 -25 10 -55 10 l-55
0 0 -80z"></path>
<path d="M4517 263 c-11 -10 -8 -151 2 -158 5 -3 11 9 13 27 4 48 38 50 73 4
15 -20 31 -33 36 -30 5 3 0 17 -11 31 -20 25 -20 25 0 50 25 32 25 45 2 66
-19 17 -102 24 -115 10z m103 -28 c19 -22 -5 -45 -47 -45 -21 0 -36 6 -39 15
-11 28 4 45 39 45 19 0 40 -7 47 -15z"></path>
<path d="M4690 255 c-21 -25 -6 -49 43 -73 51 -24 56 -32 31 -53 -12 -10 -22
-10 -47 -1 -17 6 -33 10 -35 7 -9 -9 10 -24 39 -30 36 -8 79 16 79 45 0 21
-35 50 -61 50 -9 0 -22 7 -29 16 -11 12 -10 18 3 31 13 14 21 14 41 5 24 -10
43 -3 29 12 -12 12 -81 6 -93 -9z"></path>
<path d="M4840 191 c0 -47 4 -81 10 -81 6 0 10 31 10 74 0 41 -4 78 -10 81 -6
4 -10 -23 -10 -74z"></path>
<path d="M4900 261 c0 -5 10 -11 23 -13 20 -3 22 -9 25 -70 2 -38 7 -68 12
-68 5 0 10 30 12 68 3 61 5 67 26 70 46 7 20 22 -38 22 -33 0 -60 -4 -60 -9z"></path>
<path d="M5050 264 c0 -3 14 -25 30 -49 17 -25 30 -57 30 -74 0 -17 5 -31 10
-31 6 0 10 14 10 31 0 17 13 49 30 74 32 47 35 55 21 55 -5 0 -19 -16 -31 -35
-12 -19 -25 -35 -30 -35 -5 0 -18 16 -30 35 -19 31 -40 46 -40 29z"></path>
<path d="M5500 190 c0 -78 16 -112 22 -47 3 29 6 32 41 35 20 2 37 7 37 12 0
5 -17 10 -37 12 -30 2 -38 7 -38 23 0 16 8 21 43 23 61 5 52 22 -13 22 l-55 0
0 -80z"></path>
<path d="M5900 183 c0 -53 4 -83 9 -77 5 5 11 23 13 39 3 28 6 30 43 30 38 0
40 -2 43 -32 6 -65 22 -31 22 47 0 78 -16 112 -22 48 -3 -31 -5 -33 -43 -33
-38 0 -40 2 -43 33 -7 67 -22 29 -22 -55z"></path>
<path d="M6080 191 c0 -47 4 -81 10 -81 6 0 10 31 10 74 0 41 -4 78 -10 81 -6
4 -10 -23 -10 -74z"></path>
<path d="M6344 194 c-34 -75 -38 -109 -8 -66 22 31 86 31 107 -1 8 -12 18 -19
21 -16 9 8 -62 159 -75 159 -6 0 -26 -34 -45 -76z m64 12 c13 -28 7 -36 -25
-36 -25 0 -29 11 -13 41 14 25 24 24 38 -5z"></path>
</g>
</svg>