 <svg version="1.0" xmlns="http://www.w3.org/2000/svg" width="700.000000pt" height="373.000000pt" viewBox="0 0 700.000000 373.000000" preserveAspectRatio="xMidYMid meet">
<metadata>
Created by potrace 1.12, written by Peter Selinger 2001-2015
</metadata>
<g transform="translate(0.000000,373.000000) scale(0.100000,-0.100000)" fill="white" stroke="none">
<path d="M2529 3349 c-6 -12 -7 -25 -2 -29 4 -5 60 -31 123 -59 78 -34 116
-56 119 -68 2 -10 8 -24 14 -31 8 -11 7 -16 -6 -23 -12 -7 -17 -23 -17 -59 0
-124 -37 -195 -129 -247 -25 -15 -54 -33 -63 -41 -11 -9 -27 -12 -45 -8 -22 5
-39 0 -67 -19 -43 -29 -49 -30 -65 -11 -10 12 -9 20 2 38 24 37 29 107 12 168
-20 74 -19 77 14 94 26 14 30 14 46 -4 19 -21 34 -82 35 -142 0 -27 4 -38 15
-38 8 0 15 4 15 8 0 35 -25 136 -43 175 l-22 48 -125 -6 c-118 -6 -127 -8
-165 -36 -22 -16 -70 -51 -107 -77 -37 -26 -67 -50 -68 -54 0 -3 19 -3 43 0
23 4 58 7 77 7 34 0 35 -1 45 -50 8 -41 19 -60 59 -98 45 -43 48 -49 38 -72
-7 -16 -20 -25 -34 -25 -39 0 -84 -36 -128 -100 -101 -149 -123 -229 -176
-655 -8 -65 -12 -125 -10 -132 3 -7 17 -18 30 -23 18 -7 25 -18 28 -42 3 -33
4 -33 53 -33 l50 0 6 -105 c3 -58 12 -156 19 -218 9 -83 10 -124 2 -150 -21
-74 -56 -405 -43 -418 2 -2 15 -4 27 -4 37 0 35 -15 -7 -56 -22 -21 -50 -54
-61 -73 -21 -33 -21 -34 -3 -47 10 -8 39 -14 63 -14 38 0 49 5 83 40 22 22 48
40 57 40 31 0 42 22 42 83 0 69 12 97 43 97 55 -1 79 -32 109 -145 13 -47 34
-75 58 -75 9 0 29 -13 45 -30 36 -37 74 -46 114 -25 45 23 40 50 -20 111 -54
55 -59 80 -17 86 l23 3 -3 210 c-2 116 1 293 7 395 21 381 34 566 42 586 4 12
27 31 51 43 l43 21 27 -20 c15 -11 31 -20 36 -20 16 0 63 57 72 89 11 38 -1
115 -26 163 -14 26 -16 54 -12 162 3 84 0 154 -8 198 -12 64 -12 70 12 129 20
48 25 76 23 128 -2 39 2 80 10 99 10 24 11 39 2 63 -14 39 -14 76 -1 84 5 3
43 -8 84 -25 78 -33 96 -32 96 0 0 25 -29 43 -103 66 -48 15 -61 24 -71 49
-19 46 -40 58 -88 52 -37 -4 -56 3 -136 44 -103 54 -126 59 -143 28z m323
-144 c9 -19 8 -31 -2 -52 l-13 -28 -7 31 c-4 17 -10 36 -14 42 -8 14 0 32 15
32 5 0 15 -11 21 -25z m-12 -162 c1 -145 -7 -221 -29 -278 -19 -49 -21 -69
-15 -110 5 -27 9 -122 9 -210 1 -141 4 -166 23 -213 26 -61 28 -99 7 -129 -13
-19 -22 -21 -63 -16 -59 7 -124 -22 -146 -65 -22 -42 -47 -436 -53 -829 l-6
-342 -23 -22 c-36 -34 -31 -72 17 -124 37 -40 44 -65 19 -65 -5 0 -24 12 -42
27 -18 16 -42 33 -53 39 -11 6 -26 29 -33 50 -8 21 -21 59 -29 82 -18 52 -61
82 -116 82 -56 0 -82 -31 -91 -107 -6 -52 -11 -64 -34 -78 -15 -10 -39 -31
-54 -46 -28 -30 -48 -37 -48 -18 0 6 16 30 35 53 44 53 47 96 9 120 -24 17
-25 20 -19 89 4 40 14 117 22 172 22 148 26 244 14 324 -6 39 -14 119 -17 179
-7 121 -18 142 -70 142 -24 0 -36 6 -45 23 -6 12 -21 32 -32 44 -22 25 -21 46
22 333 33 222 50 276 132 406 35 55 51 70 98 92 60 29 87 66 75 104 -3 11 -24
40 -45 63 -22 24 -45 63 -53 90 -8 26 -22 55 -31 65 -15 16 -14 19 14 43 32
27 135 48 150 31 5 -5 14 -47 20 -94 11 -72 10 -92 -3 -133 -29 -95 31 -149
109 -97 17 11 45 20 64 20 42 0 130 49 194 108 50 48 77 111 77 183 0 21 5 50
11 66 9 24 12 26 20 11 5 -9 9 -38 9 -65z"></path>
<path d="M1395 2910 c-533 -84 -947 -473 -1066 -1000 -70 -313 0 -702 174
-960 38 -57 36 -54 43 -47 4 3 -18 50 -49 104 -96 169 -148 329 -165 508 -9
107 -4 275 9 275 5 0 9 -39 9 -87 0 -179 33 -346 101 -508 47 -115 149 -270
149 -229 0 3 -22 43 -49 88 -280 464 -220 1055 147 1447 109 116 218 197 356
265 329 161 712 162 1045 4 106 -51 136 -60 129 -37 -11 33 -226 123 -378 158
-98 23 -359 34 -455 19z m-1025 -1010 c0 -5 -4 -10 -10 -10 -5 0 -10 5 -10 10
0 6 5 10 10 10 6 0 10 -4 10 -10z m-10 -65 c0 -14 -4 -25 -10 -25 -5 0 -10 11
-10 25 0 14 5 25 10 25 6 0 10 -11 10 -25z"></path>
<path d="M4437 2902 c-22 -24 -21 -45 1 -65 27 -24 59 -21 78 8 15 23 15 27 0
50 -20 30 -56 33 -79 7z"></path>
<path d="M3437 2900 c-95 -24 -184 -97 -228 -185 -21 -43 -24 -64 -24 -150 0
-81 4 -109 22 -147 30 -66 96 -133 162 -165 50 -25 66 -28 161 -28 98 0 110 2
171 32 80 40 118 77 103 101 -18 29 -43 25 -84 -12 -102 -92 -291 -84 -392 16
-52 52 -72 102 -76 189 -3 60 0 86 15 120 27 60 66 104 122 137 41 24 56 27
141 27 107 0 149 -15 207 -73 33 -33 35 -33 54 -16 27 24 24 38 -18 74 -81 72
-229 107 -336 80z"></path>
<path d="M3915 2898 c-3 -7 -4 -159 -3 -338 l3 -325 25 0 25 0 5 161 c5 153 6
162 32 201 28 42 95 83 136 83 42 0 90 -28 109 -62 15 -27 19 -64 23 -208 l5
-175 25 0 25 0 3 163 c1 92 -2 180 -8 202 -12 46 -51 95 -91 115 -62 33 -174
11 -223 -44 -11 -12 -23 -21 -27 -21 -5 0 -10 57 -11 128 -3 123 -4 127 -26
130 -12 2 -24 -3 -27 -10z"></path>
<path d="M4748 2715 c-59 -22 -102 -60 -134 -117 -24 -45 -29 -64 -29 -123 1
-83 23 -132 83 -187 51 -46 101 -63 187 -62 80 1 125 17 178 64 43 38 45 47
13 61 -20 9 -27 8 -46 -11 -12 -12 -40 -30 -63 -41 -155 -70 -330 69 -288 229
24 88 100 142 200 142 72 0 98 -9 146 -51 l36 -32 22 21 c21 21 21 21 1 43
-44 49 -103 73 -188 76 -53 2 -94 -2 -118 -12z"></path>
<path d="M5294 2716 c-45 -20 -102 -74 -127 -120 -29 -54 -30 -174 -3 -226 26
-49 74 -98 121 -123 80 -43 211 -22 269 42 28 31 37 26 34 -16 -3 -36 -2 -38
27 -38 l30 0 0 240 0 240 -30 0 c-29 0 -30 -2 -27 -37 4 -46 -5 -47 -44 -7
-16 17 -43 38 -61 45 -41 18 -148 17 -189 0z m185 -60 c60 -31 111 -115 111
-181 0 -103 -91 -194 -194 -195 -121 0 -218 129 -186 249 13 49 62 109 105
127 40 18 129 17 164 0z"></path>
<path d="M5860 2709 c-195 -88 -198 -363 -6 -450 51 -23 153 -25 204 -3 20 8
49 27 64 41 15 15 30 24 33 21 3 -3 1 -34 -4 -69 -9 -53 -16 -69 -45 -96 -79
-73 -206 -70 -291 8 -40 37 -77 50 -89 30 -13 -20 56 -93 110 -118 48 -22 66
-25 143 -21 77 3 94 7 136 33 35 21 56 45 74 80 26 49 26 51 26 300 l0 250
-30 0 c-28 0 -30 -2 -27 -32 4 -40 -1 -41 -42 -6 -17 14 -45 32 -63 40 -48 20
-140 16 -193 -8z m200 -59 c109 -56 130 -212 41 -301 -76 -77 -196 -77 -272 0
-120 120 -33 321 139 321 33 0 67 -7 92 -20z"></path>
<path d="M6425 2711 c-51 -23 -121 -102 -135 -150 -42 -151 41 -300 185 -332
159 -35 305 83 305 247 0 36 -6 80 -14 98 -20 49 -85 116 -131 137 -54 25
-157 25 -210 0z m172 -52 c40 -15 82 -57 104 -104 46 -100 0 -216 -103 -260
-151 -63 -307 99 -242 253 19 46 60 90 99 108 36 16 104 18 142 3z"></path>
<path d="M4445 2708 c-3 -7 -4 -117 -3 -243 l3 -230 28 0 28 0 0 240 0 240
-26 3 c-14 2 -27 -2 -30 -10z"></path>
<path d="M1359 2555 c-37 -20 -62 -60 -50 -82 5 -10 12 -26 15 -35 3 -10 14
-18 24 -18 21 0 49 -25 93 -84 33 -44 33 -59 0 -64 -12 -2 -25 -10 -28 -19 -3
-8 -26 -33 -50 -55 -27 -25 -43 -49 -43 -63 0 -41 -12 -57 -58 -76 l-45 -20 6
-105 c8 -125 20 -157 62 -164 24 -4 31 -11 35 -35 4 -21 12 -31 30 -35 22 -5
25 -12 28 -60 2 -41 10 -64 30 -90 29 -38 30 -47 19 -431 l-3 -105 -59 -53
c-33 -30 -64 -57 -69 -62 -13 -12 21 -59 42 -59 22 0 42 -19 42 -39 0 -8 14
-30 32 -48 28 -29 30 -35 19 -56 -7 -13 -11 -39 -9 -57 l3 -33 124 -3 c154 -4
202 15 130 51 -47 25 -83 111 -84 201 l0 71 86 114 c48 63 96 123 108 133 16
15 21 31 21 74 0 61 -40 251 -75 357 -13 39 -25 86 -27 105 -3 32 -1 35 22 34
14 -1 29 5 33 13 5 8 16 11 28 8 26 -9 46 9 55 48 5 25 2 34 -16 49 -21 17
-22 22 -12 55 13 44 11 48 -36 72 -35 18 -39 24 -57 98 -10 43 -23 84 -29 92
-6 8 -35 25 -63 37 -63 28 -69 51 -15 56 35 3 38 5 50 53 8 32 9 57 3 70 -5
11 -9 37 -9 58 0 21 -6 45 -13 53 -32 38 -108 56 -148 34 -14 -7 -23 -5 -36
10 -21 23 -68 26 -106 5z m90 -49 c16 -9 44 -12 80 -9 70 6 86 -9 94 -87 6
-66 -3 -85 -49 -105 -29 -12 -34 -19 -34 -48 0 -38 16 -56 75 -83 41 -20 51
-38 76 -133 7 -28 23 -56 44 -75 23 -22 34 -42 38 -71 2 -22 8 -49 12 -60 5
-18 -1 -23 -50 -39 -90 -28 -92 -48 -30 -256 14 -47 35 -133 47 -191 25 -125
32 -105 -95 -265 -43 -55 -86 -115 -94 -134 -22 -50 -13 -181 16 -238 12 -24
19 -47 16 -52 -8 -13 -66 -13 -99 0 -21 8 -24 14 -20 42 5 27 0 41 -25 72 -17
21 -31 43 -31 48 0 6 -14 23 -31 39 l-32 30 63 58 c46 43 61 63 57 77 -17 57
-17 102 -2 196 24 143 16 260 -25 345 -18 37 -30 78 -30 102 0 31 -6 44 -27
61 -14 11 -31 30 -37 43 -6 12 -22 27 -36 34 -41 20 -50 42 -50 123 l0 77 38
24 c26 17 41 36 51 67 9 31 34 64 83 112 62 61 70 72 64 96 -10 39 -82 131
-116 149 -34 17 -39 39 -12 54 23 14 42 13 71 -3z"></path>
<path d="M1585 1370 c-24 -27 -44 -212 -25 -235 42 -50 120 26 120 117 0 109
-49 169 -95 118z m50 -79 c6 -49 3 -65 -14 -100 -12 -22 -24 -41 -27 -41 -3 0
-3 21 0 48 3 26 8 71 12 100 3 28 10 52 14 52 4 0 11 -26 15 -59z"></path>
<path d="M4992 2058 c-18 -18 -14 -53 8 -73 44 -40 107 25 69 71 -14 17 -60
19 -77 2z"></path>
<path d="M4220 2058 c0 -2 0 -154 -1 -338 l0 -335 28 1 c25 0 28 4 29 37 1 45
9 55 23 28 6 -11 32 -33 58 -48 38 -22 59 -27 112 -27 81 0 132 24 188 88 92
105 81 262 -25 358 -51 46 -98 61 -181 56 -59 -3 -74 -8 -119 -41 -29 -20 -53
-37 -55 -37 -1 0 -2 57 -2 127 l0 128 -27 3 c-16 2 -28 2 -28 0z m346 -258
c86 -54 115 -181 61 -273 -70 -119 -245 -124 -318 -9 -35 56 -45 111 -28 170
15 54 69 113 119 130 48 15 124 7 166 -18z"></path>
<path d="M4817 2053 c-8 -7 -10 -657 -2 -665 3 -3 17 -3 30 0 l25 4 0 334 0
334 -23 0 c-13 0 -27 -3 -30 -7z"></path>
<path d="M3215 2027 c-3 -7 -4 -154 -3 -327 l3 -314 25 0 25 0 5 149 5 150
107 7 c158 11 216 48 233 149 14 80 -40 167 -116 189 -52 15 -278 13 -284 -3z
m270 -61 c38 -16 65 -60 65 -107 0 -22 -10 -41 -33 -64 -28 -28 -43 -34 -97
-40 -36 -4 -83 -5 -105 -3 l-40 3 -3 99 c-1 55 0 106 2 113 7 18 165 18 211
-1z"></path>
<path d="M910 2017 c-78 -27 -105 -137 -54 -219 l27 -42 -23 -18 c-27 -22 -71
-20 -78 2 -5 13 -3 13 11 1 24 -19 21 2 -3 24 -10 9 -26 15 -35 12 -22 -9 -19
-44 5 -57 29 -16 25 -34 -25 -109 -38 -57 -45 -74 -45 -117 0 -47 -3 -53 -39
-82 -50 -40 -58 -88 -29 -181 24 -78 31 -89 65 -93 14 -2 30 -10 36 -19 15
-25 -1 -88 -29 -113 -14 -11 -69 -63 -122 -114 -59 -58 -111 -100 -136 -109
-23 -9 -45 -19 -49 -23 -11 -10 14 -59 42 -84 12 -11 21 -27 21 -38 0 -21 66
-98 85 -98 7 0 20 11 29 25 14 21 14 28 4 46 -12 19 -9 24 27 54 49 41 43 35
161 170 53 61 107 129 121 153 14 24 30 41 37 39 6 -2 27 -52 47 -112 20 -59
42 -117 48 -128 7 -11 14 -56 15 -101 l3 -81 115 0 c126 1 156 11 137 46 -5
10 -20 19 -33 19 -28 0 -41 14 -50 55 -4 17 -15 39 -25 50 -13 15 -21 52 -30
140 -16 158 -17 159 -49 197 -15 18 -40 59 -56 90 -24 49 -27 65 -21 104 11
74 12 76 59 69 22 -4 48 -9 58 -11 10 -3 24 7 38 26 32 45 14 62 -59 58 l-56
-3 -7 70 c-3 39 -11 86 -16 105 -6 19 -13 52 -17 73 -6 37 -5 38 21 35 24 -3
30 2 37 27 5 17 13 37 17 45 10 22 4 154 -9 178 -12 22 -79 52 -114 51 -12 0
-38 -5 -57 -12z m121 -58 c18 -18 21 -30 17 -91 -4 -67 -5 -72 -41 -100 -44
-35 -45 -47 -16 -170 24 -103 22 -165 -10 -251 -21 -56 -21 -61 -6 -113 8 -29
36 -83 60 -119 25 -36 45 -76 45 -90 0 -75 34 -235 62 -293 34 -73 30 -85 -28
-80 l-39 3 -5 65 c-3 36 -13 79 -21 95 -9 17 -29 68 -44 115 -56 169 -90 180
-183 56 -76 -101 -219 -260 -252 -280 -17 -10 -36 -29 -42 -42 -6 -13 -14 -24
-18 -24 -8 0 -60 78 -60 90 0 5 16 17 35 26 20 9 64 48 97 86 34 38 83 85 109
104 98 72 108 193 19 237 -33 16 -53 61 -54 118 -1 40 4 52 37 88 30 34 37 48
37 84 0 57 80 190 130 215 19 9 41 29 49 44 14 25 13 31 -13 86 -31 65 -30
108 5 143 27 27 102 26 130 -2z"></path>
<path d="M2744 1995 c20 -53 38 -206 38 -320 0 -196 -32 -326 -139 -572 -3 -7
0 -13 7 -13 13 0 61 102 97 205 29 85 63 276 63 356 0 33 4 59 10 59 23 0 3
-263 -31 -395 -26 -104 -50 -167 -99 -266 -51 -101 -49 -141 2 -49 50 89 94
204 124 324 31 121 44 375 25 493 -22 142 -31 173 -51 173 -10 0 -22 5 -25 10
-10 16 -28 12 -21 -5z"></path>
<path d="M5304 1856 c-56 -26 -118 -91 -135 -143 -6 -19 -9 -67 -7 -107 3 -61
8 -80 33 -116 82 -119 256 -152 384 -72 59 36 71 56 48 79 -12 12 -21 15 -31
8 -97 -72 -153 -87 -233 -66 -164 44 -194 266 -49 355 39 25 58 30 109 30 66
-1 126 -24 161 -62 15 -17 21 -19 37 -9 10 6 19 17 19 24 0 19 -77 79 -119 91
-65 20 -160 15 -217 -12z"></path>
<path d="M3684 1856 c-3 -8 -4 -86 -2 -173 3 -142 5 -163 26 -206 76 -153 338
-132 381 30 6 21 11 110 12 198 l1 160 -29 0 -28 0 -5 -170 c-5 -185 -11 -206
-67 -242 -34 -22 -118 -22 -160 0 -57 30 -67 63 -73 247 -5 162 -5 165 -28
168 -13 2 -24 -3 -28 -12z"></path>
<path d="M5005 1858 c-3 -7 -4 -117 -3 -243 l3 -229 25 0 25 0 0 239 0 240
-23 3 c-12 2 -24 -3 -27 -10z"></path>
<path d="M3275 1196 c-42 -18 -83 -69 -91 -112 -12 -63 10 -107 83 -171 37
-32 93 -84 125 -115 53 -53 58 -61 58 -102 0 -36 -6 -50 -30 -75 -60 -60 -146
-46 -197 31 -28 42 -30 43 -55 24 -25 -19 -22 -36 12 -78 58 -70 150 -95 228
-63 73 31 112 86 112 160 0 81 -41 136 -177 239 -75 56 -93 80 -93 124 0 48
37 82 90 82 33 0 48 -7 84 -40 41 -38 44 -39 60 -22 23 26 20 44 -11 75 -56
53 -136 70 -198 43z"></path>
<path d="M4207 1204 c-4 -4 -7 -155 -7 -336 l0 -329 33 3 32 3 5 160 c5 173 9
184 64 233 62 54 141 54 192 1 l29 -30 5 -182 5 -182 33 -3 32 -3 0 138 c0
223 -16 280 -90 331 -63 43 -189 24 -244 -37 -11 -12 -22 -21 -25 -21 -3 0 -6
57 -6 127 l0 128 -25 3 c-14 2 -29 0 -33 -4z"></path>
<path d="M5855 1198 c-3 -7 -4 -159 -3 -338 l3 -325 25 3 c14 2 26 5 27 6 1 1
3 150 3 332 l1 329 -25 3 c-15 2 -28 -2 -31 -10z"></path>
<path d="M5471 1029 c-90 -17 -169 -95 -191 -190 -38 -159 74 -309 234 -313
120 -2 218 67 251 177 19 63 19 91 0 153 -37 124 -163 198 -294 173z m163 -92
c51 -39 76 -93 76 -165 0 -110 -76 -187 -185 -187 -94 0 -165 59 -186 155 -17
76 24 167 95 211 48 31 151 23 200 -14z"></path>
<path d="M3765 1006 c-93 -44 -145 -126 -145 -231 0 -147 109 -248 266 -248
58 0 83 5 126 26 30 15 64 37 76 50 l22 24 -20 18 c-15 13 -25 16 -34 10 -88
-65 -99 -70 -165 -70 -121 0 -201 70 -209 182 -12 186 216 280 358 148 23 -21
27 -22 45 -9 18 14 19 17 5 41 -9 15 -39 40 -69 55 -72 38 -181 40 -256 4z"></path>
<path d="M4830 998 c-79 -48 -114 -108 -118 -207 -3 -68 -1 -82 25 -131 65
-123 211 -171 334 -109 49 24 113 98 127 147 29 95 1 202 -69 269 -48 45 -97
63 -177 63 -59 0 -75 -4 -122 -32z m209 -42 c73 -38 119 -128 107 -209 -28
-187 -271 -224 -358 -54 -43 86 -5 212 79 256 46 24 132 27 172 7z"></path>
<path d="M6062 1014 c-31 -22 -52 -66 -52 -111 1 -64 23 -90 131 -151 88 -50
101 -120 30 -157 -42 -21 -62 -19 -107 11 -28 19 -42 24 -54 17 -26 -17 -22
-40 10 -63 73 -52 165 -46 219 15 26 30 31 44 31 89 0 68 -19 93 -110 146
-103 60 -122 98 -74 147 21 21 32 24 60 20 19 -3 46 -15 61 -27 24 -19 27 -19
45 -4 26 24 23 30 -25 59 -51 29 -130 34 -165 9z"></path>
<path d="M750 780 c0 -21 205 -170 235 -170 16 0 1 22 -25 35 -17 9 -68 45
-115 80 -88 68 -95 71 -95 55z"></path>
<path d="M2320 729 c-19 -17 -65 -49 -102 -72 -63 -39 -90 -68 -50 -53 58 22
202 126 202 147 0 15 -14 9 -50 -22z"></path>
<path d="M700 721 c0 -14 96 -97 168 -145 357 -235 814 -279 1215 -117 148 59
377 211 319 211 -4 0 -38 -22 -74 -49 -208 -151 -473 -234 -748 -234 -294 0
-565 95 -790 279 -81 65 -90 71 -90 55z"></path>
<path d="M2033 563 c-270 -111 -573 -119 -848 -22 -93 32 -95 33 -95 20 0 -5
26 -19 58 -31 250 -95 540 -104 792 -25 99 31 190 72 190 86 0 12 -3 11 -97
-28z"></path>
</g>
</svg>