<?xml version="1.0" standalone="no"?>
<!DOCTYPE svg PUBLIC "-//W3C//DTD SVG 20010904//EN"
 "http://www.w3.org/TR/2001/REC-SVG-20010904/DTD/svg10.dtd">
<svg version="1.0" xmlns="http://www.w3.org/2000/svg"
 width="616.000000pt" height="238.000000pt" viewBox="0 0 616.000000 238.000000"
 preserveAspectRatio="xMidYMid meet">
<metadata>
Created by potrace 1.15, written by Peter Selinger 2001-2017
</metadata>
<g transform="translate(0.000000,238.000000) scale(0.100000,-0.100000)"
fill="white" stroke="none">
<path d="M612 1900 c-230 -61 -418 -238 -499 -473 -37 -106 -43 -282 -15 -395
56 -221 192 -386 397 -483 289 -136 630 -65 848 177 20 23 37 45 37 50 -1 5
-19 22 -41 37 l-41 28 -62 -63 c-74 -75 -165 -130 -261 -161 -93 -29 -263 -31
-345 -3 -141 48 -250 126 -326 232 -51 71 -98 182 -109 257 l-7 47 70 0 70 0
6 -45 c4 -24 23 -76 42 -113 139 -279 513 -345 739 -131 30 29 55 55 55 60 0
4 -19 21 -42 38 l-41 31 -49 -46 c-74 -70 -146 -98 -243 -99 -69 0 -89 5 -145
31 -102 49 -184 144 -205 241 l-7 33 543 0 542 0 -5 98 c-18 315 -239 580
-549 656 -91 22 -263 21 -357 -4z m354 -111 c231 -70 392 -253 439 -496 l7
-33 -487 0 -487 0 7 28 c23 96 98 188 193 234 60 30 75 33 157 33 78 0 98 -4
146 -27 30 -15 75 -46 99 -68 47 -43 57 -44 104 -6 l29 24 -24 31 c-37 47
-122 107 -187 131 -80 31 -210 38 -287 15 -175 -50 -298 -176 -337 -342 l-13
-53 -68 0 -69 0 7 43 c21 123 81 235 180 333 75 75 173 132 270 159 80 22 241
19 321 -6z"/>
<path d="M3933 1791 c-72 -33 -101 -112 -66 -181 14 -28 36 -44 108 -80 77
-38 90 -49 93 -72 7 -57 -81 -75 -141 -28 -34 27 -40 26 -71 -14 l-26 -35 32
-25 c47 -35 81 -46 145 -46 102 0 167 59 166 152 -1 63 -29 100 -101 133 -97
43 -107 50 -110 72 -2 15 6 28 24 39 25 17 29 17 76 0 54 -19 57 -18 89 37 30
53 -130 87 -218 48z"/>
<path d="M4386 1794 c-100 -36 -156 -121 -156 -235 0 -109 44 -183 135 -225
134 -63 298 -4 353 126 24 57 19 157 -10 215 -55 112 -198 165 -322 119z m174
-102 c97 -72 92 -214 -10 -271 -147 -83 -292 115 -178 244 49 56 132 68 188
27z"/>
<path d="M2010 1555 l0 -245 155 0 155 0 0 50 0 50 -105 0 -105 0 0 60 0 60
75 0 75 0 0 45 0 45 -75 0 -75 0 0 45 0 45 100 0 100 0 0 45 0 45 -150 0 -150
0 0 -245z"/>
<path d="M2400 1556 l0 -246 55 0 54 0 3 121 3 121 49 -81 c47 -78 50 -81 85
-81 35 0 38 3 89 88 l52 87 0 -127 0 -128 50 0 50 0 0 245 0 245 -38 0 c-37 0
-37 0 -115 -130 -43 -71 -81 -131 -85 -134 -4 -2 -44 55 -88 127 l-80 132 -42
3 -42 3 0 -245z"/>
<path d="M3010 1555 l0 -245 150 0 150 0 0 50 0 50 -100 0 -100 0 0 60 0 60
75 0 75 0 0 45 0 45 -75 0 -75 0 0 45 0 45 100 0 100 0 0 45 0 45 -150 0 -150
0 0 -245z"/>
<path d="M3400 1556 l0 -246 50 0 50 0 0 111 c0 90 3 110 14 107 8 -2 53 -51
100 -110 l87 -108 59 0 c33 0 60 3 60 8 0 4 -38 54 -84 111 l-84 103 37 33
c34 32 36 36 36 99 0 61 -2 68 -33 98 l-32 33 -130 3 -130 4 0 -246z"/>
<path d="M4810 1555 l0 -245 55 0 54 0 3 147 3 146 125 -146 c120 -141 127
-147 163 -147 l37 0 0 245 0 245 -55 0 -55 0 0 -146 0 -145 -125 145 c-123
142 -127 146 -165 146 l-40 0 0 -245z"/>
<path d="M2167 1090 c-58 -15 -92 -36 -129 -80 -109 -126 -62 -330 91 -397 87
-37 233 -12 291 51 l24 27 -32 32 c-27 27 -35 30 -50 19 -61 -44 -80 -52 -123
-52 -116 0 -190 119 -140 224 41 83 128 109 216 65 l43 -22 30 34 c35 39 31
48 -31 78 -50 24 -138 34 -190 21z"/>
<path d="M2632 1082 c-106 -38 -162 -120 -162 -237 0 -85 21 -136 77 -186 49
-44 100 -63 173 -63 73 0 124 19 173 63 129 116 100 333 -55 412 -57 29 -142
33 -206 11z m169 -105 c124 -83 68 -287 -79 -287 -150 0 -208 202 -82 288 45
30 115 30 161 -1z"/>
<path d="M4325 1083 c-73 -26 -107 -55 -139 -114 -71 -130 -14 -298 119 -355
91 -38 235 -13 295 51 23 24 23 25 4 46 -36 40 -52 42 -85 15 -38 -32 -67 -40
-124 -34 -80 9 -135 72 -135 155 0 121 124 191 231 131 l40 -22 31 31 c27 28
30 34 18 48 -45 54 -172 78 -255 48z"/>
<path d="M3040 845 l0 -245 155 0 155 0 0 45 0 45 -100 0 -100 0 0 200 0 200
-55 0 -55 0 0 -245z"/>
<path d="M3420 845 l0 -245 155 0 155 0 0 45 0 45 -100 0 -100 0 0 200 0 200
-55 0 -55 0 0 -245z"/>
<path d="M3810 845 l0 -245 150 0 150 0 0 45 0 45 -100 0 -100 0 0 65 0 65 75
0 75 0 0 45 0 45 -75 0 -75 0 0 45 0 45 95 0 95 0 0 45 0 45 -145 0 -145 0 0
-245z"/>
<path d="M4640 1045 l0 -45 65 0 65 0 0 -200 0 -200 50 0 50 0 0 200 0 200 65
0 65 0 0 45 0 45 -180 0 -180 0 0 -45z"/>
<path d="M5060 845 l0 -245 50 0 50 0 0 245 0 245 -50 0 -50 0 0 -245z"/>
<path d="M5232 1073 c3 -10 47 -120 98 -245 l92 -228 37 0 37 0 92 228 c50
125 94 235 98 245 5 15 -1 17 -48 17 l-54 0 -49 -122 c-27 -68 -55 -139 -63
-158 l-14 -35 -62 155 -62 155 -53 3 c-48 3 -53 1 -49 -15z"/>
<path d="M5750 845 l0 -245 150 0 150 0 0 45 0 45 -100 0 -100 0 0 65 0 65 75
0 75 0 0 45 0 45 -75 0 -75 0 0 45 0 45 100 0 100 0 0 45 0 45 -150 0 -150 0
0 -245z"/>
</g>
</svg>
