<?xml version="1.0" standalone="no"?>
<!DOCTYPE svg PUBLIC "-//W3C//DTD SVG 20010904//EN"
 "http://www.w3.org/TR/2001/REC-SVG-20010904/DTD/svg10.dtd">
<svg version="1.0" xmlns="http://www.w3.org/2000/svg"
 width="616.000000pt" height="238.000000pt" viewBox="0 0 616.000000 238.000000"
 preserveAspectRatio="xMidYMid meet">

<g transform="translate(0.000000,238.000000) scale(0.100000,-0.100000)"
fill="#000000" stroke="none">
<path d="M160 1731 c0 -176 -2 -192 -23 -242 -44 -100 -52 -147 -52 -294 0
-135 1 -143 35 -230 34 -90 34 -90 37 -288 l4 -197 2879 0 2880 0 0 60 0 60
65 0 65 0 0 45 0 45 -65 0 -65 0 0 65 0 65 40 0 40 0 0 45 0 45 -40 0 -40 0 0
45 0 45 65 0 65 0 0 45 0 45 -65 0 -65 0 0 415 0 415 -2880 0 -2880 0 0 -189z"/>
</g>
</svg>
