<svg xmlns="http://www.w3.org/2000/svg" width="450.045" height="450.045" viewBox="0 0 450.045 450.045"><path fill="#FFDE2F" d="M107.888 215.617c0 4.973 4.033 9.005 9.002 9.005 4.973 0 9.004-4.032 9.004-9.005 0-4.98-4.03-9.002-9.004-9.002-4.97 0-9.002 4.02-9.002 9.002zM193.915 306c0 4.97 4.033 9.004 9 9.004 4.973 0 9.006-4.033 9.006-9.005 0-4.982-4.032-9.003-9.005-9.003-4.967 0-9 4.02-9 9.002zM112.88 152.453c0 5.832 4.723 10.56 10.54 10.56 5.833 0 10.55-4.728 10.55-10.56 0-5.818-4.717-10.543-10.55-10.543-5.817 0-10.54 4.725-10.54 10.543z"/><path fill="#FAA73F" d="M119.927 294.023c0 6.076 4.936 11.01 11.008 11.01 6.082 0 11.002-4.934 11.002-11.01 0-6.084-4.92-11.005-11.002-11.005-6.073 0-11.008 4.92-11.008 11.005zM153.835 205.738c0 8.458 6.865 15.322 15.334 15.322 8.438 0 15.313-6.864 15.313-15.322 0-8.45-6.875-15.31-15.314-15.31-8.47 0-15.335 6.86-15.335 15.31z"/><path fill="#FFDE2F" d="M232.5 209.803c0 6.98 5.642 12.637 12.614 12.637 6.99 0 12.637-5.657 12.637-12.637 0-6.973-5.645-12.62-12.636-12.62-6.972 0-12.613 5.647-12.613 12.62z"/><path fill="#ADCDEC" d="M179.76 152.462c0 4.97 4.03 9 9 9s9.005-4.03 9.005-9c0-4.983-4.035-9.005-9.006-9.005-4.97 0-9 4.022-9 9.005zM191.32 263.188c0 7.217 5.833 13.076 13.044 13.076 7.213 0 13.05-5.86 13.05-13.076 0-7.2-5.837-13.046-13.05-13.046-7.21 0-13.045 5.844-13.045 13.046z"/><path fill="#FAA73F" d="M340.024 213.205l-87.37 50.444v75.877l18.44-10.648v-54.586l68.93-39.797 68.932 39.797v79.602l-68.932 39.8-29.14-16.822-18.44 10.647 47.58 27.468 87.37-50.447V263.65"/><g fill="#FFDE2F"><path d="M322.847 262.158v50.883l-76.707 44.284-57.045 32.938-133.737-77.22V158.59l30.207-17.444v-39.675L21 138.757v194.118l168.095 97.055 157.875-91.147 10.232-5.91V262.16l-17.178-9.92M315.538 114.7L189.095 41.687l-55.06 31.794v39.676l55.06-31.797 109.263 63.093 24.49 14.14v46.79l17.176-9.92 17.178 9.92v-66.626"/></g><path fill="#ADCDEC" d="M91.41 63.59c0 5.615 4.54 10.18 10.157 10.18 5.63 0 10.182-4.564 10.182-10.18 0-5.62-4.552-10.166-10.183-10.166-5.617 0-10.156 4.547-10.156 10.166z"/><path fill="#FAA73F" d="M64.333 25.852c0 3.467 2.812 6.283 6.277 6.283 3.47 0 6.28-2.816 6.28-6.283 0-3.473-2.812-6.278-6.28-6.278-3.464 0-6.277 2.805-6.277 6.278z"/></svg>