 <svg version="1.0" xmlns="http://www.w3.org/2000/svg" width="700.000000pt" height="149.000000pt" viewBox="0 0 700.000000 149.000000" preserveAspectRatio="xMidYMid meet">
<metadata>
Created by potrace 1.12, written by Peter Selinger 2001-2015
</metadata>
<g transform="translate(0.000000,149.000000) scale(0.100000,-0.100000)" fill="white" stroke="none">
<path fill="#F65314" d="M668 1158 l-3 -333 -333 -3 c-286 -2 -332 -4 -332 -17 0 -13 47 -15
350 -15 l350 0 0 350 c0 303 -2 350 -15 350 -13 0 -15 -46 -17 -332z"></path>
<path fill="#7CBB00" d="M782 1143 l3 -348 345 0 345 0 3 348 c1 229 -1 347 -8 347 -7 0 -10
-112 -10 -324 0 -272 -2 -325 -15 -336 -11 -9 -92 -12 -316 -11 -166 1 -306 4
-310 7 -5 3 -9 153 -9 335 0 287 -2 329 -15 329 -13 0 -15 -43 -13 -347z"></path>
<path d="M6411 1245 c-90 -28 -133 -93 -141 -215 l-5 -85 -50 -1 -50 -1 0 -59
0 -59 50 0 50 0 2 -255 1 -255 72 0 71 0 2 250 2 250 110 0 110 0 5 -200 c5
-203 9 -223 49 -269 30 -34 73 -49 141 -49 94 0 110 11 110 77 l0 53 -54 -5
c-45 -4 -57 -1 -75 17 -21 21 -21 29 -19 199 l3 177 70 5 70 5 3 57 3 57 -73
3 -73 3 -3 85 c-2 47 -6 88 -11 93 -4 4 -36 -3 -72 -15 l-64 -23 -5 -70 -5
-70 -110 0 -110 0 1 68 c1 60 4 71 28 95 23 23 34 27 81 26 l55 -2 0 54 c0 42
-4 55 -19 64 -27 14 -97 12 -150 -5z"></path>
<path d="M3045 1185 c-37 -36 -34 -86 6 -119 41 -35 83 -34 120 3 36 36 37 70
3 110 -34 41 -92 44 -129 6z"></path>
<path d="M1935 1178 c-3 -7 -4 -204 -3 -438 l3 -425 68 -3 68 -3 -3 360 c-2
197 0 357 5 354 4 -2 7 -13 7 -24 0 -21 255 -653 273 -676 12 -17 91 -17 105
0 13 16 262 637 262 654 0 7 5 13 10 13 7 0 10 -111 10 -337 l-2 -338 74 0 73
0 3 438 2 437 -105 0 -106 0 -20 -47 c-57 -132 -218 -533 -230 -571 -6 -23
-15 -42 -19 -42 -4 0 -22 39 -39 88 -18 48 -76 195 -129 327 l-97 240 -103 3
c-76 2 -104 -1 -107 -10z"></path>
<path d="M3534 949 c-61 -14 -144 -68 -181 -117 -47 -63 -66 -137 -61 -241 7
-131 59 -215 166 -268 50 -24 69 -28 147 -28 70 0 99 5 130 20 40 20 40 21 43
83 2 34 1 62 -1 62 -3 0 -24 -9 -48 -20 -52 -23 -135 -26 -182 -6 -137 57
-142 305 -7 374 59 31 164 28 208 -5 17 -12 31 -20 33 -18 2 2 2 34 -1 72 -5
62 -7 69 -33 81 -36 18 -160 24 -213 11z"></path>
<path d="M4523 950 c-93 -20 -172 -82 -214 -168 -34 -70 -39 -217 -10 -293 28
-75 80 -132 149 -166 49 -24 68 -28 147 -27 75 0 99 4 145 25 106 49 158 119
180 239 29 158 -34 306 -153 364 -59 29 -173 41 -244 26z m172 -138 c49 -29
75 -92 75 -187 0 -96 -23 -155 -72 -185 -44 -28 -154 -25 -194 6 -86 63 -98
270 -20 343 54 51 144 61 211 23z"></path>
<path d="M5148 945 c-94 -30 -157 -123 -142 -206 16 -80 45 -110 170 -172 50
-25 94 -53 98 -62 29 -77 -57 -116 -169 -76 -33 12 -68 24 -77 28 -16 5 -18
-2 -18 -61 0 -76 2 -78 108 -95 165 -26 299 48 310 172 6 76 -15 118 -80 160
-29 19 -75 43 -101 53 -95 37 -124 92 -69 134 23 19 36 21 84 17 31 -3 70 -12
87 -20 16 -8 32 -12 35 -9 3 3 6 32 6 64 0 55 -2 59 -27 69 -48 18 -164 20
-215 4z"></path>
<path d="M5721 945 c-152 -43 -226 -151 -226 -330 0 -75 5 -99 26 -145 33 -70
79 -117 149 -149 76 -35 210 -36 285 -2 65 29 128 91 156 155 34 78 38 212 9
290 -29 75 -86 137 -152 166 -66 28 -175 35 -247 15z m151 -115 c46 -13 94
-67 109 -122 15 -57 5 -171 -19 -211 -30 -52 -76 -77 -142 -77 -43 0 -65 6
-90 23 -57 38 -72 68 -78 151 -6 102 3 140 45 187 48 53 103 69 175 49z"></path>
<path d="M4122 930 c-18 -11 -41 -34 -50 -50 -24 -41 -32 -37 -32 15 l0 45
-70 0 -70 0 0 -315 0 -316 71 3 71 3 -1 170 c-2 203 10 256 66 305 32 29 41
32 82 27 25 -2 52 -6 60 -8 11 -3 13 9 12 61 -2 35 -5 68 -7 72 -10 16 -99 8
-132 -12z"></path>
<path d="M3032 628 l3 -313 70 0 70 0 3 313 2 312 -75 0 -75 0 2 -312z"></path>
<path fill="#00A1F1" d="M0 695 c0 -13 46 -15 333 -17 l332 -3 0 -315 0 -315 -332 -3 c-287
-2 -333 -4 -333 -17 0 -13 47 -15 348 -15 192 0 351 2 353 4 2 2 3 160 1 350
l-3 346 -349 0 c-303 0 -350 -2 -350 -15z"></path>
<path fill="#FFBB00" d="M785 698 c-3 -7 -4 -164 -3 -348 l3 -335 345 0 345 0 0 345 0 345
-343 3 c-270 2 -344 0 -347 -10z m670 -338 l0 -325 -325 0 -325 0 -3 315 c-1
173 0 321 3 328 3 10 73 12 327 10 l323 -3 0 -325z"></path>
</g>
</svg>