<?xml version="1.0" standalone="no"?>
<!DOCTYPE svg PUBLIC "-//W3C//DTD SVG 20010904//EN"
 "http://www.w3.org/TR/2001/REC-SVG-20010904/DTD/svg10.dtd">
<svg version="1.0" xmlns="http://www.w3.org/2000/svg"
 width="4500.000000pt" height="986.000000pt" viewBox="0 0 4500.000000 986.000000"
 preserveAspectRatio="xMidYMid meet">
<metadata>
Created by potrace 1.15, written by Peter Selinger 2001-2017
</metadata>
<g transform="translate(0.000000,986.000000) scale(0.100000,-0.100000)"
fill="#8C3232" stroke="none">
<path d="M3040 9623 c-697 -10 -1681 -56 -2310 -108 -264 -22 -692 -65 -712
-71 -17 -5 -18 -142 -18 -2696 0 -2955 -4 -2738 61 -3123 268 -1569 1229
-2748 2729 -3347 372 -149 877 -279 1023 -264 32 3 128 22 215 41 1294 293
2312 988 2912 1986 314 522 522 1149 610 1842 20 155 20 213 20 2857 l0 2700
-22 5 c-13 2 -156 16 -318 30 -1447 122 -2755 169 -4190 148z m274 -508 c110
-19 262 -68 349 -111 l67 -34 0 -1139 0 -1140 -72 34 c-157 71 -341 123 -522
145 -121 15 -246 2 -522 -56 -120 -24 -284 -58 -364 -75 -242 -50 -387 -70
-562 -76 l-168 -6 0 1163 0 1162 68 -6 c37 -3 178 -9 314 -12 293 -8 353 -1
536 61 152 51 320 90 447 104 113 12 316 6 429 -14z m1481 3 c33 -5 121 -29
195 -53 138 -44 274 -74 435 -97 97 -14 636 -18 693 -6 l32 8 0 -1162 0 -1161
-137 6 c-225 10 -395 35 -958 142 -400 76 -472 85 -625 74 -203 -15 -363 -57
-516 -138 l-74 -38 0 1133 0 1133 78 29 c337 130 629 173 877 130z m-3900
-567 c51 -23 111 -89 124 -138 17 -61 13 -143 -10 -193 -43 -95 -107 -135
-219 -135 -86 0 -139 22 -185 77 -41 49 -55 90 -55 163 0 149 94 245 240 245
42 0 79 -7 105 -19z m5411 -92 c91 -32 221 -37 315 -10 41 11 96 21 122 21 69
0 149 -34 192 -82 38 -41 74 -110 75 -140 0 -16 -3 -16 -37 -1 -75 31 -139 16
-328 -74 -193 -92 -305 -133 -364 -133 l-41 0 0 220 c0 121 2 220 3 220 2 0
30 -9 63 -21z m-4891 -159 l0 -135 -142 -3 -143 -3 0 141 0 141 143 -3 142 -3
0 -135z m-522 -731 c91 -47 137 -123 137 -230 0 -163 -134 -273 -291 -240 -68
15 -101 33 -141 81 -119 138 -50 355 127 401 38 10 139 3 168 -12z m5561 -39
c65 0 170 5 232 12 89 9 122 9 154 -1 58 -17 122 -84 149 -155 31 -83 29 -89
-21 -66 -25 12 -66 20 -98 20 -49 0 -71 -8 -205 -75 -151 -76 -282 -119 -385
-126 l-45 -4 -3 216 -2 216 52 -18 c39 -14 84 -18 172 -19z m-5037 -212 l2
-138 -145 0 -144 0 0 140 0 141 143 -3 142 -3 2 -137z m2480 -937 c32 -10 97
-35 145 -55 107 -45 167 -53 228 -32 24 8 46 13 48 11 10 -10 -11 -59 -35 -81
l-26 -24 47 0 c55 0 94 18 129 59 20 24 26 27 31 15 11 -28 6 -57 -14 -99 -22
-46 -71 -79 -135 -90 -57 -11 -60 -15 -26 -36 38 -23 57 -53 66 -104 4 -21 13
-52 21 -67 17 -32 68 -62 95 -55 26 7 24 -17 -3 -43 -27 -25 -48 -25 -98 0
-22 11 -40 18 -40 15 0 -3 9 -24 21 -47 12 -23 28 -82 36 -132 17 -110 44
-170 89 -199 43 -28 43 -37 0 -37 -26 0 -45 10 -85 46 l-50 45 20 -47 c18 -38
20 -61 16 -118 -5 -82 -44 -206 -63 -206 -7 0 -21 12 -31 26 -31 45 -91 109
-97 103 -3 -3 12 -41 34 -85 44 -87 69 -217 56 -287 -8 -45 -22 -44 -53 4 -12
19 -34 49 -48 68 -21 29 -25 31 -25 14 0 -12 9 -50 20 -86 16 -53 33 -79 95
-148 49 -54 90 -113 117 -166 36 -73 40 -88 40 -153 -1 -89 -32 -330 -43 -330
-13 0 -54 54 -84 113 -45 86 -58 75 -29 -24 18 -61 52 -124 93 -172 33 -39 51
-96 57 -185 5 -66 -4 -100 -24 -88 -6 3 -24 30 -41 60 -54 97 -72 90 -37 -15
69 -206 73 -358 13 -519 -20 -53 -37 -88 -40 -80 -3 8 -24 93 -47 188 -23 94
-45 172 -49 172 -12 0 -45 -40 -91 -110 -52 -77 -110 -150 -120 -150 -4 0 -10
33 -13 74 -18 210 -143 627 -176 590 -20 -21 -230 -606 -245 -679 -34 -173
-29 -328 13 -465 10 -33 17 -60 15 -60 -6 0 -63 117 -84 172 -46 125 -64 227
-64 378 -1 179 15 243 76 304 39 40 40 42 35 95 -4 35 -13 61 -26 74 -19 20
-20 20 -26 -19 -9 -62 -23 -108 -39 -129 -13 -18 -16 -18 -41 -5 -76 41 -74
193 4 300 57 78 74 138 51 181 -16 29 -27 23 -48 -23 -11 -24 -31 -54 -45 -67
l-27 -24 -14 35 c-30 71 -39 129 -33 221 8 142 61 273 169 413 73 95 64 109
-28 44 -79 -55 -84 -54 -84 28 0 193 98 336 257 377 31 8 58 16 60 19 2 2 -10
9 -27 16 -35 15 -59 48 -38 54 7 2 41 9 76 16 132 24 201 64 233 134 19 43 25
91 11 100 -4 2 -17 -9 -27 -26 -47 -71 -157 -117 -200 -82 -15 12 -17 18 -7
21 62 23 85 95 43 136 -19 19 -32 22 -112 22 l-91 0 -34 37 c-19 21 -34 41
-34 45 0 5 19 7 43 5 33 -3 60 5 127 37 50 25 98 41 119 41 55 0 132 -41 178
-95 l41 -49 7 37 c15 81 -43 155 -145 184 -49 14 -58 20 -85 66 -38 64 -106
104 -192 113 -57 6 -61 8 -72 40 -30 83 -121 110 -185 54 -18 -17 -37 -42 -40
-56 l-7 -27 -24 23 c-53 50 -70 132 -39 193 21 41 91 114 128 134 35 18 46 9
74 -62 22 -56 65 -96 84 -77 8 8 5 26 -15 70 -15 33 -27 66 -27 74 0 39 64 52
95 18 24 -26 43 -25 54 3 10 25 55 69 90 87 67 35 144 38 228 11z m-1479 -153
c50 -24 85 -66 115 -140 19 -46 22 -73 22 -212 l1 -159 27 -23 c28 -24 85 -44
125 -44 l23 0 -23 -42 c-27 -49 -79 -88 -118 -88 -14 0 -54 9 -87 21 l-62 20
-80 -79 -81 -80 0 -60 c0 -50 4 -66 26 -91 36 -43 43 -102 15 -137 -24 -30
-26 -56 -10 -103 21 -60 63 -64 238 -20 147 36 189 35 258 -9 89 -57 123 -53
123 14 0 59 -18 90 -70 118 -105 57 -128 113 -94 227 34 115 104 224 104 162
0 -27 50 -117 88 -156 20 -22 83 -70 140 -109 137 -94 179 -152 203 -281 11
-60 10 -72 -11 -144 -29 -95 -30 -168 -3 -221 l20 -40 -24 -39 c-61 -101 -94
-283 -75 -409 13 -83 41 -156 74 -191 18 -20 19 -25 7 -60 -7 -21 -13 -74 -13
-118 1 -92 23 -151 78 -204 l34 -33 -15 -42 c-20 -54 -20 -203 0 -281 9 -32
14 -62 10 -65 -9 -9 -33 35 -82 148 -26 59 -64 133 -85 164 -97 147 -264 241
-446 250 l-55 3 -3 -33 c-4 -37 18 -80 78 -151 21 -25 46 -64 56 -86 21 -51
31 -223 15 -253 -11 -21 -16 -18 -107 73 -98 98 -112 122 -134 213 -6 28 -16
52 -20 52 -19 0 -120 -125 -148 -183 -37 -77 -52 -145 -52 -245 l-1 -77 -45
115 c-25 63 -49 125 -54 137 -8 18 10 46 120 187 140 180 180 243 267 420 83
171 62 168 -75 -8 -44 -55 -141 -186 -217 -291 -75 -104 -140 -189 -142 -188
-3 1 -21 37 -41 80 -19 43 -43 90 -53 104 l-18 26 47 59 c94 117 124 165 196
316 79 164 100 218 86 218 -8 0 -100 -136 -230 -340 -40 -63 -89 -137 -108
-163 l-35 -48 -41 40 c-23 23 -48 41 -56 41 -11 0 -20 -26 -33 -93 -9 -50 -17
-105 -17 -122 0 -23 -16 -47 -65 -102 -64 -70 -222 -209 -230 -202 -7 8 -23
214 -16 226 3 6 60 72 126 148 74 84 154 189 207 273 99 153 161 267 156 283
-2 6 -30 -17 -62 -51 -51 -56 -297 -360 -401 -497 -22 -29 -42 -52 -45 -53 -3
0 -13 15 -23 33 -10 18 -35 53 -56 77 l-37 44 80 115 c131 187 163 240 226
379 57 124 69 162 53 162 -14 -1 -103 -129 -249 -355 -180 -279 -169 -264
-194 -258 -27 7 -26 53 5 228 34 187 41 255 26 255 -29 0 -91 -210 -112 -377
l-13 -100 -70 -16 c-38 -9 -74 -21 -79 -26 -15 -15 10 -67 39 -80 30 -13 63
-83 64 -132 0 -19 -7 -85 -15 -144 -22 -153 -10 -219 54 -299 18 -22 30 -44
28 -50 -2 -6 -27 -13 -55 -16 -30 -3 -63 -14 -81 -28 l-30 -22 -10 37 c-21 78
-52 293 -62 436 -13 181 1 530 31 751 11 82 20 172 20 200 l-1 51 -16 -30
c-28 -52 -89 -195 -288 -680 -229 -558 -241 -585 -254 -585 -25 0 -43 64 -43
150 3 296 227 879 467 1215 36 50 65 95 65 102 0 37 -37 10 -183 -135 -256
-253 -379 -338 -505 -349 -116 -11 -114 -6 105 203 318 303 547 532 567 565
10 17 15 30 10 28 -5 -2 -74 -37 -154 -76 -173 -87 -266 -113 -396 -113 -91 0
-194 15 -194 28 0 4 59 39 132 77 171 91 372 212 473 283 117 83 238 206 260
265 10 26 15 50 13 53 -3 3 -57 -19 -119 -49 -219 -105 -408 -150 -543 -130
-39 6 -84 16 -100 22 -28 11 -26 13 135 109 186 111 554 341 862 539 195 126
210 133 257 133 28 0 67 8 88 17 l37 17 -95 6 c-52 3 -105 11 -117 18 -39 22
-46 87 -17 144 l16 30 19 -31 c48 -79 154 -80 392 -1 86 28 176 55 199 60 58
12 134 3 186 -22z m3309 2 c46 -11 142 -43 215 -71 110 -42 145 -52 200 -53
58 -1 68 -4 68 -19 0 -23 -57 -57 -95 -57 -35 0 -60 -14 -51 -28 3 -5 39 -17
80 -26 121 -27 386 -169 386 -207 0 -5 -14 -9 -30 -9 -30 0 -27 -4 72 -107 57
-60 203 -208 326 -330 201 -201 220 -223 194 -223 -71 0 -257 129 -489 338
-66 59 -93 78 -93 65 0 -25 48 -81 248 -290 189 -197 292 -315 388 -443 76
-102 157 -235 153 -249 -6 -15 -168 42 -272 96 -128 66 -200 137 -315 313 -52
80 -120 183 -150 228 -64 98 -115 152 -142 152 -11 0 -20 -2 -20 -4 0 -3 92
-157 203 -343 330 -547 380 -651 433 -883 58 -258 35 -863 -37 -955 -11 -14
-24 -25 -29 -25 -11 0 -55 162 -145 535 -159 656 -223 872 -319 1068 -53 108
-133 233 -143 223 -3 -3 26 -87 65 -188 163 -425 243 -727 272 -1022 6 -65 8
-122 3 -126 -4 -4 -26 -13 -48 -20 -67 -21 -197 -86 -246 -123 l-46 -36 -6
162 c-9 249 -54 507 -127 732 -39 121 -58 165 -71 165 -15 0 -8 -71 36 -395
19 -137 37 -263 38 -279 l4 -30 -26 30 c-14 17 -82 99 -150 183 -150 185 -266
309 -277 298 -11 -11 83 -194 157 -307 66 -99 162 -206 244 -270 l57 -45 -5
-120 c-6 -125 -20 -195 -39 -195 -16 0 -73 63 -323 360 -123 146 -246 287
-274 314 -90 88 -80 42 37 -168 91 -164 152 -238 380 -454 l161 -154 -18 -36
c-27 -53 -102 -152 -115 -152 -6 0 -61 38 -121 85 -95 74 -111 90 -118 123
-27 126 -45 146 -109 119 l-34 -14 -139 144 c-137 143 -180 181 -192 170 -20
-20 97 -218 179 -302 l68 -70 -45 -88 c-25 -48 -45 -97 -45 -108 0 -10 -5 -19
-11 -19 -6 0 -63 50 -126 111 -119 114 -159 146 -170 136 -9 -10 25 -91 57
-136 27 -36 134 -129 199 -172 l24 -15 -28 -84 c-22 -65 -38 -95 -74 -133 -58
-62 -341 -300 -348 -293 -10 9 72 168 118 229 46 62 123 125 202 167 57 30 59
47 13 98 -33 36 -37 37 -103 37 -37 0 -89 -3 -115 -7 -47 -8 -48 -7 -48 20 0
15 -12 83 -26 152 -13 69 -27 164 -31 213 -7 100 -13 105 -79 61 -98 -65 -144
-129 -144 -199 0 -72 -30 -169 -76 -245 -24 -41 -52 -96 -62 -122 -9 -27 -20
-48 -25 -48 -17 0 -29 60 -32 165 -4 126 -5 130 -58 209 -55 81 -84 158 -98
258 -11 83 -11 85 14 124 51 77 60 198 23 303 -20 55 -20 143 -1 296 19 156
19 260 -1 322 -17 54 -102 175 -139 199 -21 14 -22 17 -9 52 7 21 16 66 20
101 6 58 8 62 28 56 11 -4 41 -9 66 -12 61 -7 82 12 123 112 27 65 41 86 77
113 25 19 53 46 62 61 23 34 22 95 -2 149 -21 46 -17 49 36 27 117 -49 141
-124 83 -256 -44 -101 -42 -104 66 -104 97 1 134 13 188 64 37 34 54 68 68
133 16 72 41 119 99 183 70 78 67 128 -10 159 -42 17 -44 20 -41 79 2 20 1 37
-2 37 -3 0 -36 -31 -73 -68 -87 -87 -110 -93 -223 -56 -80 26 -82 26 -132 10
-28 -10 -54 -15 -57 -11 -3 3 -1 18 4 33 9 27 16 31 146 91 109 51 153 121
112 179 -20 29 -12 83 19 127 106 153 210 216 288 174 16 -8 28 -5 56 13 111
70 235 85 390 48z m-2666 -366 c36 -44 65 -49 279 -49 192 0 208 -1 246 -22
38 -20 100 -81 91 -89 -1 -2 -25 4 -52 12 -58 18 -168 14 -285 -11 -222 -47
-335 -23 -385 81 -22 46 -9 97 38 150 l31 37 12 -47 c7 -26 18 -54 25 -62z
m783 -2222 c57 -182 70 -330 40 -459 -18 -75 -15 -276 5 -310 9 -16 10 -15 11
7 0 46 41 173 76 240 36 69 106 156 153 189 l28 20 38 -137 c35 -120 39 -150
39 -242 0 -128 -14 -168 -117 -337 -39 -65 -77 -135 -84 -156 -7 -20 -15 -90
-18 -155 l-5 -117 38 110 c52 151 74 197 131 274 86 117 116 193 146 370 21
123 39 173 88 249 40 61 57 75 57 49 0 -8 12 -36 26 -63 19 -36 27 -70 31
-126 7 -103 -24 -202 -112 -361 -37 -66 -64 -121 -61 -124 8 -8 47 4 82 26 46
28 85 85 110 159 l22 65 17 -39 c9 -21 19 -65 22 -96 6 -56 5 -59 -27 -85 -91
-76 -147 -141 -163 -188 -17 -50 -23 -155 -9 -155 4 0 35 33 68 73 151 180
194 265 204 407 6 97 7 100 63 192 65 107 92 178 112 297 8 46 15 85 15 88 0
8 83 93 91 93 5 0 9 -24 9 -52 0 -29 7 -93 16 -143 22 -126 15 -218 -23 -295
-16 -33 -28 -60 -25 -60 2 0 37 20 77 45 82 51 159 72 220 60 l40 -7 -40 -13
c-137 -41 -204 -117 -285 -320 -67 -169 -121 -252 -209 -320 -60 -45 -83 -73
-96 -114 -7 -23 -6 -23 31 -17 22 4 73 23 114 43 64 31 95 56 211 172 78 78
174 163 226 198 49 35 112 86 141 115 73 73 139 205 184 363 24 86 59 153 103
195 l34 33 8 -39 c13 -63 6 -192 -17 -297 -39 -179 -64 -232 -170 -353 -28
-32 -48 -59 -45 -62 9 -10 290 137 396 206 135 90 235 189 316 316 161 250
174 264 323 353 72 44 167 86 180 81 5 -2 -13 -32 -40 -67 -53 -67 -62 -91
-79 -211 -8 -57 -24 -101 -65 -183 -31 -61 -50 -110 -44 -113 5 -3 39 9 74 26
56 29 67 32 90 21 l26 -12 -44 -29 c-24 -16 -67 -58 -96 -94 -168 -207 -306
-277 -637 -325 -411 -60 -495 -92 -810 -306 -224 -152 -286 -186 -405 -225
-88 -29 -130 -52 -130 -72 0 -4 6 -8 13 -8 6 0 54 -21 105 -47 l94 -48 119 0
120 0 269 137 c148 76 271 138 275 138 11 0 -236 -264 -294 -314 -171 -147
-579 -232 -892 -185 -41 7 -96 9 -122 5 -49 -8 -131 -56 -154 -92 -14 -22 -13
-22 50 -17 83 7 120 -6 191 -66 68 -58 155 -106 208 -115 57 -10 112 10 170
61 77 68 127 88 223 88 68 0 88 -5 137 -29 31 -16 69 -42 84 -57 l28 -29 -25
0 c-36 0 -81 -32 -130 -91 -24 -30 -76 -86 -114 -125 -88 -88 -138 -109 -267
-108 -103 1 -142 18 -323 135 -136 88 -200 119 -246 119 -71 0 -109 -82 -71
-156 11 -21 53 -79 93 -129 106 -132 127 -192 95 -268 -20 -48 -97 -114 -142
-123 -86 -16 -199 44 -291 155 -29 36 -52 66 -50 67 1 1 36 -7 77 -18 87 -22
151 -17 182 14 30 30 19 84 -41 188 -60 103 -81 158 -81 211 0 21 -4 40 -9 43
-5 3 -67 -46 -137 -110 -214 -192 -342 -264 -467 -264 -96 1 -130 22 -305 192
-170 166 -291 266 -397 327 l-67 39 58 8 c132 16 345 -14 459 -66 75 -33 121
-73 180 -155 61 -87 116 -119 190 -113 36 3 67 13 94 31 44 29 210 218 236
267 l16 31 -56 25 c-126 55 -198 69 -365 69 -131 0 -164 -3 -212 -21 l-57 -21
11 21 c23 45 164 172 223 201 76 38 177 46 254 20 67 -22 161 -92 208 -155 40
-54 53 -61 53 -30 0 41 -43 131 -86 178 -92 103 -208 153 -359 155 -114 2
-192 -21 -364 -108 -178 -88 -238 -109 -306 -103 -112 9 -335 148 -496 308
-73 73 -169 202 -169 227 0 7 30 -7 68 -31 95 -61 193 -109 292 -142 74 -24
101 -28 205 -28 l120 -1 95 46 c122 59 182 74 305 73 138 0 257 -30 468 -118
48 -20 93 -36 100 -36 6 0 -10 21 -38 45 -186 168 -353 235 -586 235 -127 0
-274 -21 -359 -52 -135 -48 -156 -52 -215 -39 -34 8 -83 31 -132 63 -43 29
-102 62 -131 74 l-54 22 76 50 c41 27 99 58 128 68 67 23 181 23 267 0 35 -10
65 -15 68 -13 6 7 -67 62 -117 87 -31 16 -87 28 -190 41 -357 46 -712 128
-997 231 -73 26 -82 32 -73 48 5 10 29 27 53 39 53 25 155 28 237 6 30 -8 57
-15 58 -15 2 0 -18 17 -45 38 -78 62 -154 152 -186 220 -28 60 -29 68 -23 150
20 260 19 274 -7 325 l-24 47 34 0 c41 0 100 -24 131 -53 53 -49 74 -120 92
-320 6 -65 17 -140 24 -166 16 -64 59 -135 97 -162 l31 -22 -8 24 c-5 13 -9
51 -9 85 0 50 5 68 29 104 l28 43 32 -59 c44 -83 120 -155 210 -200 75 -37 76
-37 97 -18 39 35 40 48 9 111 -58 115 -73 198 -74 395 0 98 3 181 7 185 27 26
107 -136 153 -310 44 -169 74 -230 178 -375 86 -120 112 -150 122 -139 15 15
15 104 -1 201 -24 146 -18 245 20 313 26 49 71 102 78 92 2 -2 16 -30 31 -62
16 -34 44 -70 68 -90 103 -83 98 -76 110 -161 7 -55 7 -99 0 -142 -16 -94 5
-160 70 -220 56 -53 217 -157 358 -233 74 -41 173 -98 219 -128 81 -53 196
-157 239 -218 l21 -30 1 25 c1 98 -73 179 -300 329 -252 168 -355 262 -414
380 -49 95 -55 140 -55 377 0 130 -4 238 -10 262 -12 41 -54 99 -107 146 l-29
25 35 1 c21 0 67 -15 109 -35 187 -90 366 -365 455 -700 33 -122 53 -157 154
-265 43 -47 103 -116 132 -155 33 -44 50 -61 46 -45 -80 300 -96 401 -96 607
0 164 17 289 57 418 27 88 119 285 133 285 5 0 20 -35 34 -78z m-1854 -596
c12 -43 18 -81 14 -85 -11 -10 -148 143 -169 189 l-19 43 69 65 70 65 8 -99
c4 -55 16 -134 27 -178z m3933 15 c42 -35 77 -70 77 -77 0 -13 -114 -114 -129
-114 -5 0 -30 12 -56 26 -43 24 -46 29 -41 56 3 15 11 69 17 118 l12 89 21
-17 c12 -9 57 -46 99 -81z m567 -413 c-31 -121 -92 -271 -150 -368 -60 -100
-82 -125 -104 -117 -29 11 -38 57 -33 167 6 124 24 199 52 214 79 44 159 101
201 144 27 28 51 49 52 47 2 -2 -6 -41 -18 -87z m-5155 25 c50 -21 95 -42 102
-46 21 -14 46 -153 41 -236 -5 -84 -31 -154 -61 -159 -23 -5 -84 125 -142 303
-55 170 -60 189 -43 182 7 -3 54 -23 103 -44z"/>
<path d="M2765 8792 c-88 -41 -155 -160 -142 -254 12 -89 102 -168 202 -176
47 -4 57 -1 108 34 31 21 57 42 57 48 0 5 -24 6 -55 3 -76 -8 -117 6 -161 55
l-37 42 93 86 c101 94 102 97 48 147 -34 31 -67 36 -113 15z"/>
<path d="M3185 8759 c-47 -14 -124 -76 -142 -113 -20 -42 -12 -75 27 -119 l29
-34 -54 -53 c-30 -30 -55 -57 -55 -60 0 -4 23 -17 52 -31 73 -34 154 -33 228
5 63 31 108 70 121 104 13 33 -12 85 -56 115 l-36 24 51 43 51 43 -22 23 c-50
53 -126 74 -194 53z m66 -274 c43 -22 50 -30 47 -52 -2 -14 -15 -35 -30 -46
-34 -26 -82 -17 -128 23 l-35 30 40 35 c22 19 44 35 48 35 4 0 30 -11 58 -25z"/>
<path d="M2274 8705 c-40 -35 -45 -44 -29 -45 11 0 31 -7 43 -16 21 -14 22
-22 22 -159 0 -137 1 -144 21 -150 11 -4 31 -4 45 -1 24 6 24 6 24 147 0 184
13 209 77 147 l32 -31 46 37 c25 21 42 42 39 47 -3 6 -9 8 -12 4 -3 -3 -22 11
-43 31 l-37 36 -42 -27 -42 -27 -48 26 -48 26 -48 -45z"/>
<path d="M2115 8709 c-6 -17 -12 -20 -33 -15 -54 12 -160 19 -195 12 -44 -8
-121 -75 -148 -129 -17 -33 -20 -54 -17 -118 4 -93 19 -119 98 -166 63 -39
123 -43 223 -17 l62 16 20 -26 c34 -43 60 -32 30 11 -13 18 -16 60 -15 238 0
199 -7 252 -25 194z m-70 -59 c37 -23 43 -33 60 -112 13 -58 7 -127 -13 -164
-18 -34 -70 -73 -106 -79 -152 -29 -228 232 -100 345 43 37 108 41 159 10z"/>
<path d="M2986 8265 c-4 -11 -21 -15 -64 -15 -89 0 -118 -9 -166 -51 -76 -67
-71 -131 11 -172 26 -13 76 -34 111 -47 98 -35 129 -94 77 -145 -58 -59 -235
-3 -235 74 0 9 -6 26 -14 37 -14 18 -15 18 -22 1 -11 -29 9 -190 24 -195 7 -2
16 5 19 16 6 26 30 32 85 21 110 -21 170 -1 202 66 26 54 30 105 13 147 -20
48 -51 67 -146 87 -85 19 -111 33 -111 61 0 23 42 57 80 65 36 8 110 -23 145
-61 l25 -27 0 45 c0 84 -18 134 -34 93z"/>
<path d="M2497 8188 c-27 -38 -64 -79 -84 -90 -33 -20 -34 -22 -17 -35 10 -7
21 -13 26 -13 4 0 8 -50 8 -110 0 -121 12 -166 51 -194 36 -25 61 -19 97 24
37 45 40 54 12 47 -42 -11 -62 22 -73 121 -6 51 -8 94 -5 97 3 3 35 8 72 12
56 5 66 9 66 25 0 17 -6 19 -57 16 l-58 -3 -3 45 c-2 25 2 62 9 83 7 20 10 39
8 41 -2 2 -26 -28 -52 -66z"/>
<path d="M1824 8131 c-99 -62 -146 -140 -147 -242 0 -72 23 -113 87 -156 37
-26 59 -33 95 -33 43 0 48 3 73 43 l27 42 -54 6 c-112 13 -182 109 -154 212
22 83 64 98 124 46 l36 -32 34 33 34 33 -30 43 c-16 24 -38 44 -47 44 -9 0
-45 -18 -78 -39z"/>
<path d="M2170 8129 c-39 -16 -89 -58 -105 -89 -19 -36 -19 -87 -2 -121 13
-23 11 -28 -15 -59 -47 -57 -32 -136 34 -171 16 -9 25 -6 47 14 24 23 63 47
75 47 2 0 10 -16 16 -35 6 -19 16 -38 22 -41 9 -6 108 82 108 97 0 4 -8 5 -18
2 -38 -9 -45 20 -39 145 7 127 6 132 -51 195 -28 29 -34 31 -72 16z m11 -90
c12 -17 24 -50 27 -74 4 -41 2 -44 -28 -60 -28 -14 -36 -15 -57 -4 -31 17 -56
65 -49 94 7 26 53 75 72 75 7 0 23 -14 35 -31z"/>
<path d="M3212 8100 c-104 -75 -138 -133 -130 -221 6 -59 43 -111 98 -139 59
-30 71 -25 114 41 39 61 42 87 7 55 -51 -46 -161 48 -161 137 0 44 22 60 95
66 55 5 70 10 82 28 14 21 13 23 -25 42 l-40 20 -40 -29z"/>
<path d="M3414 8019 c-57 -55 -66 -70 -35 -62 10 3 28 0 40 -6 19 -11 21 -20
21 -122 l0 -111 31 -29 31 -29 27 23 c15 12 35 32 45 45 17 22 17 23 -13 33
-17 6 -31 16 -32 22 0 7 0 58 1 113 1 91 -1 106 -22 138 -13 20 -27 36 -31 36
-5 0 -33 -23 -63 -51z"/>
<path d="M2678 7587 c-14 -28 -42 -73 -62 -100 -36 -47 -36 -47 -16 -64 17
-15 20 -30 20 -103 0 -111 13 -156 50 -175 40 -21 57 -19 71 8 7 12 25 39 42
60 33 43 31 56 -7 32 -24 -16 -26 -16 -51 9 -22 22 -25 34 -25 89 0 69 6 76
68 77 17 0 23 5 20 18 -2 12 -15 18 -46 20 -48 4 -49 6 -32 107 5 32 6 63 2
67 -4 4 -19 -16 -34 -45z"/>
<path d="M1925 7536 c-78 -51 -131 -116 -150 -181 -21 -71 -13 -121 28 -182
30 -44 116 -113 141 -113 13 0 109 140 101 148 -3 3 -19 -2 -36 -12 -20 -12
-39 -15 -59 -11 -30 7 -80 40 -80 54 0 4 47 45 104 91 l103 83 -33 44 c-18 23
-38 59 -45 78 -7 19 -15 35 -19 34 -3 0 -27 -15 -55 -33z m19 -111 c20 -30 36
-56 36 -59 0 -6 -108 -86 -125 -92 -26 -10 -50 61 -36 107 9 29 69 99 85 99 2
0 20 -25 40 -55z"/>
<path d="M3317 7545 c-52 -27 -107 -76 -113 -101 -4 -13 -1 -44 5 -69 10 -40
9 -47 -14 -81 -37 -54 -35 -132 3 -175 l29 -32 44 30 c24 16 58 35 75 42 30
12 35 10 79 -23 l47 -36 43 37 c47 40 62 73 25 53 -14 -7 -26 -7 -39 -1 -16 9
-20 28 -26 140 l-7 129 -47 51 c-51 55 -61 59 -104 36z"/>
<path d="M2171 7491 l-44 -38 26 -35 c26 -33 27 -40 27 -159 0 -159 3 -169 46
-169 l34 0 0 148 c0 143 1 149 24 171 20 19 27 20 50 10 35 -16 40 -41 33
-175 -6 -101 3 -174 20 -174 2 0 32 21 66 48 58 44 60 47 35 50 l-26 3 -7 137
c-11 204 -37 244 -119 178 -23 -20 -48 -36 -54 -36 -6 0 -22 18 -34 40 -13 22
-25 40 -28 40 -3 0 -25 -18 -49 -39z"/>
<path d="M2910 7474 c-45 -46 -50 -56 -31 -51 13 3 36 0 51 -8 30 -16 37 -45
40 -165 1 -57 5 -69 28 -93 l28 -27 39 40 c39 40 39 40 19 55 -18 12 -22 28
-26 118 -5 92 -9 109 -33 145 -15 23 -35 42 -44 42 -9 0 -41 -25 -71 -56z"/>
<path d="M4510 8863 c-8 -2 -21 -7 -29 -9 -9 -3 -2 -11 20 -22 56 -28 58 -54
15 -186 -20 -63 -40 -117 -45 -120 -8 -6 -85 152 -97 199 -5 20 0 28 30 46 62
36 62 37 -182 60 -67 7 -125 9 -128 6 -13 -12 9 -27 40 -27 18 0 44 -9 58 -19
29 -23 122 -207 188 -375 l48 -119 22 59 c12 33 51 144 85 247 64 191 85 230
131 241 13 4 24 11 24 16 0 10 -152 13 -180 3z"/>
<path d="M5202 8815 c-16 -35 -88 -111 -128 -136 -40 -25 -42 -31 -10 -48 21
-12 24 -22 30 -106 9 -134 24 -205 52 -247 34 -52 54 -49 98 17 43 65 45 79
11 71 -18 -5 -27 -1 -35 14 -11 20 -30 216 -23 236 2 6 46 17 96 23 51 7 96
16 101 21 21 20 -9 30 -96 30 l-90 0 5 53 c3 28 8 62 12 75 10 30 -9 28 -23
-3z"/>
<path d="M4743 8711 c-26 -21 -57 -48 -67 -60 l-19 -21 29 5 c19 4 40 -1 60
-13 l31 -20 6 -121 c6 -111 9 -125 33 -157 22 -28 33 -34 63 -34 31 1 41 7 69
45 17 24 32 46 32 48 0 3 -12 7 -27 11 -16 3 -39 14 -52 24 -22 18 -23 24 -22
134 2 111 1 117 -25 147 -45 54 -56 56 -111 12z"/>
<path d="M5555 8622 c-37 -23 -105 -97 -105 -115 0 -8 9 -22 19 -31 19 -17 19
-18 -4 -63 -37 -69 -40 -103 -15 -161 12 -28 30 -58 39 -66 16 -14 20 -13 55
10 55 38 109 59 114 44 2 -6 15 -23 28 -38 l23 -27 45 50 44 50 -31 33 -31 33
-1 122 0 122 -50 27 c-59 32 -89 35 -130 10z m41 -68 c21 -15 42 -32 46 -38 9
-13 11 -106 2 -106 -18 0 -164 84 -164 95 0 15 54 75 68 75 5 0 27 -12 48 -26z
m1 -146 l53 -22 0 -56 c0 -56 0 -57 -37 -68 -44 -13 -48 -11 -73 38 -20 39
-25 84 -14 114 8 20 8 20 71 -6z"/>
<path d="M4494 8189 c-4 -7 -23 -9 -52 -5 -50 7 -153 -7 -224 -30 -59 -19
-145 -95 -169 -149 -21 -46 -24 -126 -8 -176 38 -112 202 -172 372 -136 65 13
69 13 80 -5 7 -10 15 -18 19 -18 5 0 8 70 8 156 l0 156 -25 -6 c-85 -21 -191
-36 -262 -36 -73 0 -82 2 -88 20 -9 29 11 82 43 113 101 97 285 64 309 -55 12
-60 23 -23 23 77 0 97 -7 124 -26 94z m-178 -294 c183 -21 184 -21 184 -49 0
-13 -10 -38 -22 -56 -74 -108 -232 -86 -312 43 -24 38 -26 49 -16 62 15 18 -2
18 166 0z"/>
<path d="M4884 8124 l-48 -42 -26 28 c-43 46 -70 47 -124 6 -25 -19 -60 -43
-76 -53 -17 -9 -30 -23 -30 -30 0 -18 9 -16 56 9 39 20 43 21 66 6 79 -52 74
-214 -9 -327 l-17 -24 32 17 c18 9 49 39 69 67 l36 50 51 -50 c29 -28 56 -51
62 -51 5 0 34 24 63 54 l53 54 -53 27 c-99 49 -153 121 -130 171 10 23 12 24
33 10 39 -25 89 -29 127 -9 47 24 48 35 5 58 -21 11 -49 31 -64 45 l-28 26
-48 -42z"/>
<path d="M5254 8052 c-115 -75 -158 -151 -139 -245 17 -79 98 -174 157 -183
32 -6 41 -1 113 62 43 37 72 70 66 72 -7 2 -18 -1 -24 -7 -6 -6 -36 -11 -68
-11 -42 0 -65 6 -90 23 -75 50 -99 129 -59 195 28 45 45 49 78 17 24 -24 33
-27 75 -22 26 2 52 8 57 13 6 6 -12 32 -48 67 l-58 58 -60 -39z"/>
<path d="M5644 8020 c-91 -52 -154 -150 -154 -241 0 -67 56 -166 110 -194 44
-23 69 -18 109 18 20 18 46 39 58 48 37 26 78 126 77 189 0 80 -48 160 -116
196 -33 17 -24 19 -84 -16z m15 -74 c15 -8 45 -34 65 -57 38 -41 38 -43 34
-108 -5 -62 -32 -141 -49 -141 -19 0 -119 104 -128 133 -22 70 -17 118 15 156
30 36 27 35 63 17z"/>
<path d="M4065 7384 c8 -276 10 -287 61 -320 24 -16 26 -16 42 7 9 13 32 41
50 61 l33 37 -38 3 -38 3 -3 228 -2 227 -24 0 c-13 0 -38 3 -56 6 l-32 7 7
-259z"/>
<path d="M4867 7592 c-13 -21 -47 -53 -75 -72 -57 -39 -64 -55 -29 -71 22 -10
22 -14 22 -155 l0 -146 33 -29 c45 -40 72 -37 121 13 46 48 54 72 19 59 -13
-4 -30 -6 -38 -3 -33 10 -40 35 -40 144 l0 108 46 0 c38 0 45 3 42 18 -2 11
-15 19 -38 22 -32 5 -35 8 -38 43 -2 22 1 52 7 68 15 43 -3 44 -32 1z"/>
<path d="M4419 7480 c-62 -63 -70 -89 -49 -144 8 -21 5 -33 -15 -61 -50 -75
-53 -144 -7 -202 l17 -23 45 39 c25 21 59 45 77 54 31 17 32 16 62 -13 16 -17
33 -30 38 -30 8 0 70 68 102 114 13 18 13 19 -9 13 -13 -3 -32 1 -46 10 -23
15 -24 21 -24 123 l0 109 -34 35 c-52 56 -84 51 -157 -24z m74 -48 c22 -23 27
-37 27 -80 0 -49 -1 -52 -25 -52 -45 0 -94 27 -101 54 -12 50 17 106 55 106 9
0 29 -13 44 -28z"/>
<path d="M5065 7436 c-46 -40 -48 -44 -27 -50 46 -15 52 -31 52 -146 0 -108 0
-110 31 -145 17 -19 36 -35 43 -35 6 0 46 15 89 34 42 19 77 29 77 23 0 -14
51 -67 64 -67 6 0 24 11 41 24 27 21 28 25 15 41 -12 14 -15 48 -15 146 l0
129 -45 45 -46 45 -49 -50 -49 -50 31 0 c52 0 63 -20 63 -114 0 -50 -5 -87
-12 -94 -15 -15 -89 -15 -123 0 l-26 12 2 113 3 113 -34 35 -35 34 -50 -43z"/>
<path d="M5576 7373 l-59 -47 38 -13 c66 -23 65 -21 65 -184 l0 -149 50 0 50
0 0 149 c0 181 6 192 73 137 24 -20 47 -36 51 -36 11 0 96 73 96 82 0 4 -7 8
-16 8 -9 0 -34 16 -55 35 -22 19 -44 35 -49 35 -6 0 -29 -14 -52 -30 l-42 -31
-31 34 c-54 61 -55 61 -119 10z"/>
<path d="M3748 6236 c-53 -19 -90 -45 -85 -59 4 -13 62 -15 89 -3 15 7 16 4 5
-23 -9 -25 -8 -37 6 -67 l18 -37 -23 7 c-74 20 -74 20 -60 3 22 -27 98 -50
142 -44 45 6 296 127 263 127 -11 0 -66 23 -122 51 -112 57 -171 69 -233 45z"/>
<path d="M16105 9478 c-39 -165 -78 -315 -94 -367 -24 -76 -17 -91 38 -91 35
0 38 3 69 65 39 81 99 147 156 173 59 28 172 42 340 42 107 0 147 -4 162 -14
18 -14 19 -34 22 -683 4 -887 -4 -999 -69 -1033 -11 -6 -65 -17 -121 -23 -108
-13 -126 -23 -115 -68 l6 -24 458 0 458 0 3 37 c4 42 2 43 -103 53 -97 10
-132 26 -153 72 -16 35 -17 108 -20 843 l-3 805 22 18 c18 14 42 17 153 17
268 0 382 -30 430 -113 14 -23 33 -73 43 -112 l19 -70 39 0 40 0 7 125 c6 99
25 262 41 354 1 6 -12 12 -30 14 -25 2 -35 -2 -48 -22 -9 -13 -33 -33 -53 -43
-35 -17 -76 -18 -797 -15 -822 4 -817 4 -831 56 -8 35 -61 38 -69 4z"/>
<path d="M13270 9415 c-25 -25 -69 -57 -97 -72 -39 -19 -53 -31 -53 -47 0 -11
-6 -41 -14 -66 -13 -42 -373 -980 -519 -1351 -114 -290 -129 -310 -253 -330
-80 -14 -101 -30 -90 -72 5 -22 6 -22 316 -22 292 0 312 2 322 19 7 12 7 25 0
41 -9 19 -22 25 -69 30 -32 4 -73 13 -90 21 -28 11 -33 18 -33 46 0 39 166
536 186 558 12 13 57 15 274 15 247 0 260 -1 280 -20 27 -27 190 -504 190
-556 0 -47 -14 -56 -105 -67 -63 -7 -73 -18 -61 -65 l5 -22 383 1 383 1 0 33
c0 39 -10 45 -87 60 -78 15 -118 44 -150 110 -27 54 -468 1328 -562 1625 -27
83 -53 156 -58 163 -20 24 -54 12 -98 -33z m14 -759 c80 -233 103 -313 95
-323 -9 -10 -60 -13 -226 -13 -185 0 -214 2 -220 16 -5 13 190 571 219 628 6
10 14 14 19 9 4 -4 56 -147 113 -317z"/>
<path d="M15011 9450 c-197 -42 -357 -152 -424 -293 -83 -172 -69 -370 36
-529 74 -110 182 -198 402 -323 214 -122 296 -204 337 -338 71 -235 -79 -437
-326 -437 -194 0 -338 113 -467 365 -49 95 -60 110 -83 113 -52 6 -59 -12 -52
-121 7 -118 30 -234 58 -300 25 -58 63 -83 193 -126 199 -66 426 -67 615 -5
97 33 173 80 243 150 100 101 147 222 147 381 0 102 -17 178 -59 261 -72 142
-178 235 -414 362 -87 47 -188 108 -225 136 -187 141 -224 352 -88 502 46 50
107 79 192 91 198 29 361 -74 436 -276 27 -73 35 -83 63 -83 49 0 55 8 55 74
-1 111 -40 329 -62 342 -6 4 -58 18 -117 31 -118 27 -379 40 -460 23z"/>
<path d="M22710 9445 c-136 -29 -226 -73 -313 -155 -212 -198 -209 -532 7
-753 75 -77 160 -138 302 -218 204 -115 294 -193 340 -293 87 -190 31 -383
-134 -463 -51 -25 -68 -27 -167 -28 -103 0 -114 2 -175 31 -122 58 -234 187
-310 357 -37 83 -58 99 -101 77 -21 -12 -22 -16 -16 -119 7 -126 29 -239 60
-301 19 -39 32 -50 97 -83 129 -64 210 -80 405 -81 149 -1 180 2 250 22 132
38 201 78 285 162 111 110 160 229 160 385 0 157 -54 286 -171 409 -83 87
-154 135 -374 252 -102 54 -144 84 -200 139 -97 95 -120 145 -120 255 0 72 4
92 27 135 33 64 80 108 143 137 43 20 66 23 160 23 91 -1 118 -4 157 -22 94
-44 180 -145 223 -266 22 -61 23 -62 64 -65 31 -2 43 1 48 14 14 37 -30 351
-55 391 -5 7 -62 24 -127 39 -148 32 -364 41 -465 19z"/>
<path d="M29412 9450 c-111 -16 -225 -50 -327 -99 -323 -154 -522 -440 -566
-812 -57 -492 207 -920 662 -1072 196 -65 474 -75 671 -24 374 98 630 357 730
740 18 67 22 111 22 242 1 169 -7 224 -51 360 -108 336 -363 567 -711 646
-100 22 -333 33 -430 19z m257 -125 c159 -38 307 -164 398 -340 95 -185 137
-371 136 -615 0 -322 -67 -533 -218 -686 -108 -110 -227 -157 -392 -156 -140
0 -241 34 -349 115 -273 207 -403 743 -289 1192 68 267 238 450 460 495 66 13
186 11 254 -5z"/>
<path d="M32007 9449 c-201 -22 -422 -98 -569 -195 -89 -58 -220 -187 -278
-273 -265 -393 -210 -964 122 -1277 198 -187 458 -280 813 -291 205 -6 290 3
602 64 208 41 218 46 168 93 -43 41 -50 80 -50 295 0 183 2 203 20 235 18 30
29 37 80 49 83 19 90 23 90 62 l0 33 -425 0 -425 1 0 -39 0 -39 107 -18 c202
-34 203 -36 203 -309 0 -237 -5 -256 -76 -284 -66 -27 -197 -38 -294 -26 -360
45 -595 275 -676 660 -28 136 -31 371 -5 503 63 324 243 539 516 617 104 30
290 37 389 16 106 -22 192 -66 262 -132 68 -66 108 -130 140 -227 24 -73 46
-90 88 -67 26 13 26 19 6 249 -24 265 -11 235 -108 249 -45 7 -131 21 -192 32
-130 24 -380 33 -508 19z"/>
<path d="M36220 9409 c-30 -27 -79 -61 -108 -75 -30 -14 -52 -28 -49 -30 2 -3
1 -24 -4 -48 -8 -45 -520 -1383 -590 -1542 -54 -123 -83 -150 -185 -171 -43
-8 -84 -20 -90 -25 -18 -13 -107 24 -168 71 -98 74 -212 232 -434 603 -62 102
-112 194 -112 205 0 12 22 28 70 52 102 49 200 143 246 237 33 66 38 84 42
172 8 165 -37 283 -146 383 -138 127 -350 179 -724 179 -212 0 -609 -20 -630
-31 -18 -10 -24 -45 -10 -65 4 -6 32 -15 62 -18 97 -13 120 -24 141 -70 18
-39 19 -79 19 -788 0 -497 -4 -764 -11 -797 -13 -64 -50 -97 -117 -106 -94
-13 -107 -19 -110 -49 -2 -16 0 -32 5 -37 6 -6 185 -9 408 -9 223 0 402 3 408
9 5 5 7 21 5 37 -3 30 -16 36 -110 49 -67 9 -104 42 -117 106 -16 75 -15 655
1 666 23 14 152 7 185 -10 40 -21 48 -33 185 -272 147 -256 192 -321 297 -425
143 -142 276 -189 496 -175 60 3 252 8 425 11 173 2 318 8 323 13 5 5 7 21 5
37 -2 24 -9 30 -38 37 -156 33 -145 28 -148 72 -2 29 20 108 83 295 48 140 91
260 97 267 8 10 74 13 274 13 250 0 264 -1 282 -20 22 -24 183 -485 189 -544
7 -54 -7 -65 -96 -78 l-71 -10 0 -34 c0 -18 4 -35 10 -39 5 -3 177 -6 382 -6
406 0 406 0 381 54 -9 20 -25 28 -87 41 -41 10 -86 26 -101 38 -49 38 -38 8
-430 1153 -62 182 -141 414 -175 518 -42 129 -67 190 -80 197 -10 6 -20 10
-22 10 -2 -1 -28 -23 -58 -51z m-1998 -141 c109 -50 187 -145 223 -272 25 -85
17 -259 -15 -341 -31 -80 -105 -154 -185 -185 -82 -32 -302 -42 -328 -15 -15
15 -17 54 -17 409 0 404 1 414 40 430 8 3 62 4 120 3 88 -3 114 -8 162 -29z
m2001 -597 c59 -169 107 -315 107 -324 0 -32 -36 -37 -242 -35 -201 3 -203 3
-206 25 -3 23 217 643 228 643 4 0 55 -139 113 -309z"/>
<path d="M9599 9408 c-12 -22 -12 -55 0 -62 5 -3 44 -13 88 -21 92 -18 120
-35 151 -95 20 -39 22 -59 22 -180 0 -74 -4 -205 -10 -290 -5 -85 -16 -292
-25 -460 -23 -445 -41 -616 -74 -679 -22 -43 -73 -71 -146 -78 -47 -5 -56 -9
-61 -29 -3 -12 -1 -30 4 -40 9 -16 36 -17 331 -18 l322 -1 6 24 c10 40 -9 54
-96 73 -144 30 -141 23 -141 405 0 326 19 1024 29 1035 3 4 37 -66 75 -155 38
-89 141 -317 228 -507 188 -406 297 -657 347 -795 36 -99 37 -100 72 -103 l35
-3 58 138 c91 212 210 467 456 972 l225 463 3 -664 c1 -364 0 -677 -3 -695
-10 -57 -34 -75 -126 -93 -88 -17 -97 -25 -85 -73 l5 -22 392 1 392 0 9 23
c15 40 -5 56 -83 68 -85 14 -117 34 -136 87 -22 66 -36 444 -37 1031 -1 520 0
563 17 588 27 41 56 56 153 75 l89 17 0 35 0 35 -286 3 -286 2 -37 -106 c-42
-121 -66 -172 -391 -837 -131 -268 -243 -486 -248 -484 -15 5 -135 245 -349
697 -207 438 -248 540 -269 660 l-12 75 -300 0 c-270 0 -300 -2 -308 -17z"/>
<path d="M18234 9411 c-2 -2 -4 -17 -4 -33 0 -32 16 -41 92 -52 68 -10 104
-44 118 -109 7 -37 10 -291 8 -813 -3 -711 -4 -761 -21 -792 -23 -42 -63 -59
-161 -68 -75 -7 -106 -21 -106 -47 1 -40 -15 -39 781 -41 l764 -1 28 80 c34
95 87 297 87 331 0 17 -8 28 -26 35 -42 15 -61 2 -89 -59 -62 -136 -132 -208
-229 -238 -129 -39 -488 -36 -580 5 -38 16 -51 29 -69 68 -21 46 -22 62 -25
380 l-3 332 22 12 c17 9 75 10 213 7 266 -8 283 -17 311 -162 8 -43 15 -80 15
-82 0 -11 52 -23 70 -16 21 8 21 13 21 317 -1 302 -1 310 -21 317 -11 4 -31 3
-44 -2 -20 -7 -27 -20 -36 -67 -18 -95 -33 -125 -70 -148 -31 -18 -55 -20
-233 -23 -109 -2 -209 -1 -223 2 l-24 6 0 349 c0 328 1 350 19 372 18 23 25
24 173 27 151 4 297 -8 371 -28 74 -21 145 -114 171 -225 10 -41 24 -55 55
-55 54 0 54 0 32 214 -12 109 -21 201 -21 204 0 7 -1359 10 -1366 3z"/>
<path d="M20236 9409 c-77 -5 -145 -14 -153 -20 -16 -14 -17 -53 0 -66 6 -6
39 -13 71 -17 80 -9 107 -24 131 -71 19 -39 20 -59 19 -785 0 -794 -2 -826
-49 -870 -15 -14 -45 -25 -91 -32 -91 -13 -99 -18 -99 -59 l0 -34 410 0 410 0
3 37 c3 40 7 38 -98 54 -65 9 -99 30 -118 72 -15 32 -17 84 -20 360 -2 239 0
327 9 338 15 18 128 19 172 0 47 -19 75 -56 178 -239 131 -230 163 -281 236
-375 108 -138 224 -219 363 -253 60 -15 272 -18 333 -6 34 7 38 11 35 34 -3
21 -12 28 -60 43 -169 52 -281 183 -572 669 -64 107 -116 202 -116 210 0 10
31 32 77 56 105 53 202 149 245 241 32 67 33 73 33 200 0 130 0 130 -37 205
-78 157 -201 241 -433 295 -85 19 -655 28 -879 13z m702 -125 c67 -20 148 -80
193 -143 57 -79 81 -164 81 -286 -1 -216 -81 -340 -252 -393 -71 -21 -269 -24
-293 -3 -15 12 -17 52 -17 405 0 314 3 396 14 411 26 35 172 40 274 9z"/>
<path d="M24796 9408 c-66 -5 -126 -14 -133 -20 -8 -6 -13 -25 -11 -42 3 -30
4 -30 83 -42 44 -6 90 -17 102 -25 53 -33 53 -30 53 -834 0 -494 -4 -761 -11
-794 -13 -61 -50 -96 -111 -106 -102 -15 -99 -13 -96 -53 l3 -37 423 -2 422
-1 0 38 c0 44 15 38 -140 59 -89 12 -112 32 -129 111 -7 34 -11 304 -11 830
l0 780 25 16 c20 13 45 15 132 12 96 -3 116 -7 175 -35 154 -73 238 -220 238
-417 0 -164 -50 -299 -139 -378 -54 -47 -94 -69 -173 -94 -52 -16 -58 -20 -58
-45 0 -43 29 -53 124 -45 125 11 212 34 316 83 203 98 310 266 310 488 0 154
-51 276 -156 375 -105 98 -229 147 -443 176 -120 16 -597 17 -795 2z"/>
<path d="M26765 9410 c-60 -4 -134 -8 -163 -9 -45 -1 -54 -4 -61 -23 -17 -47
0 -62 84 -75 98 -15 120 -35 135 -115 7 -38 10 -305 8 -790 -3 -691 -4 -735
-22 -776 -22 -50 -51 -68 -127 -78 -78 -10 -99 -20 -99 -46 0 -13 4 -28 8 -35
10 -16 814 -16 824 0 10 16 10 39 -1 55 -4 7 -38 17 -75 23 -156 22 -158 28
-163 439 -2 190 0 321 6 329 12 19 106 26 157 12 23 -6 55 -24 70 -41 16 -16
76 -111 133 -212 127 -224 192 -322 268 -411 148 -171 309 -237 553 -224 127
7 142 11 138 44 -2 20 -14 28 -69 47 -163 54 -260 168 -539 632 -77 127 -140
237 -140 243 0 6 24 23 53 37 236 119 346 312 308 540 -42 248 -240 395 -585
433 -103 12 -522 12 -701 1z m680 -144 c182 -90 270 -304 221 -537 -19 -89
-44 -135 -103 -190 -72 -68 -140 -90 -289 -97 -181 -7 -165 -49 -162 429 l3
391 25 20 c22 18 36 20 135 16 97 -3 117 -6 170 -32z"/>
<path d="M37399 9406 c-11 -12 -12 -46 -1 -62 4 -6 38 -17 76 -23 105 -18 151
-50 175 -120 14 -42 14 -224 1 -431 -5 -85 -16 -294 -25 -465 -16 -324 -38
-583 -56 -649 -20 -75 -102 -126 -199 -126 -23 0 -37 -40 -23 -65 9 -15 43
-16 329 -16 346 0 344 -1 331 53 -6 23 -15 27 -74 38 -36 6 -82 18 -100 25
-59 25 -63 47 -63 382 0 345 21 1056 31 1045 4 -4 39 -82 78 -173 38 -91 143
-323 232 -515 178 -385 289 -640 340 -782 28 -75 38 -94 58 -99 13 -3 30 -2
38 3 7 5 47 86 87 179 100 233 341 741 630 1330 l35 70 0 -675 c1 -438 -3
-688 -9 -712 -13 -46 -33 -57 -130 -78 -71 -14 -75 -17 -78 -44 -2 -16 1 -33
6 -38 7 -7 650 -14 781 -8 14 0 21 41 11 61 -7 12 -32 21 -82 29 -94 16 -106
23 -129 75 -28 62 -38 289 -46 985 -6 572 -6 586 14 631 25 55 57 73 169 91
76 13 79 15 82 42 2 16 -1 33 -6 38 -7 7 -118 11 -290 12 l-280 1 -12 -40
c-33 -110 -104 -267 -358 -787 -152 -312 -284 -577 -293 -589 -15 -20 -18 -16
-96 137 -118 231 -440 914 -479 1016 -19 48 -42 126 -51 175 l-17 88 -299 0
c-175 0 -302 -4 -308 -9z"/>
<path d="M41198 9347 c-5 -11 -7 -29 -4 -42 5 -20 16 -24 81 -34 84 -12 116
-28 134 -68 27 -60 32 -217 29 -892 -5 -742 -5 -753 -58 -793 -14 -10 -59 -24
-99 -31 -79 -13 -98 -28 -88 -68 l6 -24 408 1 408 1 0 38 0 39 -76 12 c-94 14
-115 27 -137 84 -16 41 -17 108 -17 815 0 697 2 773 17 807 22 50 50 66 140
79 81 12 96 25 79 71 -7 18 -20 19 -410 21 -382 2 -403 1 -413 -16z"/>
<path d="M42356 9336 c-9 -36 2 -54 37 -61 18 -4 61 -16 96 -27 75 -24 142
-84 162 -144 10 -29 13 -178 15 -589 3 -759 -8 -935 -60 -984 -13 -12 -55 -28
-101 -39 l-80 -18 0 -38 0 -39 333 -1 c362 -1 365 -1 346 51 -8 24 -17 28 -80
39 -128 21 -160 54 -184 189 -16 87 -27 1235 -12 1235 5 0 72 -71 149 -157
295 -333 1083 -1234 1154 -1321 80 -98 104 -110 149 -74 l21 17 0 765 c-1 421
3 813 9 872 17 193 36 228 136 247 94 19 106 26 102 64 l-3 32 -340 0 -340 0
0 -35 0 -35 75 -15 c164 -35 182 -69 200 -378 12 -205 13 -902 1 -920 -6 -10
-73 58 -237 240 -126 139 -292 321 -368 403 -261 280 -541 622 -584 711 l-16
34 -287 0 -287 0 -6 -24z"/>
<path d="M22542 6138 c-7 -7 -12 -18 -12 -26 0 -19 -65 -279 -91 -362 -19 -61
-19 -65 -2 -77 9 -7 29 -13 44 -13 23 0 33 10 64 68 53 95 86 134 142 164 69
37 143 48 339 48 147 0 173 -2 185 -17 12 -13 14 -135 16 -687 2 -900 -4 -995
-64 -1021 -10 -5 -67 -16 -128 -24 -109 -16 -110 -16 -113 -45 -2 -16 1 -33 6
-38 7 -7 177 -10 464 -10 l453 0 0 38 0 39 -50 7 c-27 4 -72 10 -98 13 -68 9
-104 44 -117 114 -6 33 -10 357 -10 827 0 709 1 774 17 789 15 15 39 16 217
12 218 -4 279 -16 334 -62 33 -28 66 -98 83 -174 11 -54 34 -70 77 -57 17 6
20 20 25 135 3 70 13 177 22 236 9 59 14 114 11 121 -10 25 -42 15 -83 -25
-30 -29 -51 -41 -84 -46 -24 -3 -380 -5 -790 -3 -731 3 -747 3 -769 23 -12 11
-26 30 -31 43 -9 24 -38 29 -57 10z"/>
<path d="M11810 6104 c-253 -31 -460 -101 -630 -213 -145 -95 -288 -273 -350
-432 -57 -146 -73 -251 -67 -429 6 -183 26 -269 92 -405 147 -304 430 -492
827 -551 139 -20 408 -15 538 10 144 29 274 67 292 88 40 45 128 327 128 409
0 33 -4 40 -25 45 -39 10 -52 -1 -86 -68 -45 -90 -111 -179 -171 -232 -199
-174 -500 -199 -762 -63 -106 54 -242 188 -303 297 -162 290 -177 730 -34
1024 92 188 258 327 456 381 92 25 265 30 355 11 191 -40 329 -161 398 -347
28 -78 50 -97 93 -80 25 9 26 11 17 73 -4 34 -14 139 -21 233 l-12 169 -90 22
c-188 45 -513 74 -645 58z"/>
<path d="M13860 6100 c-357 -46 -638 -237 -793 -538 -91 -177 -123 -331 -114
-556 4 -112 10 -159 31 -229 115 -387 398 -634 805 -702 147 -25 370 -17 502
18 421 111 716 459 747 881 15 214 -18 412 -98 583 -52 112 -110 192 -208 285
-128 122 -288 204 -477 243 -93 19 -304 27 -395 15z m290 -139 c295 -99 490
-474 490 -939 0 -536 -224 -846 -610 -845 -202 0 -363 86 -486 259 -122 171
-194 434 -194 710 0 461 183 763 505 834 68 15 223 5 295 -19z"/>
<path d="M29992 6081 c-113 -29 -218 -85 -287 -155 -103 -104 -145 -211 -145
-367 0 -108 24 -192 81 -279 76 -119 181 -205 394 -325 201 -114 278 -182 332
-294 21 -44 28 -74 31 -146 5 -114 -18 -184 -84 -249 -65 -66 -134 -90 -259
-90 -92 -1 -105 2 -165 30 -123 58 -248 204 -320 372 -26 62 -31 67 -63 70
-54 5 -59 -8 -47 -144 17 -187 47 -295 95 -332 39 -31 161 -79 245 -96 257
-52 508 -16 678 97 156 105 237 263 236 462 -1 157 -52 280 -168 403 -79 83
-151 133 -321 222 -211 111 -301 187 -350 293 -49 105 -25 257 53 340 60 63
196 105 296 92 144 -20 241 -94 311 -239 25 -51 45 -97 45 -104 0 -17 48 -26
76 -13 23 10 24 13 18 83 -7 91 -30 241 -44 290 -8 26 -18 40 -33 43 -174 42
-212 47 -367 51 -137 3 -177 1 -238 -15z"/>
<path d="M32067 6089 c-440 -64 -774 -303 -902 -644 -84 -221 -89 -504 -15
-725 106 -317 384 -547 759 -631 267 -59 535 -47 843 37 l96 27 30 66 c37 82
68 176 87 266 20 96 19 122 -5 135 -35 19 -59 2 -92 -63 -104 -207 -254 -332
-448 -373 -89 -19 -243 -14 -335 11 -255 70 -457 282 -539 567 -37 129 -49
243 -43 403 13 359 159 616 422 744 112 55 198 74 330 74 279 0 460 -119 553
-366 25 -65 31 -72 57 -75 58 -5 58 -2 41 184 -9 93 -16 193 -16 221 0 30 -6
57 -14 65 -16 17 -180 53 -331 73 -118 16 -383 18 -478 4z"/>
<path d="M39745 6089 c-221 -29 -458 -123 -613 -243 -253 -196 -390 -509 -369
-845 17 -272 107 -474 289 -647 301 -286 792 -376 1323 -241 l130 33 27 49
c35 64 83 207 104 313 18 95 11 115 -39 110 -26 -3 -35 -13 -64 -68 -137 -259
-325 -380 -587 -380 -155 0 -296 44 -422 131 -105 72 -210 203 -269 335 -71
159 -105 392 -86 589 38 392 241 654 570 736 111 28 300 23 403 -10 168 -54
289 -190 352 -393 4 -13 16 -18 38 -18 58 0 58 2 43 150 -7 74 -16 179 -20
232 l-7 97 -51 11 c-153 34 -202 43 -307 56 -125 15 -335 17 -445 3z"/>
<path d="M15428 6044 c-18 -39 3 -57 91 -76 155 -33 176 -69 174 -293 -1 -82
-9 -269 -17 -415 -9 -146 -20 -353 -26 -460 -19 -346 -37 -491 -71 -546 -22
-36 -72 -60 -148 -70 l-51 -7 0 -38 c0 -22 5 -39 10 -39 6 0 150 0 320 0 171
0 315 0 321 0 6 0 9 16 7 38 l-3 37 -79 17 c-43 9 -91 25 -105 36 -45 33 -50
66 -50 357 0 250 23 1053 31 1061 2 1 35 -70 72 -159 38 -89 130 -292 204
-452 189 -409 286 -627 353 -800 58 -151 76 -176 113 -162 9 4 23 21 31 39 8
18 58 132 111 253 85 193 254 548 535 1120 l84 170 3 -70 c2 -38 2 -347 0
-685 -3 -570 -4 -617 -21 -648 -20 -37 -35 -44 -130 -62 -57 -10 -68 -16 -73
-35 -3 -13 -2 -31 3 -40 8 -14 50 -16 398 -16 351 -1 389 1 398 16 5 9 6 27 3
39 -5 20 -16 25 -82 36 -95 16 -128 41 -143 108 -28 119 -55 1452 -32 1548 17
72 50 101 137 119 38 8 79 15 92 15 28 0 49 40 34 65 -9 17 -34 18 -294 19
l-285 1 -12 -46 c-24 -92 -104 -267 -376 -822 -226 -462 -281 -565 -291 -555
-22 22 -355 706 -506 1038 -61 132 -95 239 -112 350 l-6 35 -301 0 c-299 0
-302 0 -311 -21z"/>
<path d="M18493 6060 c-216 -14 -233 -19 -219 -74 5 -21 13 -25 64 -31 93 -10
137 -30 159 -73 17 -35 18 -80 21 -720 3 -694 -2 -853 -32 -911 -20 -39 -40
-49 -124 -64 -63 -11 -67 -14 -70 -41 -2 -16 1 -33 6 -38 5 -5 187 -9 422 -9
378 -1 414 0 422 16 6 9 7 27 4 39 -5 21 -15 24 -103 35 -110 13 -137 27 -161
79 -15 33 -17 114 -20 817 -2 429 0 794 3 811 7 42 38 54 134 54 289 0 473
-232 431 -540 -28 -206 -131 -337 -303 -388 -50 -14 -63 -22 -65 -41 -7 -46
14 -54 123 -48 132 9 211 29 320 81 180 88 280 224 304 413 35 279 -121 506
-403 588 -127 37 -218 46 -506 50 -157 2 -340 0 -407 -5z"/>
<path d="M20148 6047 c-13 -25 -1 -56 25 -62 12 -3 45 -10 72 -15 126 -27 125
-22 125 -629 0 -512 8 -671 40 -799 77 -301 282 -453 652 -482 430 -33 732
133 837 460 47 149 53 217 61 755 5 284 13 530 19 555 5 25 10 48 11 52 0 3
11 20 25 36 19 23 42 34 97 47 40 10 79 22 86 28 15 12 16 53 1 62 -6 4 -157
7 -337 7 -356 0 -360 -1 -335 -55 9 -19 21 -25 63 -30 77 -9 137 -42 160 -87
40 -79 45 -151 45 -670 0 -482 -1 -497 -23 -585 -74 -291 -246 -435 -519 -435
-236 0 -403 123 -477 348 -51 157 -51 161 -51 757 0 507 2 564 17 598 19 43
54 61 133 72 84 11 86 13 83 52 l-3 36 -398 1 c-374 1 -400 0 -409 -17z"/>
<path d="M24663 6053 c-2 -6 -3 -24 -1 -40 3 -26 7 -29 70 -40 37 -7 78 -19
92 -28 51 -34 51 -32 51 -870 0 -731 -1 -782 -18 -816 -23 -46 -50 -58 -160
-72 -77 -9 -90 -14 -99 -33 -6 -14 -7 -28 -1 -38 9 -16 73 -17 771 -19 l762
-2 20 47 c24 56 85 276 95 341 6 40 4 47 -15 57 -44 24 -62 10 -112 -85 -109
-204 -200 -242 -553 -232 -99 3 -197 10 -217 16 -50 16 -94 68 -107 131 -7 31
-11 171 -11 354 0 256 2 305 15 316 11 9 67 11 217 8 170 -3 209 -6 240 -22
41 -20 61 -59 73 -141 13 -87 20 -97 62 -93 l38 3 0 315 0 315 -30 3 c-16 1
-35 -1 -42 -6 -7 -4 -19 -41 -28 -82 -30 -144 -45 -152 -306 -158 -138 -3
-202 -1 -217 7 -22 12 -22 12 -22 361 0 337 1 351 20 370 19 19 33 20 213 20
220 -1 329 -16 386 -53 40 -27 90 -111 112 -187 18 -66 52 -87 93 -57 16 12
16 23 -4 212 -12 110 -23 201 -24 202 -2 2 -308 4 -681 6 -509 1 -679 -1 -682
-10z"/>
<path d="M26826 6060 c-307 -13 -325 -17 -326 -67 0 -29 8 -33 88 -44 79 -11
109 -29 128 -74 22 -53 21 -1519 -1 -1593 -20 -65 -41 -80 -142 -95 l-78 -12
0 -39 0 -39 410 0 410 0 0 39 0 38 -78 12 c-43 7 -88 19 -102 28 -46 30 -50
66 -50 421 l0 330 78 3 c132 5 141 -4 292 -273 186 -333 308 -481 457 -556 88
-45 166 -59 313 -58 157 1 180 6 180 39 0 20 -9 27 -60 45 -33 12 -76 29 -95
39 -61 32 -173 157 -267 298 -118 176 -323 520 -323 541 0 11 25 30 68 51 139
70 234 174 274 300 16 49 19 82 16 167 -4 97 -7 113 -41 183 -79 166 -228 259
-482 301 -112 19 -420 26 -669 15z m496 -121 c108 -23 189 -79 249 -171 55
-86 72 -163 67 -300 -4 -101 -8 -121 -35 -178 -39 -83 -81 -125 -163 -164 -60
-28 -75 -31 -198 -34 -95 -3 -136 -1 -147 8 -13 11 -15 69 -15 404 0 422 1
429 53 439 45 9 138 7 189 -4z"/>
<path d="M33274 6046 c-3 -8 -4 -25 -2 -38 3 -20 12 -25 85 -39 89 -17 105
-26 131 -73 16 -28 17 -99 17 -816 0 -720 -1 -788 -17 -823 -20 -45 -57 -63
-149 -74 l-64 -8 0 -39 0 -40 410 0 410 0 3 28 c5 40 -11 53 -80 60 -77 9
-113 27 -135 69 -17 30 -18 87 -21 791 -2 522 1 776 8 813 14 66 50 99 118
108 100 14 107 18 107 56 l0 34 -408 3 c-347 2 -408 0 -413 -12z"/>
<path d="M34474 6046 c-3 -8 -4 -25 -2 -38 3 -20 12 -25 68 -36 36 -7 76 -21
90 -31 57 -41 55 -8 55 -861 0 -720 -1 -788 -17 -823 -22 -48 -57 -63 -166
-72 -73 -7 -85 -10 -94 -30 -7 -15 -7 -29 -1 -40 9 -16 63 -17 774 -18 l763 0
29 79 c32 89 87 297 87 332 0 25 -40 46 -71 37 -10 -3 -34 -38 -53 -78 -53
-111 -96 -161 -168 -196 -92 -45 -155 -53 -382 -49 -182 3 -206 5 -249 25 -39
18 -52 31 -70 70 -21 46 -22 62 -25 380 l-3 332 22 12 c16 8 76 10 213 7 266
-7 283 -16 311 -163 8 -42 18 -81 21 -86 3 -5 23 -9 45 -9 l39 0 0 314 c0 301
-1 315 -19 321 -11 3 -30 3 -44 0 -21 -6 -26 -17 -41 -87 -32 -148 -37 -150
-299 -156 -108 -2 -208 -1 -222 2 l-25 6 0 353 c0 193 4 357 8 364 16 25 69
33 220 33 245 -1 347 -19 409 -73 35 -31 82 -119 97 -182 10 -41 24 -55 55
-55 54 0 54 0 32 214 -12 109 -21 202 -21 207 0 5 -276 9 -680 9 -580 0 -681
-2 -686 -14z"/>
<path d="M36235 6052 c-3 -3 -5 -18 -5 -34 0 -32 1 -33 120 -68 62 -18 83 -30
121 -69 32 -33 49 -62 57 -94 15 -58 16 -1238 2 -1376 -19 -178 -29 -192 -152
-220 -79 -18 -98 -35 -81 -73 l10 -23 334 0 334 0 3 28 c4 35 -13 57 -44 57
-54 0 -127 23 -158 51 -37 32 -51 73 -66 189 -13 100 -25 946 -15 1083 6 96 9
106 23 95 31 -26 1136 -1284 1296 -1475 74 -89 98 -100 144 -67 l23 16 -6 491
c-8 592 6 1206 28 1287 19 68 49 95 124 110 32 6 66 14 75 16 20 6 32 37 23
64 -6 18 -18 19 -345 19 -328 0 -339 0 -345 -19 -14 -43 2 -56 87 -73 45 -9
94 -25 108 -35 33 -24 56 -73 71 -147 13 -72 25 -1115 12 -1115 -12 0 -116
108 -284 295 -78 88 -216 239 -305 335 -279 302 -514 586 -588 712 l-26 45
-285 0 c-156 0 -287 -2 -290 -5z"/>
<path d="M40955 6042 c-17 -45 10 -72 73 -72 15 0 46 -9 68 -19 34 -16 45 -28
60 -67 18 -46 19 -90 19 -804 0 -572 -3 -765 -12 -796 -21 -68 -48 -85 -158
-99 -53 -7 -101 -17 -106 -22 -6 -6 -9 -23 -7 -38 l3 -28 767 -2 767 -1 25 70
c33 93 62 194 80 281 13 60 13 72 1 84 -13 13 -71 20 -78 10 -2 -2 -20 -40
-41 -83 -51 -104 -121 -176 -200 -205 -85 -31 -242 -44 -411 -32 -81 5 -156
15 -176 24 -42 17 -74 55 -90 106 -16 47 -24 660 -10 681 9 13 43 15 211 14
289 -2 305 -10 331 -168 11 -67 17 -79 37 -87 13 -5 33 -7 45 -4 l22 6 0 312
-1 312 -41 3 c-47 3 -42 12 -73 -124 -22 -100 -62 -114 -327 -114 -183 0 -193
1 -203 20 -7 14 -10 130 -8 360 3 310 5 341 21 357 16 16 39 18 235 17 353 -1
402 -23 471 -222 24 -68 30 -77 54 -80 14 -2 34 1 44 7 18 9 18 16 -3 213 -13
112 -23 203 -23 203 -1 0 -307 0 -681 0 -557 0 -681 -2 -685 -13z"/>
<path d="M9440 2970 l0 -40 17685 0 17685 0 0 40 0 40 -17685 0 -17685 0 0
-40z"/>
<path d="M11032 1483 c-17 -69 -29 -130 -26 -135 11 -17 31 -6 46 26 26 53 76
104 116 117 21 7 94 13 167 13 l130 1 3 -475 c2 -488 0 -520 -37 -539 -9 -5
-42 -12 -73 -16 -48 -6 -58 -11 -58 -26 0 -18 11 -19 235 -19 224 0 235 1 235
19 0 15 -10 20 -51 26 -30 4 -61 16 -77 30 l-27 23 -3 477 c-2 376 0 480 10
492 20 24 257 13 320 -15 53 -23 58 -30 73 -97 9 -39 16 -50 31 -50 17 0 20
10 25 100 4 55 10 117 14 138 9 44 -3 48 -39 12 l-25 -25 -441 0 -441 0 -25
25 c-14 14 -31 25 -38 25 -8 0 -24 -48 -44 -127z"/>
<path d="M26555 1487 c-35 -145 -35 -141 -13 -145 11 -2 24 10 37 36 29 58 72
99 117 111 21 6 96 11 165 11 107 0 128 -3 133 -16 8 -22 6 -836 -3 -907 -9
-75 -29 -95 -106 -105 -45 -5 -61 -11 -63 -25 -3 -16 14 -17 238 -17 225 0
241 1 238 17 -2 12 -14 19 -33 21 -67 7 -102 22 -115 49 -11 22 -15 125 -18
461 -2 238 -1 454 3 478 l6 46 152 -4 c202 -4 225 -17 251 -140 5 -19 13 -28
26 -28 18 0 20 7 20 54 0 30 5 89 11 132 12 88 4 106 -31 69 l-23 -25 -444 0
-444 0 -25 25 c-14 14 -30 25 -37 25 -7 0 -24 -50 -42 -123z"/>
<path d="M24780 1587 c-76 -18 -130 -48 -174 -97 -53 -59 -69 -103 -70 -185 0
-133 57 -210 249 -338 181 -120 220 -165 232 -265 17 -144 -86 -243 -238 -229
-110 10 -195 76 -245 192 -27 62 -49 81 -60 51 -8 -21 25 -197 41 -223 23 -35
118 -65 226 -71 255 -13 402 104 402 320 0 134 -76 236 -265 353 -131 81 -172
117 -202 177 -40 79 -30 157 27 217 37 40 85 54 171 49 100 -5 146 -35 188
-124 22 -48 35 -64 50 -64 20 0 20 4 14 68 -4 37 -12 85 -17 107 -10 40 -11
41 -77 54 -102 19 -191 22 -252 8z"/>
<path d="M33806 1584 c-304 -68 -490 -285 -490 -574 0 -274 164 -478 441 -551
136 -36 355 -28 496 17 38 13 51 23 66 53 27 52 64 178 56 191 -14 22 -34 8
-63 -43 -69 -122 -184 -188 -327 -188 -231 -1 -395 117 -471 337 -24 69 -28
95 -28 204 -1 103 3 138 21 195 47 148 143 249 280 296 55 20 89 24 178 24
105 0 114 -2 177 -33 77 -37 120 -84 147 -157 14 -37 24 -51 41 -53 21 -4 22
-1 17 35 -3 21 -9 77 -13 126 -6 78 -9 88 -28 92 -178 43 -385 55 -500 29z"/>
<path d="M37600 1585 c-288 -58 -477 -260 -497 -531 -21 -296 161 -533 462
-600 141 -31 334 -22 476 24 l54 17 28 73 c15 40 30 93 34 117 5 40 4 45 -14
45 -13 0 -26 -15 -41 -45 -43 -90 -128 -160 -220 -185 -68 -18 -199 -14 -270
9 -153 47 -258 157 -318 331 -15 44 -19 84 -19 195 0 121 3 149 23 208 39 113
117 204 219 256 154 78 388 61 488 -36 35 -34 85 -122 85 -150 0 -7 12 -13 26
-13 19 0 24 4 20 18 -3 9 -8 55 -11 102 -9 125 -10 128 -53 140 -132 38 -352
49 -472 25z"/>
<path d="M38980 1575 c-13 -13 -31 -27 -42 -31 -11 -3 -18 -15 -18 -29 0 -25
-139 -400 -281 -761 -50 -127 -88 -209 -104 -224 -16 -15 -41 -24 -75 -28 -41
-4 -50 -8 -50 -24 0 -18 9 -18 178 -16 149 3 177 5 177 18 0 10 -14 17 -48 21
-53 6 -69 21 -60 59 12 54 96 306 106 318 7 9 53 12 186 10 l176 -3 52 -155
c70 -208 70 -219 -12 -230 -27 -3 -41 -11 -43 -22 -3 -17 12 -18 202 -18 113
0 207 4 210 8 10 16 -10 29 -52 35 -24 3 -53 14 -64 24 -34 30 -68 116 -233
606 -90 267 -163 467 -170 467 -6 0 -22 -11 -35 -25z m45 -385 c37 -111 64
-207 61 -215 -4 -12 -32 -15 -146 -15 -125 0 -140 2 -140 17 0 9 30 98 66 197
65 177 81 216 89 216 2 0 33 -90 70 -200z"/>
<path d="M40228 1590 c-219 -39 -381 -149 -461 -313 -67 -134 -83 -272 -47
-411 27 -105 63 -169 141 -248 167 -167 427 -220 754 -154 77 16 142 30 144
32 2 2 -6 15 -18 30 -19 24 -21 39 -21 161 0 129 1 135 25 158 13 14 36 25 50
25 18 0 25 5 25 20 0 19 -7 20 -215 20 -200 0 -215 -1 -215 -18 0 -15 14 -20
76 -29 108 -16 109 -16 109 -177 0 -118 -2 -136 -19 -155 -27 -30 -83 -42
-190 -42 -152 1 -268 49 -358 150 -116 131 -168 381 -118 574 34 137 110 234
222 287 85 40 157 53 263 48 150 -8 237 -62 290 -179 20 -45 31 -59 47 -59 18
0 20 4 14 38 -3 20 -9 76 -12 123 l-7 86 -91 18 c-100 20 -315 28 -388 15z"/>
<path d="M41544 1581 c-202 -55 -355 -199 -414 -390 -101 -323 77 -651 400
-737 79 -21 233 -23 310 -5 200 48 362 199 422 396 26 83 30 240 9 325 -46
190 -176 336 -355 398 -100 34 -271 40 -372 13z m241 -46 c113 -30 205 -109
263 -228 42 -84 61 -170 68 -297 10 -181 -33 -318 -130 -415 -86 -86 -190
-119 -324 -103 -220 25 -374 234 -389 528 -13 270 97 460 297 514 72 19 142
20 215 1z"/>
<path d="M30420 1581 c-119 -17 -254 -79 -331 -154 -192 -185 -241 -466 -124
-705 65 -130 173 -224 323 -279 90 -34 265 -43 366 -19 276 65 458 317 443
611 -13 260 -174 468 -410 529 -71 19 -197 27 -267 17z m232 -83 c165 -76 262
-253 275 -504 17 -320 -143 -534 -401 -534 -252 0 -431 211 -452 535 -14 218
63 399 203 482 73 42 120 53 223 50 78 -2 105 -8 152 -29z"/>
<path d="M19317 1574 c-4 -4 -7 -15 -7 -24 0 -14 11 -19 51 -22 34 -4 58 -12
72 -27 22 -21 22 -25 25 -469 2 -294 -1 -459 -7 -483 -12 -39 -33 -52 -103
-64 -29 -4 -38 -11 -38 -25 0 -19 8 -20 220 -20 209 0 220 1 220 19 0 19 -25
31 -67 31 -12 0 -35 11 -50 24 l-28 24 -3 444 c-3 481 0 511 48 535 14 7 42
13 63 13 30 0 37 4 37 20 0 19 -7 20 -199 20 -110 0 -206 2 -213 5 -8 3 -17 2
-21 -1z"/>
<path d="M20380 1570 c-163 -4 -195 -7 -195 -20 0 -9 14 -17 37 -21 53 -8 85
-33 112 -87 36 -72 345 -835 376 -932 24 -71 32 -85 50 -85 18 0 30 22 79 150
133 342 386 890 429 928 11 10 42 22 69 25 36 6 48 11 48 25 0 9 -3 17 -7 17
-5 0 -84 0 -178 0 -163 0 -170 -1 -170 -20 0 -14 7 -20 24 -20 43 0 86 -21 86
-42 0 -28 -270 -684 -323 -783 l-15 -30 -32 70 c-78 173 -283 703 -284 735 -1
33 0 35 49 45 32 7 51 17 53 27 2 9 -1 18 -5 20 -4 1 -96 1 -203 -2z"/>
<path d="M34716 1572 c-17 -16 -2 -31 37 -37 112 -17 107 9 107 -529 0 -503 4
-481 -81 -501 -28 -7 -45 -17 -47 -28 -3 -16 14 -17 213 -17 200 0 216 1 213
17 -2 13 -17 20 -49 24 -104 15 -110 35 -107 300 l3 193 25 7 c40 11 565 10
595 -1 l26 -10 -3 -220 c-3 -250 -4 -251 -88 -267 -30 -6 -46 -14 -48 -26 -3
-16 14 -17 213 -17 201 0 216 1 213 17 -2 10 -14 19 -28 21 -14 2 -40 8 -58
14 -61 19 -62 28 -62 500 0 266 4 437 11 461 11 40 27 51 92 62 27 4 37 11 37
24 0 17 -14 18 -207 17 -187 -1 -208 -3 -211 -18 -2 -13 6 -18 35 -23 59 -10
83 -22 93 -51 6 -14 10 -110 10 -213 0 -187 0 -189 -22 -195 -40 -10 -588 -7
-609 4 -18 10 -19 23 -19 183 0 240 6 256 103 272 29 5 37 10 35 23 -3 15 -24
17 -210 18 -114 1 -209 -1 -212 -4z"/>
<path d="M36310 1559 c0 -13 10 -20 38 -24 62 -11 72 -16 90 -43 15 -23 17
-67 20 -402 2 -206 1 -413 -3 -458 -8 -100 -22 -118 -95 -128 -40 -5 -50 -10
-50 -25 0 -18 12 -19 215 -19 208 0 215 1 215 20 0 14 -7 20 -22 20 -49 0 -95
20 -109 48 -10 21 -14 108 -17 387 -5 444 1 539 34 572 13 12 34 23 48 23 39
0 76 18 70 33 -4 11 -46 14 -219 14 -200 0 -215 -1 -215 -18z"/>
<path d="M21730 1543 c0 -19 6 -23 30 -23 41 0 76 -18 89 -47 15 -32 15 -897
1 -940 -12 -33 -45 -53 -90 -53 -40 0 -60 -9 -60 -29 0 -15 38 -16 424 -17
l425 0 17 44 c25 66 54 165 54 185 0 37 -38 18 -68 -35 -37 -65 -86 -116 -121
-126 -14 -4 -99 -7 -188 -7 -148 0 -164 2 -190 21 -43 32 -53 91 -51 294 l3
175 147 0 c169 0 173 -2 193 -82 9 -36 17 -49 33 -51 21 -3 21 0 21 172 0 166
-1 176 -19 176 -19 0 -25 -10 -35 -72 -12 -65 -29 -72 -181 -76 -97 -3 -138
-1 -149 8 -22 18 -22 422 0 440 11 9 58 11 172 9 196 -5 212 -12 261 -112 20
-41 39 -67 49 -67 14 0 15 11 9 83 -3 45 -9 98 -12 117 l-6 35 -379 0 -379 0
0 -22z"/>
<path d="M12430 1540 c0 -15 7 -20 29 -20 15 0 42 -5 59 -11 56 -19 57 -29 57
-519 0 -409 -1 -448 -18 -473 -9 -15 -30 -29 -45 -33 -47 -10 -74 -24 -69 -37
5 -17 417 -23 428 -5 12 19 2 26 -49 34 -100 14 -103 22 -100 289 l3 209 45 9
c25 4 166 6 313 5 253 -3 269 -4 283 -22 27 -38 13 -431 -17 -461 -8 -9 -38
-21 -65 -28 -31 -8 -49 -17 -49 -27 0 -13 31 -15 213 -18 205 -2 212 -2 212
17 0 16 -9 21 -47 27 -76 11 -90 32 -98 156 -11 155 -1 807 13 840 11 26 46
43 102 50 14 2 26 11 28 21 3 16 -10 17 -210 15 -181 -3 -213 -5 -213 -18 0
-9 11 -16 25 -18 107 -13 115 -31 115 -270 0 -152 -3 -184 -15 -192 -16 -11
-580 -14 -617 -4 -23 6 -23 8 -23 200 0 124 4 202 11 218 12 25 46 42 99 48
14 2 25 9 25 18 0 13 -31 15 -212 18 -208 2 -213 2 -213 -18z"/>
<path d="M14050 1541 c0 -14 10 -20 42 -24 66 -9 84 -36 92 -144 9 -122 6
-712 -4 -793 -10 -78 -27 -95 -105 -105 -45 -5 -55 -10 -55 -26 0 -19 10 -19
427 -17 l427 3 33 95 c37 110 42 150 16 150 -11 0 -31 -24 -53 -61 -45 -79
-87 -116 -144 -124 -24 -4 -106 -5 -183 -3 -153 3 -184 14 -204 66 -17 43 -24
383 -10 411 12 22 15 23 151 19 157 -3 174 -11 185 -78 8 -49 29 -79 45 -64 7
7 10 67 8 180 -3 142 -5 169 -18 169 -10 0 -19 -19 -28 -55 -20 -84 -22 -84
-184 -89 -127 -3 -143 -1 -155 15 -16 22 -19 378 -3 420 l11 27 157 -5 c210
-7 247 -24 282 -131 12 -37 30 -54 48 -44 8 5 -2 155 -13 205 l-5 22 -380 0
c-364 0 -380 -1 -380 -19z"/>
<path d="M17592 1543 c2 -11 20 -20 53 -28 64 -15 91 -32 110 -71 13 -27 15
-96 15 -421 0 -403 -7 -509 -35 -529 -9 -7 -39 -15 -66 -19 -39 -6 -49 -11
-47 -24 3 -14 25 -16 198 -16 164 0 195 2 195 15 0 9 -19 18 -55 26 -82 17
-88 21 -100 72 -15 61 -26 770 -12 784 6 6 39 -25 93 -89 46 -54 210 -242 364
-418 154 -176 298 -342 319 -368 70 -85 68 -96 67 403 -1 245 3 483 9 530 11
98 24 115 95 126 35 5 45 10 45 25 0 18 -11 19 -195 19 -184 0 -195 -1 -195
-19 0 -14 10 -20 43 -24 74 -10 95 -23 108 -64 15 -46 26 -753 12 -753 -11 0
-112 110 -362 393 -201 227 -321 371 -354 429 l-22 38 -143 0 c-129 0 -143 -2
-140 -17z"/>
<path d="M23128 1553 c-29 -3 -38 -9 -38 -23 0 -14 10 -21 38 -25 62 -11 68
-14 81 -43 17 -35 27 -530 16 -765 -8 -195 -11 -202 -95 -220 -36 -8 -55 -17
-55 -27 0 -13 32 -15 215 -15 193 0 215 2 218 17 2 13 -7 18 -43 23 -66 10
-87 31 -96 96 -10 75 -11 341 0 358 12 18 142 11 166 -9 10 -8 68 -91 130
-185 127 -194 202 -273 284 -300 51 -17 189 -24 210 -11 16 10 4 26 -20 26
-72 0 -196 126 -343 348 -58 88 -106 166 -106 175 0 8 24 29 54 45 109 62 162
159 154 283 -8 113 -64 185 -180 232 -49 19 -73 21 -303 23 -137 1 -267 0
-287 -3z m457 -60 c175 -59 223 -326 81 -451 -43 -37 -83 -47 -199 -47 -67 0
-90 4 -97 15 -5 8 -10 116 -10 242 0 193 2 229 16 242 21 22 145 21 209 -1z"/>
<path d="M25642 1543 c2 -11 14 -19 28 -21 62 -6 98 -22 109 -50 8 -20 11
-159 9 -491 l-3 -463 -22 -18 c-13 -10 -46 -21 -73 -25 -40 -6 -50 -11 -48
-24 3 -14 27 -16 223 -16 187 0 220 2 220 15 0 10 -19 19 -55 27 -72 16 -87
35 -95 126 -12 130 -2 849 13 874 12 21 58 40 112 45 14 2 25 9 25 18 0 13
-33 15 -223 18 -209 2 -223 1 -220 -15z"/>
<path d="M27910 1541 c0 -15 10 -21 43 -26 23 -4 50 -12 60 -17 29 -15 75 -95
208 -358 l124 -245 3 -160 c4 -167 -5 -227 -36 -244 -9 -5 -41 -12 -69 -16
-43 -6 -53 -11 -53 -26 0 -18 11 -19 235 -19 224 0 235 1 235 19 0 16 -10 20
-59 26 -45 5 -65 13 -83 32 -22 23 -23 33 -27 189 -2 105 1 182 9 212 6 26 71
150 143 277 148 258 194 315 267 331 30 6 46 15 48 27 3 16 -10 17 -167 17
-93 0 -172 -4 -175 -8 -10 -16 10 -30 52 -37 25 -4 46 -14 49 -23 7 -16 -36
-104 -163 -337 -110 -201 -93 -193 -153 -78 -90 171 -193 393 -189 410 2 11
20 21 48 28 29 7 46 17 48 28 3 16 -14 17 -197 17 -191 0 -201 -1 -201 -19z"/>
<path d="M31450 1540 c0 -14 7 -20 24 -20 38 0 86 -21 99 -44 14 -24 24 -722
12 -865 -8 -100 -26 -124 -98 -135 -37 -6 -47 -11 -47 -27 0 -18 9 -19 225
-19 216 0 225 1 225 19 0 16 -10 21 -55 26 -87 11 -99 26 -107 137 -8 125 -9
288 -2 327 l7 31 147 0 c174 0 187 -6 209 -89 10 -39 17 -51 32 -51 18 0 19
10 19 176 0 160 -2 175 -17 172 -11 -2 -23 -22 -33 -55 -25 -87 -27 -88 -202
-88 l-152 0 -9 40 c-5 22 -7 125 -5 228 3 151 7 190 18 198 9 6 70 9 156 6
193 -6 227 -24 259 -129 9 -31 17 -43 31 -43 14 0 19 7 18 25 -1 14 -2 64 -3
113 l-1 87 -375 0 c-368 0 -375 0 -375 -20z"/>
<path d="M15977 1543 c-19 -18 -3 -31 45 -36 96 -12 92 6 99 -405 8 -445 16
-487 115 -592 135 -145 457 -157 631 -24 48 36 89 102 119 190 27 78 27 85 34
414 4 204 11 345 18 362 13 32 38 47 95 56 27 5 42 13 42 22 0 13 -30 15 -195
15 -163 0 -195 -2 -195 -14 0 -10 18 -19 54 -25 73 -15 89 -38 101 -146 16
-140 13 -508 -6 -597 -27 -132 -77 -210 -166 -258 -44 -24 -68 -30 -140 -33
-185 -9 -294 68 -343 243 -14 47 -18 119 -22 338 -8 416 -3 440 97 453 40 5
50 10 50 25 0 18 -12 19 -213 19 -118 0 -217 -3 -220 -7z"/>
</g>
</svg>
