 <svg version="1.0" xmlns="http://www.w3.org/2000/svg" width="700.000000pt" height="467.000000pt" viewBox="0 0 700.000000 467.000000" preserveAspectRatio="xMidYMid meet">
<metadata>
Created by potrace 1.12, written by Peter Selinger 2001-2015
</metadata>
<g transform="translate(0.000000,467.000000) scale(0.100000,-0.100000)" fill="white" stroke="none">
<path d="M1727 2945 c-42 -63 -77 -118 -77 -120 0 -3 -34 -55 -75 -115 -41
-60 -75 -112 -75 -115 0 -3 -29 -49 -64 -103 -35 -53 -90 -137 -122 -187 -33
-49 -62 -98 -66 -108 -4 -10 -20 -33 -34 -52 -28 -37 -26 -69 3 -63 9 2 26 19
37 39 12 20 48 76 80 125 32 49 79 119 103 156 24 37 81 125 127 195 45 71 89
139 96 153 7 14 22 36 32 50 32 42 138 210 138 218 0 5 -6 16 -13 26 -11 15
-21 4 -90 -99z"></path>
<path d="M1962 3017 c-12 -13 -22 -26 -22 -30 0 -3 -20 -34 -44 -69 -71 -102
-166 -258 -166 -273 0 -23 20 -28 41 -9 10 9 19 21 19 27 0 5 14 26 30 47 17
21 30 41 30 45 0 4 25 43 55 87 30 44 55 82 55 84 0 2 12 22 26 44 39 58 20
94 -24 47z"></path>
<path d="M2102 2949 c-9 -17 -32 -50 -49 -74 -18 -24 -33 -46 -33 -50 0 -3
-16 -28 -35 -55 -19 -27 -35 -53 -35 -57 0 -4 -12 -24 -26 -44 -26 -38 -29
-74 -7 -74 11 0 183 245 183 260 0 4 14 27 31 51 17 25 28 52 25 60 -9 24 -36
16 -54 -17z"></path>
<path d="M3845 2941 c-98 -26 -202 -103 -231 -170 -9 -20 -21 -46 -26 -57 -6
-12 -8 -64 -6 -115 4 -115 24 -161 92 -217 57 -48 237 -122 294 -122 11 0 24
-4 27 -10 3 -5 17 -10 30 -10 38 0 155 -52 178 -79 29 -33 39 -86 24 -123 -31
-72 -84 -106 -180 -114 -113 -11 -239 32 -344 115 l-51 40 -59 -70 c-32 -38
-59 -74 -61 -79 -7 -19 157 -119 243 -148 105 -36 309 -48 391 -23 120 38 206
106 243 194 30 70 30 219 0 282 -36 76 -141 148 -269 184 -25 7 -55 17 -68 22
-13 5 -34 9 -47 9 -13 0 -27 5 -30 10 -3 6 -17 10 -31 10 -13 0 -32 4 -42 9
-9 5 -33 16 -52 25 -114 49 -119 184 -10 245 88 49 265 20 380 -63 l49 -36 24
33 c82 112 87 120 75 134 -18 22 -119 78 -184 102 -47 18 -86 23 -194 26 -74
3 -148 1 -165 -4z"></path>
<path d="M208 2353 c-2 -324 -3 -589 -3 -590 0 -1 47 -3 104 -4 l104 -3 -2
175 c-1 96 1 182 4 192 6 15 24 17 176 17 92 0 178 4 191 9 13 5 43 15 68 22
57 16 140 70 181 117 18 20 43 61 57 91 23 49 26 70 27 162 0 60 -5 116 -11
130 -7 13 -18 40 -25 59 -15 41 -102 128 -150 151 -115 55 -149 59 -449 59
l-270 0 -2 -587z m589 371 c79 -41 116 -100 116 -185 -1 -86 -38 -143 -118
-184 -56 -29 -65 -30 -207 -33 -106 -3 -153 0 -163 8 -20 17 -22 399 -2 419 9
10 48 12 164 9 145 -5 156 -6 210 -34z"></path>
<path d="M1525 2918 c-9 -13 -39 -60 -68 -104 -77 -120 -219 -341 -244 -380
-25 -38 -29 -59 -13 -69 13 -8 36 10 53 41 6 12 53 84 102 160 50 75 118 180
153 233 59 90 72 129 45 138 -6 2 -19 -6 -28 -19z"></path>
<path d="M2637 2933 c-4 -3 -7 -269 -7 -590 l0 -583 415 0 415 0 0 90 0 90
-307 2 -308 3 -3 498 -2 497 -98 0 c-54 0 -102 -3 -105 -7z"></path>
<path d="M4595 2928 c-3 -7 -4 -272 -3 -588 l3 -575 100 0 100 0 5 172 5 173
85 85 c46 47 90 85 96 85 7 0 21 -15 32 -32 12 -18 98 -134 192 -258 l170
-225 118 -5 c64 -3 121 -2 126 2 6 5 -1 19 -16 35 -14 16 -79 100 -145 188
-65 88 -139 186 -163 217 -38 48 -108 140 -159 209 -17 24 -17 23 256 304
l215 220 -122 3 c-116 2 -124 1 -148 -20 -13 -13 -135 -141 -269 -285 -135
-145 -252 -263 -259 -263 -11 0 -14 53 -16 283 l-3 282 -98 3 c-72 2 -99 -1
-102 -10z"></path>
<path d="M5660 2935 c0 -3 38 -62 85 -131 47 -70 85 -128 85 -130 0 -2 68
-105 151 -231 l150 -228 -2 -225 -2 -225 102 -3 101 -3 0 232 0 232 42 66 c37
59 126 196 345 527 40 62 73 115 73 118 0 3 -51 6 -114 6 l-114 0 -53 -82
c-82 -130 -112 -176 -175 -275 -32 -51 -66 -105 -75 -120 -9 -16 -22 -28 -30
-28 -7 0 -33 32 -56 70 -24 39 -78 124 -120 190 -42 66 -94 148 -116 183 l-39
62 -119 0 c-66 0 -119 -2 -119 -5z"></path>
<path d="M2207 2830 c-26 -39 -47 -73 -47 -76 0 -3 -18 -32 -40 -64 -22 -32
-40 -62 -40 -66 0 -4 -9 -17 -20 -29 -24 -25 -31 -76 -13 -82 7 -3 50 53 99
129 48 73 100 152 116 176 31 44 34 75 7 80 -9 2 -33 -24 -62 -68z"></path>
<path d="M2275 2643 c-50 -75 -93 -145 -97 -155 -4 -10 -20 -34 -34 -53 -28
-37 -26 -69 2 -63 9 2 22 12 28 22 6 11 41 65 77 120 131 201 151 236 145 251
-12 32 -35 10 -121 -122z"></path>
<path d="M2442 2607 c-15 -18 -516 -788 -537 -825 -5 -9 -20 -34 -32 -53 -13
-20 -23 -46 -23 -58 0 -33 28 -23 54 20 11 19 34 53 49 75 15 21 65 98 111
169 46 72 147 228 225 348 77 120 141 221 141 224 0 3 11 18 25 35 28 33 31
50 11 67 -10 8 -16 8 -24 -2z"></path>
<path d="M2401 2265 c-28 -42 -51 -78 -51 -80 0 -3 -25 -41 -55 -86 -30 -45
-55 -83 -55 -85 0 -6 -98 -157 -121 -188 -17 -21 -20 -32 -13 -44 16 -25 32
-25 45 0 7 13 72 114 146 226 73 111 133 204 133 207 0 2 14 24 31 49 32 44
34 76 5 76 -7 0 -37 -34 -65 -75z"></path>
<path d="M1512 2318 c-13 -17 -182 -275 -204 -314 -40 -67 -42 -74 -30 -86 9
-9 15 -9 26 2 18 19 196 288 196 296 0 3 14 24 31 45 25 32 29 42 19 54 -15
18 -24 19 -38 3z"></path>
<path d="M1598 2163 c-8 -10 -22 -29 -31 -43 -91 -135 -127 -192 -127 -199 0
-4 -14 -27 -31 -50 -30 -42 -35 -71 -12 -78 10 -4 48 45 103 132 86 136 122
193 132 206 12 17 5 49 -10 49 -5 0 -15 -8 -24 -17z"></path>
<path d="M1653 1965 c-135 -207 -145 -224 -139 -241 9 -24 36 -12 60 27 11 20
50 81 86 135 103 155 115 177 107 198 -4 9 -11 16 -16 16 -5 0 -49 -61 -98
-135z"></path>
<path d="M1886 2045 c-9 -13 -16 -28 -16 -33 0 -5 -9 -17 -20 -27 -11 -10 -20
-22 -20 -27 0 -5 -17 -35 -39 -66 -21 -31 -59 -92 -85 -135 -38 -63 -45 -81
-36 -93 16 -19 29 -18 37 4 4 9 48 79 98 155 136 207 147 226 140 237 -11 18
-42 10 -59 -15z"></path>
</g>
</svg>