<?xml version="1.0" standalone="no"?>
<!DOCTYPE svg PUBLIC "-//W3C//DTD SVG 20010904//EN"
 "http://www.w3.org/TR/2001/REC-SVG-20010904/DTD/svg10.dtd">
<svg version="1.0" xmlns="http://www.w3.org/2000/svg"
 width="2087.000000pt" height="820.000000pt" viewBox="0 0 2087.000000 820.000000"
 preserveAspectRatio="xMidYMid meet">
<metadata>
Created by potrace 1.15, written by Peter Selinger 2001-2017
</metadata>
<g transform="translate(0.000000,820.000000) scale(0.100000,-0.100000)"
fill="#ffffff" stroke="none">
<path d="M5138 8183 c-28 -32 -481 -736 -486 -755 -2 -10 3 -29 12 -44 14 -20
24 -25 53 -22 36 3 39 6 280 377 133 206 246 383 249 393 3 11 -2 30 -10 43
-20 30 -75 34 -98 8z"/>
<path d="M5528 8153 c-38 -43 -398 -608 -398 -624 0 -42 62 -73 98 -51 7 5
100 143 207 308 198 304 213 335 179 368 -21 21 -67 20 -86 -1z"/>
<path d="M4702 8133 c-17 -15 -1367 -2088 -1400 -2150 -17 -31 -15 -50 8 -73
26 -26 62 -25 87 3 11 12 330 499 709 1082 448 691 690 1071 692 1091 7 53
-54 83 -96 47z"/>
<path d="M5847 8018 c-14 -18 -93 -138 -176 -266 -162 -250 -173 -277 -126
-308 50 -33 62 -21 241 253 92 142 170 271 172 286 10 66 -69 91 -111 35z"/>
<path d="M11816 7980 c-548 -63 -932 -358 -1054 -810 -23 -86 -26 -113 -25
-280 0 -168 2 -194 26 -285 73 -274 226 -449 522 -595 171 -84 363 -149 685
-230 451 -114 618 -180 730 -292 89 -89 124 -222 96 -357 -41 -194 -191 -317
-446 -367 -109 -22 -328 -19 -470 5 -280 48 -550 178 -813 391 -49 40 -92 68
-97 64 -4 -5 -94 -112 -199 -238 -156 -185 -189 -231 -180 -242 24 -29 187
-153 285 -217 302 -198 648 -320 1012 -358 146 -15 477 -6 595 15 644 120
1014 553 984 1151 -13 259 -81 426 -241 593 -95 99 -200 171 -357 246 -156 75
-308 125 -621 206 -405 106 -562 163 -688 251 -114 80 -162 175 -163 319 0 64
5 99 21 140 81 207 318 322 632 307 274 -14 548 -112 830 -298 102 -67 124
-79 135 -68 7 8 88 120 179 249 l167 235 -33 28 c-74 64 -261 180 -388 241
-282 135 -529 192 -870 201 -96 2 -211 0 -254 -5z"/>
<path d="M7710 6075 l0 -1865 1310 0 1310 0 0 300 0 300 -975 0 -975 0 0 1565
0 1565 -335 0 -335 0 0 -1865z"/>
<path d="M13930 6070 l0 -1860 335 0 335 0 0 540 0 540 282 290 c241 247 285
288 296 276 8 -8 292 -380 632 -827 l617 -814 401 -3 c221 -1 402 0 402 4 0 3
-358 476 -796 1051 -438 575 -797 1051 -798 1059 0 8 341 368 759 800 418 433
762 790 763 795 2 5 -175 9 -402 9 l-405 0 -873 -922 -873 -922 -3 922 -2 922
-335 0 -335 0 0 -1860z"/>
<path d="M17260 7925 c0 -3 331 -510 735 -1126 l735 -1121 0 -734 0 -734 335
0 335 0 0 738 0 737 735 1113 c404 612 735 1118 735 1123 0 5 -151 9 -377 9
l-378 -1 -519 -814 c-286 -449 -523 -812 -528 -807 -4 4 -237 370 -517 813
l-508 804 -392 3 c-215 1 -391 0 -391 -3z"/>
<path d="M20 6056 l0 -1866 335 0 335 0 0 600 0 600 438 0 c240 0 478 5 527
10 616 71 1046 381 1198 866 74 235 75 547 2 797 -87 301 -299 550 -594 697
-93 46 -282 107 -412 132 -110 21 -141 21 -971 25 l-858 4 0 -1865z m1520
1254 c411 -34 644 -225 691 -565 17 -124 -1 -248 -51 -360 -81 -180 -245 -307
-472 -367 -78 -20 -109 -22 -550 -25 l-468 -4 0 665 0 666 368 0 c202 0 419
-5 482 -10z"/>
<path d="M6184 7895 c-34 -23 -344 -508 -344 -537 0 -34 31 -60 67 -56 24 2
41 22 111 128 154 231 262 403 262 417 0 18 -45 63 -62 63 -8 0 -23 -7 -34
-15z"/>
<path d="M4104 7842 c-6 -4 -184 -272 -395 -597 -414 -637 -416 -641 -357
-674 20 -12 32 -13 50 -4 32 14 798 1192 798 1226 0 43 -60 73 -96 49z"/>
<path d="M6458 7703 c-9 -10 -86 -127 -172 -260 -168 -260 -179 -287 -131
-319 49 -32 64 -16 240 256 107 165 165 263 165 281 0 51 -69 79 -102 42z"/>
<path d="M6718 7473 c-9 -10 -88 -130 -177 -266 -173 -266 -183 -292 -136
-323 50 -33 62 -21 241 253 92 142 170 271 172 286 9 55 -64 91 -100 50z"/>
<path d="M6968 7228 c-33 -27 -398 -605 -398 -631 0 -51 68 -78 103 -39 34 38
397 606 397 621 0 49 -64 79 -102 49z"/>
<path d="M7037 6713 c-304 -464 -377 -581 -377 -601 0 -27 33 -62 59 -62 10 0
28 8 39 18 12 9 127 180 256 380 191 293 236 370 236 397 0 38 -20 55 -65 55
-22 0 -41 -24 -148 -187z"/>
<path d="M7278 6453 c-8 -10 -325 -495 -704 -1078 -463 -714 -689 -1071 -692
-1093 -5 -42 12 -62 54 -62 26 0 38 7 57 33 14 17 330 502 703 1077 440 678
680 1056 682 1076 5 38 -19 64 -57 64 -15 0 -35 -8 -43 -17z"/>
<path d="M3918 6298 c-28 -22 -498 -755 -498 -777 0 -26 34 -61 59 -61 11 0
31 10 44 23 14 12 130 184 258 382 166 258 232 368 232 389 0 47 -57 73 -95
44z"/>
<path d="M4024 5820 c-11 -4 -104 -137 -215 -307 -212 -325 -223 -351 -167
-382 20 -12 32 -13 50 -4 14 6 96 123 217 308 106 164 195 304 198 312 10 24
-6 59 -32 71 -14 7 -27 12 -28 11 -1 0 -11 -4 -23 -9z"/>
<path d="M7252 5788 c-5 -7 -181 -277 -391 -601 -273 -421 -381 -595 -381
-616 0 -49 54 -78 92 -48 20 15 779 1184 786 1209 8 32 -25 68 -62 68 -18 0
-38 -6 -44 -12z"/>
<path d="M4204 5482 c-6 -4 -86 -122 -178 -263 -179 -276 -190 -303 -141 -335
48 -32 63 -16 240 256 91 140 168 265 171 278 9 33 -20 72 -54 72 -15 0 -32
-4 -38 -8z"/>
<path d="M4436 5218 c-35 -48 -306 -466 -318 -494 -22 -48 41 -100 85 -71 34
22 347 509 347 539 0 61 -74 78 -114 26z"/>
<path d="M4732 5048 c-46 -58 -332 -515 -332 -533 0 -32 32 -57 70 -53 30 3
43 19 201 263 93 143 169 267 169 275 0 9 -7 26 -16 38 -17 25 -74 31 -92 10z"/>
<path d="M5938 5002 c-25 -10 -508 -758 -508 -786 0 -42 60 -72 96 -48 7 4
120 174 253 378 255 394 266 415 219 448 -24 17 -34 18 -60 8z"/>
<path d="M5064 4922 c-6 -4 -86 -122 -178 -263 -179 -277 -190 -303 -141 -335
49 -32 67 -13 245 263 91 141 166 267 168 280 6 46 -55 81 -94 55z"/>
<path d="M5437 4873 c-8 -10 -101 -151 -207 -313 -158 -243 -190 -299 -185
-320 7 -30 31 -50 60 -50 12 0 28 6 37 13 8 6 101 145 207 308 192 298 211
335 179 367 -18 18 -73 15 -91 -5z"/>
<path d="M3631 3072 c-54 -27 -74 -63 -79 -137 l-4 -65 -34 0 c-32 0 -34 -2
-34 -35 0 -33 2 -35 35 -35 l35 0 0 -225 0 -225 45 0 45 0 0 225 0 225 80 0
80 0 0 35 0 35 -86 0 -86 0 7 46 c12 84 37 102 121 90 l44 -6 0 39 c0 32 -4
40 -22 45 -43 11 -113 6 -147 -12z"/>
<path d="M12000 2720 l0 -370 39 0 39 0 4 179 c3 196 6 206 71 255 34 25 114
27 151 3 53 -35 61 -66 64 -259 l4 -178 39 0 39 0 0 197 c0 179 -2 201 -21
240 -51 106 -210 132 -311 52 l-38 -30 0 141 0 140 -40 0 -40 0 0 -370z"/>
<path d="M15260 2940 l0 -151 -37 36 c-35 34 -110 65 -158 65 -42 0 -121 -30
-157 -60 -20 -17 -49 -54 -63 -84 -50 -102 -30 -252 43 -329 87 -92 232 -99
327 -15 l45 40 0 -46 0 -46 40 0 40 0 0 370 0 370 -40 0 -40 0 0 -150z m-113
-149 c113 -52 146 -210 62 -305 -94 -108 -254 -70 -295 70 -23 81 -5 151 54
207 51 48 112 58 179 28z"/>
<path d="M231 3049 c-86 -28 -177 -115 -209 -202 -29 -77 -30 -205 -2 -278 43
-115 134 -194 249 -219 119 -25 262 13 335 89 l30 31 -24 25 c-13 14 -27 25
-31 25 -4 0 -34 -18 -66 -40 -120 -82 -250 -72 -344 27 -53 55 -72 99 -77 181
-11 167 101 295 258 295 67 0 107 -13 174 -60 l48 -35 28 34 c32 38 30 43 -38
87 -95 61 -218 75 -331 40z"/>
<path d="M5100 2705 l0 -355 260 0 260 0 0 40 0 40 -215 0 -215 0 0 120 0 120
190 0 190 0 0 40 0 40 -190 0 -190 0 0 115 0 115 210 0 210 0 0 40 0 40 -255
0 -255 0 0 -355z"/>
<path d="M15740 2705 l0 -355 45 0 45 0 0 355 0 355 -45 0 -45 0 0 -355z"/>
<path d="M1930 2955 l0 -75 -35 0 c-34 0 -35 -1 -35 -40 0 -39 1 -40 35 -40
l35 0 0 -162 c0 -90 5 -179 10 -199 20 -73 97 -108 193 -87 47 10 47 10 47 50
l0 40 -32 -8 c-52 -13 -91 -6 -110 17 -16 18 -18 44 -18 185 l0 164 80 0 80 0
0 40 0 40 -80 0 -80 0 0 75 0 75 -45 0 -45 0 0 -75z"/>
<path d="M6380 2955 l0 -75 -40 0 -40 0 0 -40 0 -40 40 0 40 0 0 -180 c0 -202
6 -227 62 -256 33 -17 116 -22 156 -10 18 6 22 15 22 47 0 21 -1 39 -3 39 -1
0 -18 -4 -37 -10 -46 -13 -93 3 -109 36 -7 15 -11 85 -11 179 l0 155 80 0 80
0 0 40 0 40 -80 0 -80 0 0 75 0 75 -40 0 -40 0 0 -75z"/>
<path d="M18910 2955 l0 -75 -35 0 c-34 0 -35 -1 -35 -40 0 -39 1 -40 35 -40
l35 0 0 -180 c0 -202 6 -227 62 -256 33 -17 116 -22 156 -10 18 6 22 15 22 47
0 21 -1 39 -3 39 -1 0 -18 -4 -37 -10 -46 -13 -93 3 -109 36 -7 15 -11 85 -11
179 l0 155 85 0 85 0 0 40 0 40 -85 0 -85 0 0 75 0 75 -40 0 -40 0 0 -75z"/>
<path d="M882 2876 c-59 -19 -107 -58 -139 -113 -36 -62 -45 -189 -18 -260 62
-163 287 -216 421 -99 l39 35 -26 26 -26 27 -46 -33 c-110 -77 -243 -36 -285
89 l-11 32 206 0 206 0 -6 63 c-14 145 -90 230 -219 242 -32 3 -70 -1 -96 -9z
m148 -89 c36 -24 64 -65 75 -109 l7 -28 -157 0 -157 0 6 31 c21 105 143 163
226 106z"/>
<path d="M1497 2878 c-21 -6 -53 -25 -72 -43 l-35 -32 0 38 c0 39 0 39 -40 39
l-40 0 0 -265 0 -265 39 0 39 0 4 173 c2 140 6 178 20 204 53 96 187 105 245
16 15 -23 19 -56 21 -210 l4 -183 39 0 39 0 0 198 c0 170 -3 203 -19 238 -38
83 -137 120 -244 92z"/>
<path d="M2432 2871 c-105 -36 -166 -130 -166 -256 0 -171 126 -289 291 -272
54 6 139 45 170 79 16 18 15 20 -9 45 l-26 26 -45 -32 c-114 -83 -250 -38
-291 97 l-7 22 207 0 207 0 -7 63 c-12 121 -73 203 -172 233 -61 18 -87 17
-152 -5z m158 -84 c36 -24 64 -65 74 -109 l6 -28 -160 0 -161 0 7 23 c36 118
148 173 234 114z"/>
<path d="M4030 2877 c-134 -37 -208 -145 -198 -288 19 -264 370 -342 504 -113
31 54 43 155 25 221 -36 132 -195 218 -331 180z m165 -98 c50 -34 78 -83 83
-144 8 -93 -29 -163 -102 -196 -82 -37 -171 -12 -222 63 -25 36 -29 50 -29
113 0 61 4 78 27 112 37 56 98 86 162 79 27 -3 63 -15 81 -27z"/>
<path d="M5950 2879 c-19 -6 -52 -24 -72 -40 l-38 -30 0 36 c0 34 -1 35 -40
35 l-40 0 0 -265 0 -265 39 0 39 0 4 179 c3 196 6 206 71 255 34 25 114 27
151 3 53 -35 61 -66 64 -259 l4 -178 39 0 39 0 0 197 c0 179 -2 201 -21 240
-36 75 -149 118 -239 92z"/>
<path d="M7315 2881 c-113 -29 -195 -141 -195 -266 0 -103 57 -202 144 -248
33 -17 58 -22 121 -21 87 0 133 17 189 69 l28 26 -23 25 c-26 28 -41 30 -60 7
-38 -45 -140 -66 -202 -39 -51 22 -107 93 -107 137 0 5 82 9 199 9 150 0 200
3 204 13 6 16 -8 115 -22 150 -19 48 -61 95 -104 116 -48 23 -129 33 -172 22z
m125 -90 c37 -19 65 -58 80 -110 l9 -31 -161 0 -160 0 7 28 c25 105 136 161
225 113z"/>
<path d="M7938 2878 c-21 -5 -58 -28 -83 -50 l-45 -40 0 46 0 46 -40 0 -40 0
0 -340 0 -340 40 0 40 0 0 122 c0 113 1 121 15 100 44 -62 158 -94 247 -68
117 34 178 124 178 261 0 135 -61 227 -174 260 -56 17 -84 17 -138 3z m117
-87 c55 -25 91 -70 104 -130 42 -195 -171 -320 -298 -175 -64 72 -66 181 -4
255 30 35 94 69 133 69 14 0 43 -9 65 -19z"/>
<path d="M8925 2881 c-73 -18 -139 -75 -172 -149 -26 -59 -23 -185 5 -244 49
-100 156 -157 270 -144 57 7 138 44 169 78 16 18 16 20 -8 44 l-25 25 -59 -36
c-121 -73 -239 -30 -279 103 l-7 22 207 0 207 0 -7 63 c-9 77 -47 159 -91 193
-59 45 -140 62 -210 45z m143 -98 c25 -19 54 -66 67 -110 l6 -23 -161 0 -161
0 7 23 c17 55 50 97 99 126 28 16 112 7 143 -16z"/>
<path d="M9565 2886 c-5 -3 -22 -7 -37 -10 -15 -4 -43 -20 -63 -37 l-35 -31 0
36 0 36 -45 0 -45 0 0 -265 0 -265 44 0 45 0 3 179 c3 196 6 206 71 255 34 25
114 27 151 3 52 -34 60 -67 64 -259 l4 -178 39 0 39 0 0 190 c0 149 -3 199
-15 228 -19 43 -50 78 -86 97 -26 14 -116 28 -134 21z"/>
<path d="M10087 2876 c-107 -30 -170 -118 -176 -249 -4 -98 15 -154 75 -213
92 -93 260 -97 360 -10 l39 35 -26 26 -26 27 -46 -33 c-110 -77 -259 -29 -283
90 l-6 31 201 0 201 0 0 43 c0 180 -148 299 -313 253z m143 -89 c36 -24 64
-65 75 -109 l7 -28 -157 0 -157 0 6 31 c21 105 143 163 226 106z"/>
<path d="M13054 2881 c-41 -10 -100 -47 -119 -74 -14 -20 -15 -19 -15 26 l0
47 -45 0 -45 0 0 -340 0 -340 45 0 45 0 0 117 0 117 28 -26 c115 -108 300 -78
376 63 73 134 30 316 -90 381 -54 29 -131 42 -180 29z m136 -104 c76 -51 103
-168 58 -257 -54 -106 -183 -129 -267 -48 -42 41 -61 85 -61 142 0 82 39 141
115 178 50 24 103 18 155 -15z"/>
<path d="M14485 2886 c-5 -3 -22 -7 -37 -10 -15 -4 -43 -20 -63 -37 l-35 -31
0 36 0 36 -45 0 -45 0 0 -265 0 -265 45 0 45 0 0 171 c0 191 9 226 64 260 49
30 89 33 138 11 71 -31 78 -56 78 -266 l0 -176 45 0 45 0 0 178 c0 128 -4 192
-15 228 -14 48 -48 90 -91 112 -22 12 -113 24 -129 18z"/>
<path d="M16170 2879 c-19 -6 -52 -24 -72 -40 l-38 -30 0 36 c0 34 -1 35 -40
35 l-40 0 0 -265 0 -265 39 0 39 0 4 179 c3 196 6 206 71 255 37 27 117 27
155 0 51 -38 57 -64 60 -256 l3 -178 40 0 39 0 0 198 c0 189 -1 201 -23 243
-39 73 -148 114 -237 88z"/>
<path d="M16761 2876 c-24 -8 -56 -27 -72 -42 l-29 -28 0 37 0 37 -45 0 -45 0
0 -265 0 -265 44 0 45 0 3 179 c3 196 6 206 71 255 34 25 114 27 151 3 53 -35
61 -66 64 -259 l4 -178 40 0 39 0 -3 208 c-3 203 -4 209 -28 245 -48 70 -151
101 -239 73z"/>
<path d="M17337 2876 c-66 -18 -126 -62 -161 -119 -41 -67 -49 -179 -16 -255
63 -145 239 -203 383 -124 184 100 181 386 -4 475 -67 33 -139 41 -202 23z
m138 -85 c147 -67 153 -282 10 -351 -122 -59 -255 34 -255 179 0 83 39 144
110 175 47 20 87 19 135 -3z"/>
<path d="M19710 2881 c-86 -18 -154 -74 -191 -156 -28 -60 -25 -166 5 -230
104 -225 442 -193 507 48 25 95 -15 229 -86 283 -64 48 -161 71 -235 55z m125
-90 c147 -67 153 -282 10 -351 -122 -59 -256 33 -256 175 0 84 39 148 111 179
47 20 87 19 135 -3z"/>
<path d="M20365 2886 c-5 -3 -22 -7 -37 -10 -15 -4 -43 -20 -63 -37 l-35 -31
0 36 0 36 -45 0 -45 0 0 -265 0 -265 45 0 45 0 0 170 c0 202 10 233 83 269 53
26 70 26 123 2 66 -30 74 -58 74 -265 l0 -176 45 0 45 0 0 183 c0 100 -5 199
-10 219 -13 44 -51 93 -90 113 -27 14 -116 28 -135 21z"/>
<path d="M2870 2615 l0 -265 39 0 39 0 4 143 c3 125 6 148 27 190 27 57 81 96
140 104 41 6 41 6 41 49 0 44 0 44 -36 44 -50 0 -99 -25 -139 -73 l-35 -41 0
57 0 57 -40 0 -40 0 0 -265z"/>
<path d="M4480 2615 l0 -265 45 0 45 0 0 143 c0 117 4 149 19 182 31 68 96
115 157 115 22 0 24 4 24 45 l0 45 -37 0 c-43 0 -112 -38 -142 -77 l-20 -28
-1 53 0 52 -45 0 -45 0 0 -265z"/>
<path d="M6760 2615 l0 -265 39 0 38 0 5 138 c5 149 17 194 66 246 31 32 80
56 117 56 23 0 25 4 25 45 0 45 0 45 -35 45 -60 0 -130 -46 -163 -105 -9 -16
-11 -9 -12 43 l0 62 -40 0 -40 0 0 -265z"/>
<path d="M8370 2615 l0 -265 45 0 45 0 0 128 c0 138 8 181 43 233 25 38 97 79
139 79 26 0 28 2 28 45 0 45 0 45 -36 45 -49 0 -97 -24 -139 -71 l-35 -39 0
55 0 55 -45 0 -45 0 0 -265z"/>
<path d="M10510 2688 c0 -166 3 -199 19 -233 54 -120 215 -152 316 -63 l35 30
0 -36 0 -36 45 0 45 0 0 265 0 265 -45 0 -45 0 0 -171 c0 -158 -2 -174 -22
-210 -23 -41 -84 -79 -126 -79 -41 0 -91 28 -112 62 -18 30 -20 50 -20 216 l0
182 -45 0 -45 0 0 -192z"/>
<path d="M11120 2615 l0 -265 40 0 40 0 0 118 c1 136 11 193 47 244 27 40 93
78 136 78 25 0 27 3 27 45 0 45 0 45 -35 45 -48 0 -106 -31 -144 -77 l-31 -38
0 58 0 57 -40 0 -40 0 0 -265z"/>
<path d="M11571 2862 c-47 -23 -72 -61 -78 -114 -10 -86 36 -129 185 -173 65
-19 112 -53 112 -80 0 -9 -13 -30 -29 -46 -42 -41 -105 -40 -191 3 l-63 31
-19 -23 c-29 -36 -22 -49 48 -82 119 -56 252 -40 308 36 16 21 21 43 21 88 0
56 -2 62 -36 92 -24 23 -67 44 -133 66 -106 35 -137 61 -117 99 30 56 92 64
186 26 62 -25 61 -26 86 18 14 25 6 33 -57 56 -70 27 -175 28 -223 3z"/>
<path d="M12600 2615 l0 -265 40 0 40 0 0 265 0 265 -40 0 -40 0 0 -265z"/>
<path d="M13775 2863 c-64 -19 -68 -23 -54 -61 13 -37 13 -37 70 -17 61 22
151 21 188 -1 32 -19 61 -68 61 -103 0 -18 -4 -20 -32 -13 -18 4 -73 7 -123 7
-77 0 -96 -3 -134 -25 -25 -14 -54 -40 -64 -58 -24 -41 -25 -117 -3 -159 48
-93 204 -120 310 -53 l46 30 0 -30 c0 -28 2 -30 40 -30 l40 0 0 194 c0 202 -5
233 -43 275 -54 59 -188 79 -302 44z m230 -262 c26 -5 30 -11 33 -44 8 -98
-114 -172 -216 -131 -92 36 -92 137 -2 173 28 11 138 12 185 2z"/>
<path d="M17703 2866 c3 -8 54 -127 113 -266 l108 -251 40 3 40 3 108 250 c59
138 108 256 108 263 0 8 -15 12 -43 12 l-44 0 -83 -205 c-46 -113 -86 -202
-90 -198 -4 5 -42 97 -86 205 l-79 198 -49 0 c-37 0 -47 -3 -43 -14z"/>
<path d="M18385 2863 c-64 -19 -68 -23 -54 -61 13 -37 13 -37 69 -17 58 21
154 19 191 -2 30 -18 59 -67 59 -102 0 -18 -4 -20 -32 -13 -18 4 -73 7 -123 7
-131 -1 -191 -36 -216 -127 -14 -53 4 -115 47 -155 68 -63 199 -67 287 -7 l37
25 0 -31 c0 -28 2 -30 40 -30 l40 0 0 194 c0 202 -5 233 -43 275 -54 59 -188
79 -302 44z m230 -262 c25 -5 31 -11 33 -41 10 -97 -115 -175 -216 -134 -92
36 -92 137 -2 173 28 11 138 12 185 2z"/>
<path d="M19290 2615 l0 -265 45 0 45 0 0 265 0 265 -45 0 -45 0 0 -265z"/>
<path d="M20 1530 c0 -20 7 -20 10295 -20 10288 0 10295 0 10295 20 0 20 -7
20 -10295 20 -10288 0 -10295 0 -10295 -20z"/>
<path d="M9042 702 c-99 -36 -142 -97 -142 -203 0 -117 40 -157 211 -209 129
-39 149 -51 149 -90 0 -23 -7 -33 -32 -46 -54 -28 -148 -8 -241 53 l-28 18
-44 -50 c-25 -27 -43 -57 -42 -65 3 -20 100 -77 161 -95 27 -8 88 -15 135 -15
143 0 226 55 251 164 17 75 -3 148 -52 192 -34 32 -74 50 -171 77 -104 29
-137 49 -137 82 0 61 100 74 196 25 32 -16 62 -30 66 -30 4 0 26 27 48 60 l40
59 -37 24 c-101 62 -237 83 -331 49z"/>
<path d="M12012 700 c-85 -28 -156 -88 -201 -170 -35 -63 -36 -68 -36 -175 0
-101 2 -114 28 -163 35 -67 92 -124 159 -159 46 -23 68 -28 158 -31 89 -3 113
-1 162 18 76 28 159 104 195 178 25 51 28 67 28 162 0 90 -4 112 -24 152 -36
74 -95 134 -166 169 -86 42 -208 50 -303 19z m216 -156 c166 -83 142 -343 -36
-389 -132 -35 -251 62 -252 204 0 161 147 255 288 185z"/>
<path d="M13938 701 c-129 -42 -214 -142 -238 -283 -28 -158 49 -314 192 -390
38 -21 56 -23 168 -23 111 0 130 3 167 23 51 27 113 80 113 96 0 6 -22 33 -48
60 l-49 47 -29 -24 c-49 -41 -96 -60 -149 -60 -221 0 -278 322 -73 408 66 27
127 16 205 -37 l41 -28 51 58 c28 31 51 60 51 64 0 16 -124 87 -170 97 -74 16
-167 13 -232 -8z"/>
<path d="M15957 709 c-123 -29 -219 -127 -253 -259 -44 -171 36 -347 191 -421
53 -26 71 -29 157 -29 117 0 181 20 248 79 l45 39 -54 55 -53 55 -45 -34 c-24
-19 -55 -36 -69 -39 -13 -3 -34 -7 -47 -10 -13 -2 -41 0 -63 6 -114 31 -179
158 -140 276 27 81 109 143 188 143 32 0 112 -34 154 -65 21 -15 24 -13 73 44
l51 59 -42 36 c-75 64 -224 93 -341 65z"/>
<path d="M17507 710 c-98 -25 -190 -102 -235 -198 -24 -50 -27 -70 -27 -157 0
-93 2 -105 33 -167 36 -73 87 -124 161 -160 37 -19 67 -24 156 -26 122 -4 177
10 268 68 l47 30 0 155 0 155 -155 0 -155 0 0 -70 0 -70 75 0 75 0 0 -46 c0
-42 -2 -46 -34 -59 -88 -37 -170 -27 -233 28 -96 84 -97 233 -3 325 69 66 174
68 266 6 l38 -26 48 53 c26 30 48 59 48 65 0 18 -31 41 -94 70 -48 22 -77 28
-150 30 -50 2 -108 -1 -129 -6z"/>
<path d="M18319 701 c-115 -37 -212 -140 -239 -252 -18 -75 -8 -184 25 -252
34 -73 117 -149 193 -177 49 -19 73 -21 162 -18 91 3 112 8 158 32 106 54 174
149 193 268 26 159 -59 318 -204 384 -82 37 -204 43 -288 15z m185 -143 c94
-29 161 -149 136 -246 -26 -104 -98 -165 -193 -165 -224 0 -286 310 -82 404
47 22 83 24 139 7z"/>
<path d="M1810 635 l0 -75 105 0 105 0 0 -275 0 -275 80 0 80 0 0 275 0 275
105 0 105 0 0 75 0 75 -290 0 -290 0 0 -75z"/>
<path d="M2570 360 l0 -350 85 0 85 0 0 135 0 135 135 0 135 0 0 -135 0 -135
80 0 80 0 0 350 0 350 -80 0 -80 0 0 -140 0 -140 -135 0 -135 0 0 140 0 140
-85 0 -85 0 0 -350z"/>
<path d="M3410 360 l0 -350 265 0 265 0 0 70 0 70 -185 0 -185 0 0 70 0 70
160 0 160 0 0 70 0 70 -160 0 -160 0 0 65 0 65 185 0 185 0 0 75 0 75 -265 0
-265 0 0 -350z"/>
<path d="M4500 478 c0 -266 9 -320 67 -388 61 -71 100 -85 238 -85 138 0 173
13 238 84 59 66 67 110 67 383 l0 238 -80 0 -80 0 0 -225 c0 -252 -6 -280 -62
-315 -22 -13 -50 -20 -86 -20 -45 0 -57 4 -88 32 -22 21 -38 48 -44 73 -5 22
-10 133 -10 248 l0 207 -80 0 -80 0 0 -232z"/>
<path d="M5330 360 l0 -350 80 0 80 0 2 208 3 207 158 -207 158 -208 69 0 70
0 0 350 0 350 -80 0 -80 0 -2 -202 -3 -202 -154 202 -153 202 -74 0 -74 0 0
-350z"/>
<path d="M6190 360 l0 -350 80 0 80 0 0 350 0 350 -80 0 -80 0 0 -350z"/>
<path d="M6523 698 c2 -7 66 -167 142 -355 l137 -343 72 0 72 0 139 346 c77
191 142 350 143 355 2 5 -37 9 -86 9 l-89 0 -82 -222 c-46 -123 -86 -229 -90
-236 -4 -8 -43 83 -93 220 l-86 233 -92 3 c-72 2 -91 0 -87 -10z"/>
<path d="M7390 360 l0 -350 270 0 270 0 0 70 0 70 -190 0 -190 0 0 70 0 70
165 0 165 0 0 70 0 70 -165 0 -165 0 0 65 0 65 185 0 185 0 0 75 0 75 -265 0
-265 0 0 -350z"/>
<path d="M8140 361 l0 -351 80 0 80 0 0 110 0 110 55 0 55 0 72 -110 73 -110
98 0 c76 0 96 3 91 13 -5 6 -42 61 -83 121 -51 75 -71 111 -62 114 23 8 92 74
106 103 42 80 23 218 -37 276 -63 61 -91 67 -320 71 l-208 4 0 -351z m394 170
c18 -17 26 -35 26 -58 0 -77 -44 -103 -175 -103 l-85 0 0 96 0 96 104 -4 c94
-3 107 -5 130 -27z"/>
<path d="M9630 360 l0 -350 85 0 85 0 0 350 0 350 -85 0 -85 0 0 -350z"/>
<path d="M9990 635 l0 -75 105 0 105 0 0 -275 0 -275 80 0 80 0 0 275 0 275
105 0 105 0 0 75 0 75 -290 0 -290 0 0 -75z"/>
<path d="M10693 697 c3 -7 62 -103 131 -212 l126 -199 0 -138 0 -138 85 0 85
0 0 138 0 138 130 204 c72 112 130 207 130 212 0 4 -40 8 -89 8 l-90 0 -82
-136 -81 -136 -81 136 -82 136 -93 0 c-73 0 -93 -3 -89 -13z"/>
<path d="M12710 360 l0 -350 85 0 85 0 0 130 0 130 165 0 165 0 0 75 0 75
-165 0 -165 0 0 70 0 70 185 0 185 0 0 75 0 75 -270 0 -270 0 0 -350z"/>
<path d="M14510 360 l0 -350 80 0 80 0 0 135 0 135 135 0 135 0 0 -135 0 -135
85 0 85 0 0 350 0 350 -85 0 -85 0 0 -140 0 -140 -135 0 -135 0 0 140 0 140
-80 0 -80 0 0 -350z"/>
<path d="M15340 360 l0 -350 85 0 85 0 0 350 0 350 -85 0 -85 0 0 -350z"/>
<path d="M16727 703 c-3 -4 -69 -159 -147 -343 -78 -184 -144 -339 -147 -343
-3 -4 34 -6 82 -5 l87 3 30 73 31 72 142 0 142 0 29 -75 29 -75 87 0 c67 0 86
3 82 13 -2 7 -69 163 -147 347 l-143 335 -76 3 c-42 2 -78 -1 -81 -5z m117
-293 c20 -50 36 -92 36 -95 0 -3 -36 -5 -80 -5 l-79 0 30 70 c16 39 34 82 39
95 5 14 11 25 14 25 2 0 20 -41 40 -90z"/>
</g>
</svg>
