<?xml version="1.0" encoding="utf-8"?>
<!-- Generator: Adobe Illustrator 15.1.0, SVG Export Plug-In . SVG Version: 6.00 Build 0)  -->
<!DOCTYPE svg PUBLIC "-//W3C//DTD SVG 1.1//EN" "http://www.w3.org/Graphics/SVG/1.1/DTD/svg11.dtd">
<svg version="1.1" id="Layer_1" xmlns="http://www.w3.org/2000/svg" xmlns:xlink="http://www.w3.org/1999/xlink" x="0px" y="0px"
	 width="750px" height="225px" viewBox="0 0 750 225" enable-background="new 0 0 750 225" xml:space="preserve">
<g>
	<path fill="white" d="M670.117,60.96l0.035-0.073l-0.004-0.083c-0.082-1.45-0.123-3.322-0.123-5.272v-0.386l-0.379,0.085
		c-0.482,0.11-2.951,0.11-5.338,0.11h-7.377c-1.51,0-2.852-0.034-4.633-0.118l-0.078-0.004l-0.068,0.036
		c-0.334,0.161-0.387,0.632-0.398,0.772c-0.023,0.35,0.078,0.628,0.281,0.761l0.773,0.129c2.033,0.245,2.133,0.466,2.133,4.747
		v14.428c0,4.239-0.1,4.458-2.133,4.704l-1.107,0.132l-0.076,0.074c-0.227,0.227-0.264,0.6-0.219,0.872
		c0.045,0.299,0.184,0.526,0.375,0.623l0.072,0.037l0.08-0.004c1.877-0.077,3.229-0.119,5-0.119c1.617,0,3.006,0.044,5.32,0.12
		l0.076,0.002l0.07-0.035c0.262-0.132,0.375-0.488,0.391-0.778c0.023-0.347-0.08-0.622-0.281-0.753l-1.502-0.169
		c-2.045-0.173-2.164-0.438-2.164-4.704V70.52c0-0.774,0-0.774,1.014-0.774h2.727c1.406,0,2.453,0.033,2.994,0.187
		c0.561,0.178,0.865,0.546,1.076,1.304l0.422,1.661l0.074,0.063c0.396,0.34,1.248,0.322,1.5-0.063l0.053-0.079v-0.092
		c0-0.415-0.031-0.951-0.066-1.545c-0.045-0.728-0.094-1.551-0.094-2.342c0-0.812,0.049-1.67,0.092-2.427
		c0.035-0.623,0.068-1.186,0.068-1.62v-0.093l-0.053-0.077c-0.189-0.287-0.596-0.317-0.762-0.317c-0.334,0-0.619,0.107-0.773,0.29
		l-0.424,1.732c-0.225,0.972-0.496,1.068-0.799,1.178c-0.424,0.141-1.66,0.227-3.309,0.227h-2.727c-1.014,0-1.014,0-1.014-0.773
		v-8.458c0-1.296,0-1.296,0.895-1.296h2.443c1.656,0,2.963,0,3.809,0.232c1.719,0.447,2.232,1.597,2.58,3.564l0.02,0.108
		l0.082,0.071c0.156,0.133,0.371,0.207,0.607,0.207C669.59,61.382,669.969,61.251,670.117,60.96L670.117,60.96z M643.215,68.755
		c0-6.768-4.447-14.053-14.217-14.053c-8.312,0-14.578,6.215-14.578,14.457c0,6.903,5.008,13.893,14.578,13.893
		C637.104,83.053,643.215,76.905,643.215,68.755L643.215,68.755z M638.59,70c0,8.263-4.887,11.194-9.07,11.194
		c-8.268,0-10.477-8.372-10.477-13.318c0-8.353,4.994-11.316,9.273-11.316C635.9,56.561,638.59,63.8,638.59,70L638.59,70z
		 M605.807,138.326c0,17.315,12.887,32.609,34.242,32.609c18.564,0,33.379-14.143,33.379-33.571
		c0-16.929-11.158-32.992-33.379-32.992C620.234,104.373,605.807,119.089,605.807,138.326L605.807,138.326z M615.424,135.248
		c0-21.065,12.984-27.894,22.992-27.894c18.369,0,25.391,17.12,25.391,32.993c0,18.948-10.963,27.607-22.508,27.607
		C622.352,167.952,615.424,149.482,615.424,135.248L615.424,135.248z M594.172,56.766c0.203-0.178,0.312-0.467,0.291-0.774
		c-0.023-0.306-0.176-0.577-0.41-0.722l-0.082-0.052l-0.098,0.006c-2.85,0.165-4.527,0.165-7.541,0l-0.082-0.005l-0.074,0.038
		c-0.223,0.112-0.377,0.337-0.422,0.618c-0.053,0.323,0.047,0.659,0.262,0.875l0.074,0.078l0.83,0.09
		c0.777,0.097,1.26,0.287,1.402,0.392c-0.127,0.574-1.525,3.175-2.379,4.753l-0.184,0.341c-0.967,1.866-2.08,3.877-3.488,6.294
		c-1.057-1.908-2.088-4.006-3.084-6.041c-0.393-0.798-0.785-1.594-1.174-2.375c-0.291-0.581-1.195-2.628-1.211-2.948
		c0-0.081,0.186-0.242,1.424-0.418l0.621-0.095l0.07-0.073c0.219-0.219,0.311-0.613,0.227-0.959
		c-0.064-0.275-0.236-0.477-0.471-0.552l-0.061-0.02l-0.061,0.005c-0.984,0.078-2.418,0.118-4.264,0.118
		c-1.855,0-3.328-0.038-4.629-0.118l-0.092-0.006l-0.08,0.046c-0.197,0.112-0.332,0.322-0.377,0.592
		c-0.055,0.321,0.031,0.658,0.219,0.877l0.072,0.083l1.23,0.218c1.061,0.179,1.594,0.27,2.943,2.882l4.727,9.221
		c1.131,2.182,1.248,2.633,1.248,4.829v2.043c0,4.35-0.096,4.574-2.123,4.786l-1.357,0.13l-0.076,0.08
		c-0.227,0.228-0.26,0.604-0.217,0.878c0.051,0.296,0.189,0.519,0.381,0.614l0.07,0.035l0.078-0.003
		c2.158-0.079,3.562-0.12,5.238-0.12c1.629,0,3.062,0.046,5.441,0.121l0.076,0.002l0.07-0.035c0.191-0.096,0.33-0.322,0.379-0.62
		c0.045-0.272,0.008-0.647-0.219-0.875l-0.082-0.078l-1.635-0.129c-1.854-0.141-2.119-0.445-2.119-4.785v-2.086
		c0-3.003,0.086-3.299,1.84-6.337l2.527-4.368c0.23-0.394,0.447-0.777,0.658-1.146c1.576-2.754,2.717-4.744,4.418-5.04l1.207-0.213
		L594.172,56.766L594.172,56.766z M580.127,105.814c-1.639-0.384-6.736-1.441-12.219-1.441c-14.525,0-24.049,4.519-30.49,11.254
		c-5.965,6.345-8.66,14.617-8.66,22.795c0,8.467,3.08,16.063,8.852,21.833c7.406,7.505,17.893,10.68,29.336,10.68
		c5.197,0,12.123-1.155,17.223-2.502c1.824-0.479,3.561-0.866,4.711-0.866c0.387-0.287,0.387-0.867,0.096-1.153
		c-1.73-0.674-2.307-2.979-2.307-6.831v-5.388c0-4.904,0.096-7.597,4.135-8.078l1.539-0.193c0.672-0.574,0.576-2.019-0.096-2.404
		c-3.176,0.192-6.447,0.288-10.197,0.288c-5.676,0-10.967-0.096-13.754-0.288c-0.672,0.288-0.771,2.022,0,2.404l4.23,0.48
		c5.965,0.674,6.252,1.251,6.252,9.331v3.846c0,3.08-0.48,4.813-0.961,5.483c-1.059,1.634-4.617,2.886-10.582,2.886
		c-19.334,0-28.857-14.526-28.857-32.994c0-14.429,8.18-27.703,26.84-27.703c9.811,0,17.025,3.272,19.719,13.66
		c0.578,0.577,2.309,0.481,2.598-0.288c-0.865-5.773-1.445-10.774-1.445-13.947C584.936,106.873,581.953,106.198,580.127,105.814
		L580.127,105.814z M563.73,54.728l0.025-0.113l-0.049-0.103c-0.148-0.299-0.562-0.332-0.734-0.332
		c-0.102,0-0.248,0.011-0.379,0.062l-0.1,0.041l-0.053,0.093c-0.516,0.892-0.727,0.965-2.859,0.965h-16.57
		c-1.793,0-2.596-0.094-2.764-0.99l-0.018-0.094l-0.066-0.067c-0.115-0.111-0.293-0.165-0.555-0.165c-0.096,0-0.422,0.01-0.6,0.127
		l-0.107,0.073l-0.023,0.13c-0.281,1.602-0.875,4.14-1.51,5.923l-0.043,0.124l0.059,0.119c0.24,0.482,1.062,0.718,1.504,0.387
		l0.064-0.049l0.031-0.074c0.408-0.928,0.793-1.805,1.729-2.662c0.885-0.812,2.887-0.921,4.725-0.921h2.205
		c0.893,0,0.893,0,0.893,0.973v17.919c0,4.344-0.25,4.533-2.203,4.704l-1.441,0.12l-0.135,0.044
		c-0.242,0.147-0.375,0.447-0.359,0.803c0.012,0.271,0.119,0.604,0.385,0.735l0.068,0.034l0.076-0.002
		c2.451-0.074,3.932-0.12,5.561-0.12c1.566,0,2.859,0.038,5.238,0.12l0.078,0.002l0.068-0.034c0.33-0.163,0.385-0.634,0.396-0.774
		c0.021-0.348-0.08-0.625-0.281-0.758l-1.428-0.17c-2.004-0.173-2.119-0.436-2.119-4.704V58.125
		c-0.002-0.407-0.002-0.791,0.062-0.857c0.066-0.067,0.504-0.067,0.791-0.067h2.844c2.146,0,3.609,0.308,4.467,0.943
		c0.379,0.277,0.705,1.294,0.879,2.714l0.01,0.089l0.061,0.069c0.145,0.179,0.418,0.286,0.725,0.286c0.381,0,0.699-0.163,0.83-0.426
		l0.039-0.079l-0.008-0.088C563.02,59.56,563.299,56.332,563.73,54.728L563.73,54.728z M527.188,76.012V61.744
		c0-4.381,0.121-4.651,2.16-4.823l1.084-0.086l0.066-0.046c0.199-0.134,0.303-0.411,0.279-0.76c-0.01-0.141-0.066-0.611-0.395-0.774
		l-0.068-0.035l-0.08,0.004c-1.893,0.074-3.312,0.118-4.957,0.118c-1.721,0-3.098-0.041-5.039-0.118l-0.076-0.004l-0.072,0.036
		c-0.326,0.164-0.383,0.636-0.391,0.776c-0.023,0.348,0.078,0.624,0.277,0.757l0.068,0.045l1.08,0.085
		c2.043,0.173,2.164,0.443,2.164,4.824v14.269c0,4.315-0.104,4.539-2.174,4.785l-1.109,0.132l-0.076,0.077
		c-0.225,0.227-0.258,0.6-0.217,0.875c0.049,0.296,0.186,0.521,0.377,0.616l0.07,0.037l0.08-0.003
		c2.041-0.079,3.379-0.119,5.039-0.119c1.59,0,2.918,0.041,4.957,0.119l0.08,0.003l0.068-0.035c0.33-0.164,0.387-0.636,0.393-0.776
		c0.023-0.348-0.08-0.623-0.279-0.755l-1.137-0.169C527.289,80.551,527.188,80.328,527.188,76.012L527.188,76.012z M520.584,166.991
		c-4.137-0.48-5.387-1.925-8.178-10.198l-13.178-38.667c-1.441-4.23-2.979-8.657-4.234-12.89c-0.191-0.672-0.863-0.864-1.439-0.864
		c-1.059,1.25-2.693,2.981-5.004,3.654c0.291,1.54-0.287,3.365-1.635,6.829l-9.811,25.971c-4.039,10.774-6.732,17.026-8.465,21.451
		c-1.346,3.463-3.463,4.522-5.771,4.712l-3.174,0.291c-0.574,0.48-0.383,2.02,0.193,2.402c2.598-0.094,6.059-0.286,9.232-0.286
		c4.521,0.094,7.506,0.094,10.006,0.286c0.867-0.384,0.867-1.922,0.191-2.402l-3.174-0.291c-2.309-0.19-2.791-0.77-2.791-1.924
		c0-1.058,0.676-3.654,2.117-7.983l3.367-10.1c0.672-2.022,1.25-2.308,3.656-2.308h14.523c2.885,0,3.27,0.286,3.943,2.403
		l4.232,13.081c0.771,2.309,1.25,4.042,1.25,5.1c0,0.961-1.346,1.54-3.363,1.73l-2.793,0.291c-0.674,0.48-0.576,2.02,0.191,2.402
		c2.793-0.094,6.445-0.286,11.064-0.286c4.328,0,7.695,0.094,11.641,0.286c0.477-0.384,0.67-1.922,0-2.402L520.584,166.991
		L520.584,166.991z M495.766,140.826h-11.83c-2.695,0-2.789-0.095-2.021-2.306l6.061-16.738c1.059-2.887,2.02-5.196,2.307-5.677
		h0.193c0.578,1.155,1.441,3.753,2.209,6.061l5.197,15.678C498.75,140.443,498.557,140.826,495.766,140.826L495.766,140.826z
		 M499.691,60.703c0-1.547,0.582-4.142,4.463-4.142c3.535,0,4.615,2.299,5.156,4.302l0.061,0.114
		c0.129,0.157,0.344,0.243,0.605,0.243c0.305,0,0.711-0.121,0.887-0.391l0.051-0.077v-0.092c0-1.637-0.338-3.926-0.736-4.999
		l-0.074-0.201h-0.213c-0.285,0-0.816-0.069-1.328-0.227c-0.959-0.258-2.459-0.532-3.803-0.532c-5.076,0-8.484,2.894-8.484,7.2
		c0,3.661,2.797,6.052,4.467,7.153l3.809,2.488c2.768,1.78,3.146,3.624,3.146,5.352c0,2.139-1.453,4.299-4.703,4.299
		c-4.055,0-5.826-3.128-6.6-5.75l-0.039-0.085c-0.119-0.18-0.338-0.277-0.613-0.277c-0.262,0-0.646,0.101-0.855,0.391l-0.059,0.086
		l0.004,0.106c0.074,1.812,0.592,4.779,1.119,5.746l0.039,0.077l0.074,0.044c0.785,0.458,2.982,1.522,6.408,1.522
		c5.289,0,8.844-3.104,8.844-7.723c0-3.205-1.686-5.807-5.156-7.955l-3.207-2.005C501.738,64.613,499.691,63.002,499.691,60.703
		L499.691,60.703z M489.596,82.587c0.186-0.146,0.281-0.384,0.246-0.619c-0.035-0.219-0.17-0.396-0.365-0.471l-0.09-0.021
		c-0.955-0.07-1.92-0.461-2.588-1.052c-2.76-2.313-4.955-5.693-7.99-10.588c-0.211-0.337-0.242-0.493-0.236-0.559
		c1.332-0.556,5.094-2.519,5.094-6.935c0-3.355-1.902-5.052-3.492-5.88c-2.01-1.091-4.584-1.239-6.84-1.239
		c-3.67,0-6.516,0.102-8.963,0.32l-0.111,0.032c-0.234,0.117-0.387,0.375-0.412,0.69c-0.029,0.344,0.098,0.674,0.328,0.839
		l0.062,0.048l1.363,0.167c1.307,0.159,1.494,0.442,1.494,4.382v14.391c0,4.238-0.098,4.458-2.133,4.704l-1.123,0.134l-0.076,0.09
		c-0.229,0.263-0.25,0.646-0.197,0.916c0.057,0.271,0.189,0.469,0.375,0.562l0.07,0.034l0.078-0.003
		c1.779-0.074,3.24-0.12,4.996-0.12c1.658,0,3.049,0.046,4.756,0.12l0.08,0.004l0.07-0.036c0.295-0.147,0.369-0.531,0.387-0.689
		c0.039-0.355-0.055-0.661-0.248-0.824l-0.066-0.055l-0.928-0.133c-2.061-0.286-2.141-0.461-2.141-4.704v-5.052
		c0-0.572,0-0.572,1.572-0.572c1.541,0,2.064,0.37,2.594,1.147c0.611,0.886,1.316,2.008,2.006,3.092
		c0.717,1.134,1.393,2.205,1.926,2.962c2.754,3.922,4.83,5.18,8.549,5.18c0.773,0,1.447-0.078,1.857-0.214L489.596,82.587
		L489.596,82.587z M477.516,67.672c-1.143,0.867-2.705,0.979-3.939,0.979c-1.809,0-2.367-0.068-2.531-0.118
		c-0.047-0.167-0.047-0.638-0.047-1.097v-9.379c0-0.901,0-0.976,2.297-0.976c4.508,0,6.105,3.161,6.105,5.865
		C479.4,65.168,478.801,66.67,477.516,67.672L477.516,67.672z M456.803,76.713l0.02-0.096l-0.041-0.091
		c-0.174-0.384-0.598-0.557-0.941-0.557c-0.201,0-0.379,0.052-0.52,0.153l-0.098,0.114c-1.146,2.294-2.182,3.457-2.707,3.749
		c-0.859,0.431-2.072,0.568-4.99,0.568c-3.342,0-4.201-0.398-4.623-0.824c-0.57-0.604-0.684-1.909-0.684-3.958v-5.65
		c0-0.774,0-0.774,1.018-0.774h2.326c1.398,0,2.445,0.031,3.012,0.19c0.555,0.139,0.84,0.502,1.02,1.294l0.357,1.562l0.061,0.126
		c0.152,0.182,0.432,0.291,0.752,0.291c0.369,0,0.664-0.139,0.797-0.37l0.041-0.071v-0.083c0-0.39-0.031-0.907-0.068-1.488
		c-0.043-0.73-0.094-1.559-0.094-2.36c0-0.839,0.051-1.698,0.094-2.454c0.035-0.613,0.066-1.165,0.066-1.594v-0.082l-0.041-0.07
		c-0.131-0.233-0.428-0.375-0.799-0.375c-0.316,0-0.6,0.109-0.75,0.291l-0.387,1.779c-0.178,0.917-0.404,1.053-0.754,1.169
		c-0.43,0.144-1.637,0.226-3.309,0.226h-2.324c-1.018,0-1.018,0-1.018-0.816v-8.016c0-1.296,0-1.296,0.898-1.296H446
		c1.701,0,3.002,0.041,3.814,0.233c1.826,0.457,2.195,1.613,2.75,3.361l0.076,0.241l0.055,0.102
		c0.139,0.166,0.369,0.258,0.656,0.258c0.275,0,0.662-0.096,0.84-0.361l0.061-0.091l-0.053-0.589
		c-0.205-2.336-0.398-4.318-0.615-4.927l-0.094-0.263l-0.27,0.065c-0.445,0.111-2.932,0.111-5.334,0.111h-7.535
		c-1.545,0-2.867-0.033-4.715-0.118l-0.08-0.004l-0.068,0.036c-0.33,0.162-0.387,0.63-0.396,0.771
		c-0.023,0.351,0.078,0.629,0.279,0.763l0.775,0.13c2.051,0.243,2.174,0.509,2.174,4.747v14.428c0,4.343-0.25,4.532-2.207,4.704
		l-1.432,0.13l-0.08,0.079c-0.225,0.227-0.26,0.6-0.217,0.873c0.049,0.296,0.186,0.523,0.379,0.621l0.07,0.035l0.078-0.002
		c2.314-0.076,3.709-0.12,5.439-0.12h3.607c3.496,0,7.01,0.039,10.736,0.12l0.199,0.004l0.086-0.179
		C455.518,81.23,456.523,78.12,456.803,76.713L456.803,76.713z M429.307,56.75c0.219-0.219,0.254-0.599,0.219-0.86
		c-0.039-0.291-0.168-0.512-0.365-0.626l-0.08-0.046l-0.092,0.005c-1.342,0.08-2.57,0.118-3.869,0.118
		c-1.574,0-3.086-0.043-4.146-0.118l-0.096-0.006l-0.08,0.047c-0.221,0.126-0.375,0.392-0.4,0.709
		c-0.033,0.32,0.068,0.615,0.273,0.792l0.07,0.062l0.816,0.091c1.402,0.159,1.531,0.455,1.531,0.455c0,0.262-0.041,0.663-0.34,1.452
		c-0.691,1.745-2.602,6.334-3.723,8.968c-0.297,0.682-0.67,1.571-1.086,2.55c-0.758,1.803-1.682,3.995-2.471,5.717
		c-1.895-4.356-3.643-8.728-5.416-13.193c-1.174-2.878-1.846-4.972-1.973-5.492c0.062-0.127,0.41-0.3,1.607-0.457l0.691-0.092
		l0.07-0.06c0.205-0.176,0.309-0.472,0.277-0.791c-0.031-0.318-0.182-0.583-0.402-0.711l-0.078-0.046l-0.09,0.005
		c-1.783,0.083-3.188,0.118-4.836,0.118c-1.674,0-2.951-0.036-4.15-0.118l-0.098-0.006l-0.084,0.052
		c-0.234,0.146-0.387,0.416-0.41,0.724c-0.023,0.305,0.084,0.594,0.289,0.772l0.072,0.062l0.82,0.091
		c1.559,0.182,2.088,0.896,2.994,3.097l7.053,17.393c0.84,2.083,1.455,3.863,1.83,5.293l0.039,0.15l0.145,0.057
		c0.232,0.095,0.473,0.143,0.717,0.143c0.23,0,0.447-0.062,0.613-0.172l0.09-0.06l0.031-0.102c0.688-2.153,2.611-6.877,4.156-10.431
		l2.164-4.93c1.857-4.214,3.402-7.391,4.469-9.181c0.512-0.825,1.047-1.19,1.844-1.256l1.32-0.087L429.307,56.75L429.307,56.75z
		 M403.137,112.546c-7.311,5.675-12.119,14.816-12.119,25.494c0,12.404,5.963,21.158,13.658,26.452
		c7.023,4.711,15.295,6.443,23.955,6.443c6.154,0,13.082-1.442,15.195-2.212c1.061-0.386,2.213-0.77,3.367-0.963
		c1.443-1.828,3.943-8.178,4.617-13.179c-0.385-0.671-1.826-0.862-2.498-0.386c-2.215,5.678-7.699,13.756-20.105,13.756
		c-15.777,0-28.57-11.159-28.57-31.357c0-19.911,12.506-29.241,27.225-29.241c13.945,0,18.277,7.501,19.717,14.044
		c0.672,0.574,2.115,0.479,2.596-0.194c-0.768-5.866-1.246-11.926-1.346-14.139c-0.867,0.096-1.539-0.096-2.689-0.384
		c-4.523-1.251-11.834-2.308-17.027-2.308C419.105,104.374,410.162,107.064,403.137,112.546L403.137,112.546z M390.838,76.012
		V61.744c0-4.336,0.145-4.652,2.164-4.823l1.08-0.086l0.068-0.046c0.201-0.134,0.301-0.411,0.279-0.763
		c-0.01-0.141-0.066-0.61-0.395-0.772l-0.07-0.035l-0.078,0.004c-1.891,0.074-3.309,0.118-4.955,0.118
		c-1.725,0-3.102-0.042-5.037-0.118l-0.078-0.004l-0.07,0.035c-0.332,0.163-0.387,0.633-0.395,0.773
		c-0.023,0.351,0.08,0.628,0.281,0.762l0.064,0.045l1.08,0.085c2.023,0.172,2.164,0.487,2.164,4.824v14.268
		c0,4.316-0.104,4.54-2.176,4.786l-1.105,0.132l-0.074,0.076c-0.229,0.228-0.266,0.603-0.221,0.878
		c0.049,0.296,0.188,0.521,0.379,0.616l0.072,0.035l0.078-0.003c2.037-0.079,3.375-0.119,5.037-0.119
		c1.584,0,2.965,0.043,4.957,0.119l0.078,0.003l0.068-0.034c0.334-0.164,0.389-0.636,0.396-0.776
		c0.021-0.347-0.08-0.624-0.281-0.756l-1.137-0.169C390.939,80.551,390.838,80.328,390.838,76.012L390.838,76.012z M370.722,154.776
		v-34.247c0-10.195,0.192-11.831,5.868-12.311l2.404-0.193c0.574-0.386,0.385-2.116-0.195-2.403
		c-4.807,0.191-8.078,0.287-11.926,0.287c-4.041,0-7.31-0.096-12.12-0.287c-0.576,0.287-0.769,2.017-0.191,2.403l2.404,0.193
		c5.675,0.48,5.867,2.114,5.867,12.311v34.247c0,10.195-0.192,11.54-5.867,12.213l-2.404,0.291
		c-0.578,0.574-0.385,2.116,0.191,2.402c4.81-0.192,8.08-0.286,12.12-0.286c3.848,0,7.119,0.094,11.926,0.286
		c0.578-0.286,0.77-2.021,0.195-2.402l-2.404-0.291C370.914,166.316,370.722,164.972,370.722,154.776L370.722,154.776z
		 M375.682,56.75c0.193-0.193,0.291-0.507,0.254-0.819c-0.031-0.286-0.174-0.525-0.387-0.66l-0.084-0.051l-0.099,0.006
		c-1.315,0.077-2.359,0.118-4.11,0.118c-1.414,0-2.736-0.034-4.716-0.118l-0.062-0.003l-0.058,0.02
		c-0.233,0.086-0.396,0.304-0.451,0.601c-0.064,0.359,0.043,0.721,0.277,0.923l0.071,0.062l0.772,0.091
		c1.375,0.172,2.075,0.376,2.261,0.662c0.479,0.756,0.755,3.719,0.755,8.129v8.578c0,0.389,0,0.838-0.026,1.145
		c-1.39-1.436-2.843-3.063-4.65-5.087l-5.575-6.254c-3.966-4.448-6.236-7.365-6.749-8.671l-0.089-0.228l-0.245,0.037
		c-0.481,0.074-1.137,0.115-1.799,0.115c-0.701,0-2.833,0-4.504-0.118l-0.084-0.006l-0.076,0.038
		c-0.213,0.108-0.361,0.327-0.406,0.604c-0.057,0.335,0.04,0.683,0.243,0.888l0.077,0.078l0.785,0.092
		c1.07,0.133,1.865,0.434,2.295,0.865c0.75,0.818,0.803,1.557,0.803,2.676v11.947c0.002,1.938,0.006,6.476-0.494,7.769
		c-0.093,0.205-0.433,0.479-1.517,0.622l-1.189,0.132l-0.077,0.076c-0.178,0.178-0.271,0.463-0.245,0.764
		c0.026,0.301,0.158,0.558,0.363,0.705l0.088,0.062l0.108-0.006c1.395-0.077,2.469-0.119,4.152-0.119
		c1.357,0,2.712,0.036,4.677,0.119l0.105,0.004l0.086-0.062c0.188-0.135,0.315-0.347,0.355-0.601
		c0.045-0.293-0.03-0.597-0.205-0.833l-0.082-0.11l-1.385-0.132c-0.961-0.077-1.633-0.304-1.801-0.609
		c-0.432-0.762-0.679-3.73-0.679-8.144v-8.738c0-0.717,0.012-1.481,0.084-2.026c0.636,0.713,1.698,1.967,2.651,3.095
		c0.655,0.773,1.263,1.491,1.654,1.942l9.298,10.579c3.09,3.516,4.57,5.262,5.11,6.026l0.092,0.131h0.159
		c0.527,0,0.92-0.245,1.054-0.653l0.021-0.063l-0.006-0.068c-0.055-0.466-0.118-2.056-0.118-6.978l-0.001-10.122
		c-0.006-2.054-0.021-6.327,0.569-7.576c0.049-0.102,0.53-0.443,2.013-0.675l0.662-0.094L375.682,56.75L375.682,56.75z
		 M339.751,56.691c0.178-0.215,0.261-0.545,0.212-0.842c-0.04-0.25-0.171-0.455-0.368-0.579l-0.083-0.05l-0.096,0.005
		c-1.393,0.077-2.474,0.118-4.191,0.118c-1.538,0-3.027-0.039-4.553-0.118l-0.103-0.005l-0.085,0.058
		c-0.184,0.123-0.312,0.351-0.352,0.624c-0.042,0.3,0.034,0.59,0.208,0.794l0.083,0.098l1.13,0.086
		c0.919,0.075,1.544,0.322,1.76,0.689c0.467,0.823,0.725,3.716,0.725,8.143v4.611c0,4.723-1.338,10.352-7.709,10.352
		c-5.342,0-7.83-3.302-7.83-10.394v-8.656c0-4.262,0.138-4.572,2.123-4.746l1.042-0.083l0.066-0.046
		c0.2-0.133,0.302-0.403,0.278-0.74c-0.019-0.279-0.131-0.625-0.393-0.753l-0.072-0.035l-0.078,0.004
		c-1.901,0.077-3.247,0.118-4.917,0.118c-1.646,0-3.064-0.043-4.957-0.118l-0.077-0.004l-0.072,0.035
		c-0.261,0.128-0.376,0.471-0.395,0.75c-0.023,0.339,0.078,0.609,0.277,0.744l0.068,0.046l1.083,0.083
		c1.983,0.174,2.122,0.483,2.122,4.746v9.458c0,4.846,0.998,7.838,3.232,9.695c1.767,1.51,4.355,2.275,7.697,2.275
		c3.157,0,6.178-1.159,7.881-3.025c1.943-2.082,2.887-5.284,2.887-9.788v-4.529c0-2.032,0-6.79,0.535-8.048
		c0.186-0.405,0.872-0.713,1.747-0.784l1.091-0.087L339.751,56.691L339.751,56.691z M293.676,108.026
		c0.576-0.385,0.384-2.116-0.193-2.403c-4.137,0.191-7.407,0.287-11.158,0.287c-4.137,0-7.408-0.191-12.12-0.287
		c-0.578,0.287-0.77,2.018-0.192,2.403l2.5,0.194c5.003,0.384,5.676,2.02,5.676,12.12v34.627c0,10.1-0.193,11.063-5.58,12.022
		l-1.634,0.291c-0.576,0.574-0.384,2.116,0.192,2.402c3.751-0.094,7.022-0.286,11.159-0.286c3.75,0,7.021,0.094,12.215,0.286
		c0.578-0.286,0.769-2.021,0.192-2.402l-2.789-0.291c-5.387-0.575-5.868-1.924-5.868-12.022v-13.562c0-2.886,0.192-3.077,4.81-3.077
		h27.51c4.618,0,4.811,0.193,4.811,3.077v13.562c0,10.1,0,11.063-5.868,12.022l-1.827,0.291c-0.577,0.574-0.385,2.116,0.192,2.402
		c4.232-0.192,7.696-0.286,11.638-0.286c3.752,0,7.023,0.094,11.639,0.286c0.578-0.286,0.77-2.021,0.193-2.402l-2.31-0.291
		c-5.579-0.673-5.77-1.924-5.77-12.022V120.34c0-10.1,0.191-11.545,5.77-12.12l2.021-0.194c0.577-0.385,0.385-2.116-0.193-2.403
		c-4.328,0.191-7.599,0.287-11.351,0.287c-3.941,0-7.214-0.096-11.638-0.287c-0.577,0.287-0.77,2.018-0.192,2.403l1.827,0.194
		c5.676,0.575,5.868,2.02,5.868,12.12V131.4c0,2.984-0.193,3.079-4.811,3.079h-27.51c-4.618,0-4.81-0.095-4.81-3.079V120.34
		c0-10.1,0.192-11.545,5.772-12.12L293.676,108.026L293.676,108.026z M289.796,76.713l0.021-0.096l-0.041-0.091
		c-0.173-0.384-0.598-0.557-0.942-0.557c-0.198,0-0.377,0.052-0.518,0.153l-0.096,0.114c-1.15,2.295-2.184,3.457-2.708,3.749
		c-0.862,0.431-2.076,0.568-4.994,0.568c-3.338,0-4.198-0.399-4.624-0.823c-0.567-0.605-0.679-1.909-0.679-3.958v-5.651
		c0-0.774,0-0.774,1.015-0.774h2.326c1.399,0,2.445,0.031,3.01,0.19c0.558,0.139,0.843,0.502,1.018,1.295l0.359,1.562l0.062,0.126
		c0.149,0.183,0.432,0.291,0.751,0.291c0.365,0,0.664-0.139,0.795-0.37l0.042-0.071v-0.083c0-0.391-0.031-0.908-0.066-1.488
		c-0.045-0.731-0.095-1.559-0.095-2.36c0-0.839,0.049-1.698,0.094-2.454c0.035-0.613,0.068-1.165,0.068-1.594v-0.083l-0.041-0.07
		c-0.133-0.234-0.431-0.375-0.799-0.375c-0.319,0-0.599,0.109-0.75,0.291l-0.386,1.779c-0.181,0.917-0.406,1.053-0.756,1.169
		c-0.428,0.144-1.633,0.226-3.308,0.226h-2.326c-1.015,0-1.015,0-1.015-0.816v-8.016c0-1.296,0-1.296,0.894-1.296h2.887
		c1.702,0,3.002,0.041,3.812,0.233c1.829,0.457,2.196,1.613,2.751,3.361l0.078,0.241l0.054,0.102
		c0.136,0.166,0.369,0.258,0.651,0.258c0.277,0,0.663-0.096,0.841-0.36l0.06-0.09l-0.053-0.591
		c-0.208-2.335-0.398-4.316-0.614-4.924l-0.091-0.262l-0.273,0.065c-0.445,0.111-2.931,0.111-5.336,0.111h-7.536
		c-1.543,0-2.864-0.034-4.712-0.118l-0.08-0.004l-0.071,0.036c-0.33,0.162-0.386,0.63-0.395,0.771
		c-0.023,0.35,0.077,0.628,0.277,0.763l0.778,0.13c2.051,0.243,2.173,0.509,2.173,4.747v14.429c0,4.343-0.25,4.531-2.208,4.703
		l-1.431,0.13l-0.079,0.079c-0.229,0.227-0.264,0.602-0.22,0.876c0.047,0.296,0.185,0.521,0.378,0.617l0.069,0.035l0.078-0.002
		c2.316-0.075,3.712-0.12,5.44-0.12h3.609c3.495,0,7.007,0.039,10.734,0.12l0.199,0.004l0.084-0.179
		C288.507,81.236,289.516,78.125,289.796,76.713L289.796,76.713z M256.298,76.093V61.666c0-4.27,0.12-4.536,2.125-4.746l0.839-0.08
		l0.142-0.05c0.201-0.133,0.302-0.409,0.281-0.758c-0.008-0.141-0.062-0.613-0.391-0.777l-0.072-0.036l-0.079,0.004
		c-1.938,0.084-3.261,0.118-4.718,0.118c-1.738,0-3.138-0.046-4.835-0.118l-0.079-0.004l-0.071,0.036
		c-0.329,0.162-0.385,0.631-0.395,0.772c-0.023,0.351,0.077,0.628,0.278,0.762l0.902,0.13c2.046,0.21,2.167,0.478,2.167,4.747v4.605
		c0,0.976,0,0.976-1.695,0.976h-11.464c-1.696,0-1.696,0-1.696-0.976v-4.605c0-4.27,0.12-4.536,2.129-4.747l0.761-0.08l0.14-0.05
		c0.201-0.134,0.302-0.411,0.28-0.762c-0.009-0.141-0.065-0.61-0.396-0.772l-0.071-0.036l-0.079,0.004
		c-1.824,0.083-3.167,0.118-4.635,0.118c-1.046,0-1.959-0.029-2.956-0.061c-0.642-0.021-1.318-0.042-2.085-0.058l-0.076-0.001
		l-0.068,0.034c-0.328,0.161-0.386,0.629-0.395,0.769c-0.024,0.352,0.076,0.631,0.277,0.765l0.068,0.046l1.122,0.086
		c1.768,0.135,2.081,0.499,2.081,4.745v14.428c0,4.173-0.076,4.349-2.068,4.706l-0.776,0.137l-0.068,0.068
		c-0.23,0.227-0.264,0.602-0.22,0.877c0.048,0.296,0.186,0.521,0.379,0.616l0.068,0.034l0.076-0.001
		c0.551-0.013,1.077-0.032,1.603-0.051c0.949-0.033,1.928-0.068,3.039-0.068c1.506,0,2.786,0.037,5.082,0.12l0.078,0.003l0.07-0.035
		c0.262-0.132,0.374-0.489,0.392-0.779c0.021-0.347-0.082-0.622-0.283-0.753l-1.299-0.169c-1.922-0.207-2.168-0.4-2.168-4.703
		v-5.653c0-0.973,0-0.973,1.696-0.973h11.464c1.695,0,1.695,0,1.695,0.973v5.653c0,4.264-0.041,4.351-2.184,4.704l-0.861,0.136
		l-0.071,0.072c-0.229,0.228-0.263,0.604-0.217,0.878c0.048,0.295,0.187,0.521,0.379,0.615l0.071,0.035l0.08-0.004
		c1.918-0.084,3.318-0.119,4.834-0.119c1.578,0,2.969,0.044,4.836,0.119l0.079,0.003l0.07-0.034
		c0.331-0.163,0.387-0.633,0.396-0.774c0.023-0.348-0.078-0.625-0.279-0.758l-1.095-0.169
		C256.397,80.551,256.298,80.332,256.298,76.093L256.298,76.093z M223.344,54.728l0.03-0.114l-0.053-0.105
		c-0.154-0.304-0.601-0.328-0.734-0.328c-0.101,0-0.248,0.011-0.377,0.063l-0.099,0.041l-0.053,0.092
		c-0.516,0.893-0.73,0.966-2.859,0.966h-16.57c-1.793,0-2.598-0.094-2.767-0.99l-0.019-0.094l-0.068-0.068
		c-0.112-0.111-0.292-0.166-0.553-0.166c-0.096,0-0.421,0.01-0.598,0.129l-0.108,0.073l-0.022,0.129
		c-0.282,1.596-0.875,4.13-1.511,5.924l-0.045,0.123l0.059,0.117c0.24,0.482,1.064,0.718,1.502,0.388l0.066-0.049l0.031-0.074
		c0.407-0.925,0.791-1.799,1.729-2.663c0.883-0.811,2.882-0.921,4.723-0.921h2.204c0.896,0,0.896,0,0.896,0.973v17.919
		c0,4.343-0.25,4.532-2.204,4.704l-1.442,0.119l-0.136,0.045c-0.239,0.147-0.372,0.446-0.357,0.801
		c0.012,0.271,0.118,0.605,0.381,0.737l0.07,0.035l0.078-0.002c2.455-0.074,3.936-0.12,5.56-0.12c1.565,0,2.859,0.038,5.243,0.12
		l0.078,0.002l0.07-0.035c0.262-0.132,0.375-0.489,0.392-0.779c0.021-0.347-0.082-0.622-0.282-0.753l-1.425-0.169
		c-2.005-0.173-2.124-0.436-2.124-4.703V58.132c0-0.409-0.001-0.796,0.065-0.863c0.068-0.067,0.503-0.067,0.79-0.067h2.844
		c2.147,0,3.61,0.308,4.468,0.943c0.38,0.278,0.709,1.292,0.878,2.714l0.011,0.09l0.058,0.07c0.146,0.179,0.418,0.285,0.727,0.285
		c0.38,0,0.698-0.163,0.828-0.426l0.039-0.079l-0.009-0.088C222.636,59.556,222.913,56.328,223.344,54.728L223.344,54.728z
		 M196.042,138.04c0,12.404,5.964,21.158,13.659,26.452c7.022,4.711,15.295,6.443,23.953,6.443c6.157,0,13.082-1.442,15.197-2.212
		c1.059-0.386,2.214-0.77,3.367-0.963c1.443-1.828,3.943-8.178,4.617-13.179c-0.386-0.671-1.828-0.862-2.5-0.386
		c-2.211,5.678-7.695,13.756-20.104,13.756c-15.775,0-28.569-11.159-28.569-31.357c0-19.911,12.504-29.241,27.221-29.241
		c13.947,0,18.277,7.501,19.72,14.044c0.673,0.574,2.116,0.479,2.597-0.194c-0.769-5.866-1.25-11.926-1.346-14.139
		c-0.866,0.096-1.538-0.096-2.692-0.384c-4.522-1.251-11.833-2.308-17.026-2.308c-10.004,0-18.95,2.692-25.972,8.173
		C200.851,118.222,196.042,127.362,196.042,138.04L196.042,138.04z M171.029,121.808l-0.004-67.001c-53.824-5.19-94.453,0-94.453,0
		s0,66.997,0,67.014c4.29,45.419,46.829,50.753,47.232,50.679C131.404,171.129,167.067,163.957,171.029,121.808L171.029,121.808z
		 M91.74,138.534c0.859,0.581,1.872,0.839,2.8,1.235c1.149,3.008,0.027,5.962-0.618,4.737
		C92.791,142.356,92.343,140.572,91.74,138.534L91.74,138.534z M91.792,105.599l-0.07-0.069c-0.084,0-5.979,3.719-9.81,1.933
		c2.854-1.578,12.737-7.858,15.44-9.638c1.275,0.274,1.791-0.186,2.199-0.469c-1.033,0.063-4.458,0.598-2.728-2.466
		c0.665,2.747,5.467,0.22,7.19-0.176c4.803-1.105,4.768,4.029,4.359,6.15c-0.153,0.791,1.472,1.353,2.271,1.238
		c-1.376,3.392-3.728,0.194-4.007,1.488c-0.115,0.524-1.688,0.935-1.681,2.239c0.01,1.781,0.706,0.807,0.771,2.188
		c0.069,1.336-0.571,0.295-0.426,1.742c0.23,2.295,4.03-0.306,5.6,0.316c0.784,0.31,1.304,1.012,2.07,0.874
		c0.223-0.183,0.122-1.051,0.088-1.362c-0.081-0.729-1.429-0.814-2.058-1.81c-0.545-0.867,0.621-3.48,1.252-4.248
		c0.908,4.313,4.948,2.961,5.552,7.497c0.38,1.282-1.39,2.707,0.046,4.795c-1.067,1.035-2.348,5.943-0.116,8.251
		c-0.378,1.045-0.875,3.454,1.111,4.86c-0.667,1.424-0.516,3.162,0.048,4.933c-1.237,0.004-0.991-6.938-8.403-7.158
		c-0.165-0.052-0.205,0.787,0.007,1.164c0.887,1.56,2.082,1.469,1.825,5.141c-0.087,1.256-0.824-0.219-1.217-0.567
		c-0.898-0.792-1.591-0.899-1.981-3.48c-3.012,2.361-2.717,5.219-2.528,6.672c0.002,0.005-0.664-1.812-1.425-3.674
		c-0.041-0.098,3.059-3.826,3.552-4.712c6.254-11.257-4.039,3.638-4.06,3.587c-0.554-1.283-1.038-2.388-1.363-2.738
		c0.08-0.156,1.796-2.071,2.573-3.688c4.837-10.072-2.875,3.354-3.15,3.108c-0.583-0.523-1.065-1.182-1.433-0.946
		c-0.087,1.547-0.456,1.337-0.351,2.916c-0.805,1.077-2.536,2.767-3.745,3.606c0,0-0.302-2.797-0.221-2.895
		c0.608-0.739,2.986-3.29,3.473-4.052c7.927-12.448-3.712,2.999-3.732,2.865c-0.082-0.491-0.72-1.303-1.399-1.998
		c0,0,2.57-3.502,3.203-4.802c4.823-9.917-3.877,4.394-3.974,4.342c-0.208-0.11-0.23-0.108-0.473-0.189
		c-0.242-0.082,0.267-2.857,0.602-4.526c0.654-3.304-1.099-0.642-1.574,4.593c-0.446,0.07-1.533,0.185-1.944,0.559
		c0.268,1.396,0.597,0.321,1.183,1.665c0.702,1.607-0.977,4.243,0.484,6.176c0.564,0.743,0.596,0.617,0.485,1.107
		c-0.898-0.064-1.443-0.081-2.011,0.695c-1.104-5.017-1.068-7.431-0.81-12.525c0.115-2.318,0.875-5.823,0.529-5.889
		c-0.331-0.063-5.583,13.46-6.85,16.112c-2.215-0.748,1.379-12.451,5.946-18.087c0.43-1.792-2.395,1.817-4.082,3.255
		c-1.547,1.319-3.505,3.039-5.638,2.448c2.741-2.897,9.021-8.317,9.719-9.671c0.584-1.161-4.286,3.613-9.431,1.838
		C84.01,112.33,91.779,108.364,91.792,105.599L91.792,105.599z M101.055,131.038c0.02,1.233-0.067,2.146,0.292,3.4
		c0.585,1.893,0.292,1.309-0.503,0.659c-0.632-0.701-1.222-1.281-1.525-2.1C99.244,132.414,99.711,132.382,101.055,131.038
		L101.055,131.038z M113.491,100.56c-0.751-1.279,0.895-2.5,0.895-2.5c-0.049,3.598,4.55,1.128,6.953,2.272
		c0.577,0.265,0.983,0.772,1.221,1.307C119.976,99.854,115.203,103.482,113.491,100.56L113.491,100.56z M86.431,71.809
		c-4.106,0-4.021-6.157,0-6.157C90.471,65.651,90.471,71.809,86.431,71.809L86.431,71.809z M86.431,84.106
		c-4.201,0-4.201-6.155,0-6.155C90.471,77.951,90.496,84.106,86.431,84.106L86.431,84.106z M94.222,70.821h-3.58v-3.521h3.58V70.821
		L94.222,70.821z M94.222,83.088h-3.58v-3.521h3.58V83.088L94.222,83.088z M123.144,89.155c0,0-3.746-2.032-8.144-2.325
		c-4.252-0.283-12.843,3.114-19.439,2.666V60.51c0,0,7.522,1,10.612-0.192c10.505-4.052,16.972,0.476,16.972,0.476L123.144,89.155
		L123.144,89.155z M130.402,93.859c0.184,1.095-0.833,1.369-0.828,1.368c1.577,0.368,2.33-0.569,2.639-1.163
		c0.607,2.521-1.933,2.661-2.725,2.812c-0.001,0,1.287,0.37,1.354,1.209c0.168,2.13,1.539,1.948,1.834,1.78
		c-0.048,0.258-0.473,1.543-2.012,0.383c-0.261,0.258,0.42,0.656,0.554,1.714c0.174,1.336,0.132,2.576,1.675,3.391
		c-0.946,0.753-2.062-1.208-2.159-0.973c-0.11,0.262,1.315,0.982-0.253,4.68c-0.716-0.411-0.318-0.333-1.146-1.318
		c-0.635-0.532-0.884-0.652-0.355,0.224c0.925,1.157,1.144,3.801,0.824,4.513c-0.762-0.331-0.566-0.94-1.466-1.771
		c-0.083,0.354,0.276,2.108,1.205,2.946c1.607,1.45,2.176,3.201,2.205,3.546c0.126,1.318-0.287,3.056-0.444,4.752
		c-0.771-0.111-1.424-2.3-1.612-2.175c-0.228,0.147,0.097,2.142,1.55,3.5c0.703,2.055,0.421,3.159,0.232,3.233
		c-0.248,0.106-1.031-2.103-1.457-1.719c2.068,5.264,0.621,7.098,0.073,8.718c-0.428-1.661-0.645-2.904-1.179-4.786
		c-1.128,0.883-1.398,2.195-2.777,3.396c0-2.146-1.241-7.33-2.225-8.537c-0.045-0.054-1.778,4.649-2.567,6.737
		c-1.024,2.71-1.183,6.098,0,8.739c-2.554-3.634-2.828-10.397-0.624-11.308c0.19-0.485-0.133-2.077-0.624-1.879
		c-0.141,0.778-0.046,1.442-0.691,2.203c-1.692-0.494-0.922-2.56-0.768-3.244c2.194-2.631,0.821-3.241,0.72-3.17
		c-0.238,0.604-0.445,1.342-1.114,1.616c-1.408-2.421-0.506-6.216,2.167-9.054c0.113-1.059-1.197,0.791-2.048,0.726
		c-0.223-2.042,0.518-5.583,4.292-5.712c-0.72-0.211-1.106-0.341-1.281-0.944c1.142-0.17,4.72-0.442,4.13-3.266
		c-0.34,0.339-0.448,0.846-1.381,1.414c-0.627,0.382-1.31,0.415-1.665-0.137c1.66-0.549,1.112-2.569-1.056-1.976
		c-0.664,0.181-1.635-0.512-1.684-1.281c0.482,0.482,1.461,0.125,2.025-0.243c2.439-1.585,3.928,0.711,4.256,1.205
		c0.098,0,1.094-2.295-2.368-2.912c-0.29-0.807-1.083-2.231-3.432-2.052c-0.773-2.733-3.116-1.386-3.04-0.148
		c-2.49-1.833,0.043-4.148,1.048-4.503c0.697,0.058,0.544,2.264,1.768,1.893c0.296-0.088-0.951-1.52-0.474-2.169
		c1.123-0.642,1.098,0.821,1.652,0.276c0.274-0.958,1.375-1.495,2.283-1.597C125.983,92.439,127.961,95.228,130.402,93.859
		L130.402,93.859z M153.301,89.601c-5.527,0.375-16.993-2.77-19.909-2.77c-6.014,0-8.923,2.346-8.923,2.346s0.007-27.3,0-28.284
		c0,0,7.902-3.706,13.652-1.584c7.042,2.599,15.179,1.449,15.179,1.449L153.301,89.601L153.301,89.601z M160.579,78.445
		c3.046-0.444,3.505,3.15,3.505,3.15h-0.007c-0.75-0.597-2.257-0.867-3.278-0.208c-3.404,2.191-6.47,2.215-6.47,2.215v-5.49
		C154.329,78.113,154.976,79.263,160.579,78.445L160.579,78.445z M164.184,70.928c-0.023-0.163-0.057-0.413-0.107-0.765
		c-0.076-0.55-1.651-0.867-2.765-0.38c-1.559,0.681-5.461,2.91-6.885,2.487v-5.49c3.512,1.523,4.885,0.147,6.014,0.147
		c3.467,0,3.642,3.235,3.642,3.235C164.13,70.516,164.163,70.766,164.184,70.928L164.184,70.928z M160.259,127.835
		c-1.026,0.266-3.732,1.348-4.386,2.409c0.346-5.852-1.543-11.599-2.145-12.985c-1.174-2.706,0.524,6.292,0.639,8.365
		c0.003,0.092-9.711-12.485-3.845-2.8c1.52,2.511,3.894,4.15,3.895,4.191c0.041,1.747-0.076,3.031-0.409,3.972
		c-0.598,0.476-13.228-16.809-6.246-4.839c0.865,1.482,5.93,5.977,5.888,6.068c-0.32,0.682-0.889,1.674-1.674,2.405
		c-0.135-0.13-2.914-2.182-2.934-2.308c-0.21-1.336-0.218-2.598-1.869-1.651c0,0-6.221-7.244-3.34-2.167
		c1.259,2.221,2.086,2.467,2.42,2.859c0,0-0.964,1.309-1.275,2.699c-0.126,0.557-5.396-5.842-3.327-1.823
		c0.662,1.288,3.071,2.695,3.046,2.786c-0.247,0.838-0.498,1.647-0.762,2.175c-0.332,0.668-4.958,4.354-4.953,4.353
		c0,0,0.905-2.922,2.873-4.353c1.122-0.821,1.125-0.641,1.87-1.108c-0.017-0.432-0.432-1.136-0.97-1.323
		c-0.676-0.239-2.866,0.158-2.866,0.158c0.205-1.094-0.753-3.456-0.741-6.054c-0.824,0.08-2.272,1.356-2.621,2.081
		c-0.253,4.303-1.189,3.014-2.064,6.111c-0.952-1.298,0.066-3.164-0.866-4.381c-1.283-1.672-1.477-2.798-1.667-4.854
		c0.299-0.168,1.61-1.614,0.417-4.649c-0.194-4.769,1.937-6.593-1.874-9.929c0.321-0.104,0.55-2.495,0.55-2.497
		c2.808,1.498,2.25-1.733,3.345-2.367c1.736-1.008,1.421-2.052,0.641-3.355c4.965,1.414-0.225,4.807,2.022,4.881
		c1.63,0.049,2.723-0.363,3.431-1.46c0.754-1.16-0.13-1.87,1.977-3.748c0.21-0.188,0.768-1.442-0.902-1.786
		c-0.365-0.077,0.003-1.505,0.003-1.505c-1.339,1.132-1.757,2.726-3.908,1.718c-1.101-0.519-1.814-0.01-2.266,0.208
		c0,0-0.228-0.899,0.682-1.202c2.353-0.791,2.933-1.73,2.806-2.244c-0.318-1.222-0.414,0-0.345-1.287
		c0.028-0.512,0.624-1.207,1.117-1.803c1.596-1.925,2.726-1.203,3.132-1.032c0.928-0.717,1.092-0.667,1.955-1.008
		c1.477-0.582,4.681,0.384,6.469,1.215c0.867,0.392,1.905,0.629,2.916,0.405c-0.009,0.522-0.375,0.803-0.738,0.909
		c-0.56,0.174-1.225,0-1.181,0.409c0.025,0.239,0.79,0.281,1.27,0.412c2.651,0.724,6.084,3.1,3.83,2.598
		c-0.266-0.059,1.627,1.415,3.054,3.33l5.058,4.913c-0.232,0.279-2.006,0.026-7.621-5.236c-0.799,0.712,6.832,6.461,9.979,12.566
		c-0.271,0.189-4.197-1.24-5.612-2.697c-2.181-2.256-4.686-7.991-5.715-7.152c-0.125,0.048,4.145,6.695,6.255,10.639
		c1.065,1.994,1.94,4.853,2.014,7.008c0.338,10.619-1.261,9.803-1.26,9.804c-2.488-8.371-3.652-18.09-7.282-22.574
		C154.701,109.511,160.029,119.146,160.259,127.835L160.259,127.835z M149.258,137.382c-1.122,0.986-1.855,1.335-1.611,0.846
		c0.273-0.546,0.476-1.006,0.629-1.415C148.327,136.676,149.258,137.382,149.258,137.382L149.258,137.382z M148.521,136.063
		c0.249-0.892,0.25-1.509,0.366-2.296c0.05-0.338,0.058-0.296,0.074-0.58c0.004-0.094,2.433,2.021,2.569,2.106
		c-0.61,0.763-1.13,1.037-1.711,1.578C149.407,136.518,148.499,136.15,148.521,136.063L148.521,136.063z M156.404,138.767
		c-3.371,3.331-8.427,2.124-12.411,3.907c-3.611,1.316-6.226,4.653-10.013,5.499c-1.113,0.358-1.297,0.914-0.587,0.896
		c0.416-0.013,2.724,2.395,6.416,0.539c1.233-0.619,5.063-2.754,5.711-2.876c-2.074,1.974-3.113,3.738-4.967,4.779
		c-1.134,0.636-5.752,2.291-10.359,1.396c-2.041-0.397-3.612,1.484-3.091,1.442c1.092-0.293,2.316-0.145,3.054,0.823
		c1.337,1.046,3.274,2.351,4.94,0.404c0.554-0.646,3.199-2.018,5.683,0.505c-2.643-0.139-2.381,4.617-7.39,4.06
		c-1.855-0.013-5.953-4.253-7.119-2.944c-2.072,2.327,4.449,4.537,1.625,7.461c-2.55,2.645-5.597-2.103-5.597-2.103
		c1.592,0.667,4.527,1.095,3.235-1.492c-0.513-1.024-1.489-1.949-1.489-3.848c-0.224-0.946-6.06,7.515-9.919,3.69
		c-1.517-1.5-4.588-4.794-7.372-6.047c7.37-0.627,8.492,2.32,8.844,2.795c2.358,3.182,4.535-0.049,5.036-0.613
		c0.769-0.876,1.854-2.076,1.471-2.259c-2.859-1.354-6.125-1.645-8.564-0.526c5.222-7.176,9.286-0.453,9.285-0.456
		c0.573,0.357-0.146-4.255-5.311-4.513c-3.227-0.157-6.065,2.747-8.29,2.742c-1.809-0.004-7.293-3.707-8.583-6.995
		c3.192,2.387,7.261,3.756,9.797,2.245c4.77-2.844,10.776,1.443,11.062,0.933c-1.333-1.045-4.367-5.111-12.556-2.794
		c-3.177,1.825-4.517-1.353-6.468-1.406c3.318-2.945,5.619-1.446,6.78-1.358c0.274,0-1.384-1.364-2.547-1.486
		c-9.05-0.941-14.782-3.43-14.782-3.43c-0.047,0,0.754-1.824,4.643-0.51c0,0-3.488-2.137-3.459-4.881
		c0.114-1.691,0.932-3.503-0.362-4.913c5.253-0.216,1.522,7.109,5.209,8.996c0.079,0.031-1.087-1.75,0.555-3.131
		c0.761,2.152,2.637,3.263,3.955,3.613c0.311-0.169,0.692-0.831,0.692-0.828c-1.387-2.295-1.569-4.968-1.198-8.031l0.056-0.029
		c0.297,0.013,0.804,1.055,1.157,1.817c0.767,1.645,0.749,4.017,2.274,5.97c0.844,1.075,1.368,2.151,2.127,2.672
		c0.327-0.765,0.085-2.073,0.034-2.423c-0.172-1.246-0.951-3.424,1.176-5.348c0.993,2.87,2.346,2.038,2.53,3.416
		c0.254,1.932,0.17,1.621-0.026,3.104c0.101,2.042,1.955,2.615,3.601,3.919c3.712,2.02,6.177,3.113,7.792,5.702
		c0.79-4.366-10.995-5.24-9.475-13.662c-0.158-3.366,0.419-3.646-1.966-5.702c4.728,0.141,7.304,7.899,7.562,9.315
		c0.473,2.604,2.054,2.738,4.224,6.132c0.312,0.114-3.879-9.04,1.117-16.881c0,0,1.685,4.071,0.89,6.743
		c-0.479,1.608-0.034,3.387,0.055,4.396c0.091,1.027-0.205-3.715,3.364-6.168c0.223,1.795,1.943,4.573,0.312,7.554
		c-1.982,3.625-2.127,2.322-2.157,6.779c0.18-0.076,0.691-3.071,2.053-4.772c2.875-3.597,0.821-5.528,3.629-8.645
		c0.223,1.558,0.618,0.94,0.787,2.331c0.377,3.112-2.875,6.518-2.156,6.414c0.828-0.117,2.156-0.838,2.601-3.201
		c0,0,1.198,2.16,0.103,2.877c-1.984,1.304-2.396,2.705-2.088,4.279c1.59-1.9,3.764-4.005,3.388-6.71
		c0.18-1.633,1.95-2.293,2.302-6.086c0.059-0.631,0.687-1.394,1.314-1.729c-0.273,2.131,1.381,4.334-0.5,6.942
		c0.43,0.229,2.021-2.035,4.347-1.208c-4.67,0.841-3.306,5.898-6.886,8.243c-1.078,0.705-0.894,1.499-1.216,1.588
		c3.195-0.182,5.657-3.985,6.083-4.276c3.212-2.17,3.915-2.504,5.199-6.023c0.503-1.341,0.138-1.931,1.918-3.736
		c0.781,1.781-0.354,5.471-0.623,6.268c-0.575,1.699-2.594,3.168-2.167,3.168c8.608-3.798,8.5-6.35,10.56-9.069
		c0.618-1.041,3.68-2.843,4.827-3.014c-0.281,0.569-1.471,1.523-1.526,2.554c-0.104,1.901-0.718,3.063-1.68,4.59
		c0.535,0.661,1.562-1.253,2.613-0.291C158.104,136.308,157.484,137.856,156.404,138.767L156.404,138.767z M157.843,138.261
		c-0.511,2.511-1.376,4.833-2.886,6.992c-1.057,1.531-1.486-1.445-0.576-4.327C155.673,140.409,156.964,139.407,157.843,138.261
		L157.843,138.261z M151.287,74.629c-0.2-0.075-0.618-0.153-0.883-0.153s-0.406,0.377-0.078,0.464
		c0.211,0.059,0.601,0.126,0.976,0.145C151.556,75.107,151.474,74.708,151.287,74.629L151.287,74.629z M150.308,75.834
		c0.207,0.061,0.583,0.117,0.969,0.145c0.243,0.031,0.164-0.376-0.023-0.454c-0.19-0.067-0.608-0.148-0.865-0.152
		C150.111,75.373,149.979,75.734,150.308,75.834L150.308,75.834z M150.308,81.317c-0.19-0.224-0.704-0.648-1.163-0.975
		c-0.265,0.218-0.807,0.612-1.154,0.792c-0.258-0.291-0.601-0.693-1.122-1.098c-0.314,0.214-1.22,1.042-1.602,1.259
		c0.552,0.016,1.375,0.197,1.405,0.709c0.018,0.416-0.031,3.011,0,3.484c0.336,0.072,0.736,0.039,1.227,0.011
		c0.023-0.368,0.015-3.358,0.023-3.722c0.165-0.092,0.358-0.185,0.455-0.269c0.189,0.142,0.768,0.805,1.103,0.984
		c0.228-0.176,0.828-0.701,1.092-0.948C150.85,81.271,150.549,81.093,150.308,81.317L150.308,81.317z M148.794,76.959
		c0.315-0.57,0.779-1.49,0.749-2.192c-0.042-0.862-0.571-2.142-1.835-2.562c-1.602,0.568-2.592,1.835-2.637,3.331
		c-0.03,0.874,0.715,2.678,2.252,2.687C147.794,77.769,148.296,77.287,148.794,76.959L148.794,76.959z M147.822,77.299
		c-0.298-0.145-1.381-0.979-1.628-1.619c-0.325-0.863-0.325-1.815,0.592-2.375c0.716,0.264,1.551,0.969,1.626,1.616
		C148.515,75.759,148.272,76.754,147.822,77.299L147.822,77.299z M147.781,70.631l1.152-1.26c0,0-0.511-0.402-0.815-0.774
		c0-0.264,0-2.786,0.111-2.922c-0.867-0.772-1.5-0.87-1.872-0.821c-0.703,0.106-1.42,1.006-1.648,1.307
		c-0.167,0.238-0.123,0.537,0,0.649c0.14,0.113,0.321,0.228,0.512,0.343c-0.033-0.02-0.062-0.039-0.095-0.053
		c-0.329,0.31-0.807,1.2-0.792,1.803c0.006,0.605,0.553,1.486,0.919,1.816c0.407-0.315,1.008-0.841,1.889-1.012
		C147.241,70.134,147.443,70.39,147.781,70.631L147.781,70.631z M147.088,67.726c-0.567-0.203-1.686-0.729-2.092-1.065
		c-0.108-0.084-0.119-0.135,0.014-0.346c0.259-0.384,0.552-0.719,0.757-0.705c0.177,0,1.316,0.61,1.277,0.93
		C147.084,66.769,147.09,67.246,147.088,67.726L147.088,67.726z M147.095,69.434c-0.295,0.016-0.554,0.095-0.932,0.276
		c-0.311-0.253-1.115-1.226-0.522-2.313c-0.082-0.049-0.167-0.092-0.247-0.142c0.545,0.307,1.184,0.575,1.688,0.735
		c-0.005,0.432-0.018,0.822-0.018,0.965C147.065,69.139,147.079,69.289,147.095,69.434L147.095,69.434z M143.785,64.252
		c-0.273,0-2.094,0.039-2.141-0.065c-0.133-0.391-0.167-0.865,0.146-1.525c0.156-0.328-0.146-0.467-0.265-0.136
		c-0.114,0.323-1.027,1.583-1.975,1.99c-0.487,0.192,0.594,0.641,0.52,0.62c-0.005,1.213,0.169,3.033,0.428,3.763
		c0.16,0.434,0.654,1.14,0.994,0.925c0.219-0.137,0.694-1.083,0.845-1.203c0.264-0.213,0.006-0.579-0.214-0.358
		c-0.243,0.212-0.45-0.12-0.518-0.342c-0.08-0.216-0.304-2.885-0.19-2.937c0,0,2.153-0.261,2.368-0.261
		C143.931,64.723,143.937,64.252,143.785,64.252L143.785,64.252z M137.867,69.174l0.889-1.156c-0.645-0.111-0.911-0.23-1.363-0.744
		l0.019-2.869l-0.909-0.909l-0.311,0.035l-1.426,1.251C134.62,65,135.002,65,135.194,64.739l1.034,0.594l0.046,2.776
		c0.08,0.332,0.354,0.653,0.765,1.063L137.867,69.174L137.867,69.174z M137.096,62.803l0.501-0.434v-0.697l-0.675-0.655l-0.669,0.57
		l0.016,0.805l0.415,0.411H137.096L137.096,62.803z M134.814,61.917c-0.383-0.046-1.647,0.06-2.103,0.132
		c-0.457,0.07-0.457,0.291-0.076,0.337c0.378,0.039,0.451,0.119,0.65,0.628c0.182,0.514-0.73,2.84-0.957,3.386
		c-0.266-0.399-1.234-2.526-1.234-2.814c0-0.207,0.427-0.415,0.61-0.464c0.358-0.111,0.35-0.356,0.08-0.409
		c-0.756-0.107-3.421-0.342-3.892-0.401c-0.34-0.029-0.495,0.366-0.083,0.366c0.427,0.011,0.87-0.117,1.337,0.567
		c0.538,0.774,2.227,4.403,2.629,5.931c0.198-0.321,1.884-5.207,1.981-5.724c0.121-0.506,0.477-1,0.972-1.146
		C135.24,62.169,135.194,61.951,134.814,61.917L134.814,61.917z M126.818,73.727c0.022,2.032,0.831,2.205,1.754,2.736
		c0.875,0.496,2.344,0.395,3.447,0.104c0.417-0.121,0.645-0.147,0.631,0.214c0,0.226,0.316,0.178,0.316,0.009
		c0-0.167,0.014-1.871,0.014-2.058c0-0.213-0.306-0.182-0.306,0c0,0.285,0,0.369-0.281,0.774c-0.759,1.122-2.657,1.077-3.672-0.294
		c-0.349-0.468-0.664-1.092-0.262-1.211c0.402-0.122,1.622,0.131,2.429,0.2c0.484,0.033,1.601,0.146,1.74,0.226
		c0.124,0.093,0.312,0.21,0.312-0.034c0.011-0.238,0.011-1.022,0.011-1.264c0-0.234-0.182-0.122-0.318-0.038
		c-0.139,0.096-1.329,0.294-1.806,0.378c-0.479,0.09-1.955,0.208-2.344,0.075c-0.397-0.131-0.264-0.929,0.089-1.385
		c1.028-1.362,3.107-1.266,3.858-0.135c0.259,0.395,0.259,0.488,0.259,0.783c0,0.178,0.299,0.199,0.299,0
		c0.017-0.193,0.024-2.249,0.024-2.413c0-0.162-0.302-0.219-0.302,0c0,0.149-0.331,0.236-0.657,0.149
		c-0.645-0.204-2.525,0.087-3.363,0.546C127.948,71.516,126.803,72.496,126.818,73.727L126.818,73.727z M127.178,77.334
		c0.022,0.577,0.234,5.548,0.172,6.238c-0.039,0.395,0.489,0.812,0.973,1.141c0.235-0.284,0.745-1.026,1.167-1.339
		c0.249-0.204,0.075-0.338-0.115-0.263c-0.381,0.177-0.765,0.04-0.801-0.402c-0.035-0.44-0.035-4.717,0-5.334
		C128.279,77.375,127.454,77.36,127.178,77.334L127.178,77.334z M131.278,81.396c-0.33,0.311-0.919,1.118-0.906,1.715
		c0.009,0.61,0.302,1.196,0.656,1.525c0.604-0.42,0.979-1,1.982-1.386c0.125,0.468,0.455,0.539,0.845,0.834
		c0.234-0.255,1.087-1.302,1.275-1.485c0.188-0.179,0.08-0.363-0.188-0.179c-0.269,0.179-0.453,0.068-0.901-0.413
		c0.017-0.261-0.031-2.399,0.074-2.518c-0.41-0.44-0.787-1.041-1.27-0.995c-0.703,0.057-1.596,1.283-1.817,1.6
		c-0.177,0.23,0.008,1.107,0.139,1.218C131.215,81.355,131.238,81.358,131.278,81.396L131.278,81.396z M131.769,81.753
		c0.393,0.219,0.59,0.084,1.2,0.018c-0.003,0.384-0.014,0.729-0.016,0.913c-0.268,0.191-0.598,0.36-0.977,0.546
		C131.674,82.981,131.233,82.771,131.769,81.753L131.769,81.753z M131.45,79.99c0.255-0.389,0.417-0.466,0.621-0.466
		c0.183,0.011,0.898,0.5,0.861,0.831c0.035,0.214,0.042,0.662,0.04,1.118c-0.534,0.066-0.909,0.127-1.508-0.379
		C131.352,81.006,131.322,80.194,131.45,79.99L131.45,79.99z M135.752,79.202c-0.455,0.227,0.608,0.647,0.536,0.628
		c-0.015,1.203-0.258,3.17,0.156,3.795c0.255,0.382,0.837,0.633,1.226,0.482c0.374-0.149,0.851-0.896,0.994-1.019
		c0.277-0.206,0.041-0.429-0.192-0.213c-0.228,0.213-0.851,0.062-0.934-0.154c-0.065-0.226-0.146-2.851-0.036-2.905
		c0,0,0.75-0.017,0.95-0.01c0.157,0,0.167-0.478,0.014-0.478c-0.274-0.003-0.877-0.058-0.914-0.166
		c-0.089-0.247,0.022-1.047,0.177-1.372c0.16-0.328-0.145-0.473-0.267-0.152C137.34,77.98,136.553,78.808,135.752,79.202
		L135.752,79.202z M135.97,73.737c0.046,1.138-0.545,2.333-1.191,2.872c1.114-0.289,1.26-0.953,1.869-1.734
		c0.336,0.498,0.962,1.1,1.419,1.359c0.322-0.213,1.231-1.236,1.431-1.448c-0.657-0.176-1.925-0.846-2.242-1.554
		c-0.25-0.525-0.19-0.773,0.059-1.188c0.222,0.292,1.764,1,2.458-0.182c-0.759-0.276-1.442-0.773-1.672-1.176
		c-0.204,0.168-0.881,0.907-1.263,1.141c-0.088-0.407-0.711-0.844-1.218-0.935c-0.163,0.175-1.354,1.084-1.896,1.348
		c-0.168,0.079-0.105,0.443,0.13,0.352c0.222-0.097,0.59-0.376,1.014-0.578C135.361,72.207,135.92,72.707,135.97,73.737
		L135.97,73.737z M141.301,73.92c0.136-0.689,0.621-0.971,0.843-1.179c0.314,0.349,0.631,0.743,1.103,0.743
		c0.461,0.003,0.942-0.211,1.091-0.402c-0.382-0.308-1.25-1.222-1.425-1.393c-0.439,0.243-2.35,1.234-2.511,2.38
		c-0.232,1.689,0.303,2.026,1.045,2.954c0.416,0.526,1.115,0.551,1.431,0.47c0.343-0.236,1.592-1.424,1.731-1.573
		c0.125-0.146-0.056-0.279-0.211-0.131c-0.155,0.142-0.094,0.203-0.302,0.233c-0.212,0.034-1.063,0.177-1.559-0.082
		C141.922,75.618,141.116,74.855,141.301,73.92L141.301,73.92z M140.368,79.314c-0.281,0.287-0.774,0.615-1.235,1.128
		c0.382,0.026,0.699,0.109,0.883,0.475c0.188,0.365,0.03,1.896,0.055,2.487c0.03,0.574,0.379,0.696,0.833,1.171
		c0.454-0.116,1.72-0.645,2.147-0.938c-0.038,0.47,0.558,0.999,0.909,1.103c0.236-0.258,0.491-0.398,0.839-0.721
		c-0.338-0.226-0.293-0.256-0.42-0.705c-0.1-0.432,0.024-2.071,0.036-2.773c-0.27-0.406-0.708-0.892-1.158-1.228
		c-0.318,0.289-0.747,0.676-1.25,1.205c0.375-0.051,1.112,0.099,1.147,0.414c0.022,0.406,0.083,1.294,0,1.984
		c-0.085,0.693-1.954,0.376-1.979-0.093c-0.042-0.481,0.096-1.863,0.105-2.519C141.014,79.901,140.856,79.677,140.368,79.314
		L140.368,79.314z M127.958,96.128v-0.068c-1.081-0.156-1.929-0.912-2.917-1.286c-1.367-0.517-2.818,0.539-2.818,0.707
		c0,0.369,0.388,0.557,1.495-0.138c-0.866,1.002,0.118,1.818,0.118,1.818c-0.359-0.053-0.874-0.174-1.203-0.362
		c-0.067,0.362,0.432,0.496,0.669,0.653C125.137,98.205,126.345,96.44,127.958,96.128L127.958,96.128z M124.867,97.061
		c0,0,0.487-0.527,0.486-0.907c-0.001-0.511-0.483-0.885-0.483-0.885c0.413,0.119,1.398,0.674,1.75,0.906L124.867,97.061
		L124.867,97.061z M114.809,83.146l0.526-0.583c-0.592-0.11-0.317-0.103-0.63-0.393l-0.019-2.411l-0.771-1.13l-0.292,0.041
		l-1.207,1.126c-0.319,0.281-0.038,0.414,0.334,0.105l0.798,0.414l0.02,2.554c0.067,0.316,0.347,0.387,0.736,0.788L114.809,83.146
		L114.809,83.146z M115.07,74.751c0.408,1.158,1.368,1.523,2.084,1.58c0.211-0.396,0.608-0.998,0.825-1.277
		c0.321-0.428-0.007-0.684-0.231-0.192c-0.172,0.38-1.102-0.034-1.438-0.359c-0.452-0.42-0.733-1.524-0.374-1.913
		c0.363-0.391,0.886-0.212,1.559-0.231c0.443-0.023,0.538-0.432,0.613-0.639c-0.214-0.1-0.534-0.282-0.955-0.537
		c-0.434,0.276-1.103,0.845-1.391,1.083C115.402,72.571,114.664,73.624,115.07,74.751L115.07,74.751z M116.815,81.126
		c-0.438,0.451-0.763,0.948-0.757,1.574c0.021,0.594,0.22,1.188,0.826,1.456c0.535-0.395,1.227-0.875,1.893-1
		c0.325,0.392,0.827,0.652,1.128,0.889c0.208-0.25,0.872-0.791,1.055-0.958c0.176-0.178,0-0.428-0.183-0.193
		c-0.142,0.215-0.61,0.059-0.744-0.16c0-0.255-0.242-2.933-0.135-3.057c-0.387-0.431-1.053-1.403-1.501-1.354
		c-0.651,0.066-1.627,0.999-1.838,1.303c-0.159,0.229,0.048,1.331,0.173,1.437C116.766,81.088,116.782,81.097,116.815,81.126
		L116.815,81.126z M118.528,81.357c-0.492,0.01-0.914-0.141-1.453-0.614c-0.101-0.086-0.197-0.697-0.082-0.896
		c0.237-0.376,0.237-0.493,0.443-0.49c0.159,0,1.152,0.6,1.1,0.919C118.573,80.504,118.555,80.935,118.528,81.357L118.528,81.357z
		 M117.226,81.447c0.452,0.304,0.71,0.265,1.279,0.208c-0.022,0.308-0.045,0.591-0.045,0.718c0,0.136,0.056,0.245,0.094,0.361
		c-0.293,0.104-0.668,0.167-0.958,0.312C117.335,82.816,116.371,82.158,117.226,81.447L117.226,81.447z M120.94,76.479l0.539-0.58
		c-0.604-0.113-0.604-0.074-0.926-0.363l0.023-2.792l-0.527-0.777l-0.281,0.037l-1.214,1.12c-0.326,0.293-0.034,0.433,0.33,0.109
		l0.627,0.382l0.023,2.629c0.065,0.315,0.341,0.423,0.728,0.822L120.94,76.479L120.94,76.479z M119.992,66.707
		c-0.25-0.015-0.628,0.442,0.83,0.592C121.05,67.327,121.354,66.79,119.992,66.707L119.992,66.707z M120.009,65.836
		c-0.241-0.015-0.617,0.65,0.837,0.595C121.074,66.424,121.243,65.907,120.009,65.836L120.009,65.836z M120.29,70.221l-0.625-0.646
		l-0.629,0.564l0.012,0.778l0.385,0.395h0.389l0.467-0.422V70.221L120.29,70.221z M119.018,64.247
		c-0.426-0.291-0.886-0.997-1.91-1.044c-1.031-0.042-2.192,0.888-2.568,1.475c-0.501,0.773,0.113,1.452,0.768,1.955
		c-0.419,0.358-1,0.91-1.54,1.414c0.216,0.235,1.394,0.791,2.056,0.776c0.999-0.023,1.923-0.538,2.495-0.996
		c1.04-0.822,0.678-1.696-0.38-2.315c-0.1-0.061-0.198-0.079-0.299-0.097C118.295,64.896,118.869,64.431,119.018,64.247
		L119.018,64.247z M116.389,66.401c0.347,0.157,0.702,0.315,1.087,0.542c0.558,0.315,0.271,0.915-0.33,1.193
		c-0.61,0.281-1.703-0.509-1.875-0.833C115.496,67.109,115.917,66.775,116.389,66.401L116.389,66.401z M117.493,64.932
		c-0.092,0.075-0.355,0.286-0.637,0.513c-0.168,0.028-0.337,0.048-0.511,0.026c-0.525-0.075-0.776-0.469-1.019-0.787
		c-0.249-0.331,0.395-0.606,0.711-0.573C116.36,64.157,117.069,64.538,117.493,64.932L117.493,64.932z M113.187,67.198
		c-1.532,0.386-2.249-0.841-2.401-1.168c0.618-0.634,1.671-1.667,2.312-2.194c-0.423-0.39-0.598-1.038-1.351-1.093
		c-0.657,0.019-2.186,0.762-2.455,2.705c-0.257,1.865,1.495,2.873,2.882,2.929c0.463,0,1.04-0.599,1.327-0.741
		C114.115,67.337,113.887,67.038,113.187,67.198L113.187,67.198z M110.675,65.662c-0.386-1.243-0.241-1.671,0.531-2.285
		c0.173,0.428,0.615,0.736,0.863,0.885C111.634,64.686,110.957,65.454,110.675,65.662L110.675,65.662z M108.905,64.555
		c0.263-0.257-0.018-0.443-0.25-0.219c-0.173-0.208-0.614-0.664-0.852-0.942c-0.25,0.209-0.827,0.555-1.15,0.735
		c-0.25-0.289-0.562-0.289-1.065-0.682c-0.278,0.212-0.896,0.665-1.228,1.068c0.586,0.171,1.027,0.205,1.065,0.707
		c0.022,0.409-0.044,2.93-0.008,3.39c0.313,0.068,0.697,0.038,1.143,0.016c0.035-0.361,0.019-3.521,0.019-3.871
		c0.169-0.094,0.341-0.186,0.424-0.264c0.184,0.14,0.551,0.674,0.845,0.849C108.074,65.175,108.655,64.806,108.905,64.555
		L108.905,64.555z M104.072,71.082c-0.664,0.061-1.624,0.838-1.911,1.507c-0.117,0.268,0.048,1.233,0.17,1.34
		c0.087,0.077,0.155,0.129,0.231,0.188c-0.436,0.406-0.845,0.752-0.834,1.355c0.019,0.581,0.48,1.097,1.077,1.369
		c0.319-0.486,0.818-0.784,1.352-0.91c0.044,0.464,0.152,0.803,0.456,1.038c0.218-0.243,1.093-0.999,1.262-1.169
		c0.185-0.174,0.046-0.383-0.168-0.174c-0.129,0.12-0.442-0.058-0.533-0.208c0-0.255,0-2.927,0.112-3.049
		C104.89,71.938,104.515,71.035,104.072,71.082L104.072,71.082z M104.125,73.795c-0.742,0.48-0.978,0.465-1.489-0.111
		c-0.253-0.293-0.23-0.848-0.114-1.058c0.23-0.361,0.634-0.725,0.826-0.721c0.167,0.011,0.765,0.737,0.724,1.053
		C104.104,73.133,104.115,73.457,104.125,73.795L104.125,73.795z M104.132,75.132c-0.004,0.145,0,0.268,0.002,0.398
		c-0.144,0.036-0.304,0.07-0.505,0.171c-0.272-0.231-1.56-0.653-0.716-1.333c0.517,0.305,0.717,0.066,1.218-0.242
		C104.135,74.562,104.132,74.975,104.132,75.132L104.132,75.132z M103.553,69.473c-0.089-0.115-0.262-0.301-0.269-0.535
		c0-0.153,0.018-1.765,0.018-1.966c0-0.189-0.38-0.17-0.38,0c-0.018,0.287,0.025,0.773-0.231,1.17c-0.707,1.093-2.053,1.545-3,0.204
		c-0.322-0.445-0.398-1.119-0.438-1.599c-0.063-0.644,0.423-1.475,0.452-1.549c1.204-1.579,2.875-0.407,3.01,0.236
		c0.09,0.428,0.187,0.952,0.187,1.227c-0.01,0.182,0.384,0.165,0.391-0.024c0-0.197,0.011-2.623,0.011-2.792
		c0.008-0.158-0.319-0.208-0.324,0c-0.019,0.383-0.244,0.416-0.538,0.32c-0.609-0.181-1.96-0.47-2.746-0.019
		c-0.691,0.406-1.749,1.358-1.73,2.556c0.02,1.972,0.764,2.137,1.628,2.667c0.809,0.476,1.928,0.168,2.949-0.127
		c0.405-0.111,0.456,0.145,0.65,0.432C103.522,70.114,103.79,69.832,103.553,69.473L103.553,69.473z M98.091,72.259
		c-0.682,1.043-1.055,2.688,0.127,3.651c0.556,0.465,1.016,0.827,2.152,0.626c0.225-0.451,0.326-0.601,0.725-1.12
		c-0.782,0.125-1.387-0.016-1.957-0.448c-1.176-0.911-0.813-2.38-0.464-2.884c0.634-0.941,1.536,0.405,1.697,0.589
		c0.21-0.251,0.571-0.609,0.925-0.886c-0.349-0.463-0.636-0.893-0.875-1.173C99.667,70.884,98.563,71.559,98.091,72.259
		L98.091,72.259z M98.577,81.275c-0.252,1.876,1.518,2.991,2.367,3.353c0.213-0.431,0.648-1.13,1.074-1.621
		c0.323-0.377-0.034-0.478-0.323-0.187c-0.392,0.429-1.561,0.022-1.87-0.542c0.564-0.426,2.037-1.657,2.677-2.182
		c-0.423-0.396-1.077-1.382-1.179-1.948C100.753,78.532,98.865,79.325,98.577,81.275L98.577,81.275z M100.404,79.243
		c0.17,0.434,0.714,1.261,0.959,1.407c-0.422,0.423-1.459,1.127-1.751,1.331C99.081,81.316,98.795,80.228,100.404,79.243
		L100.404,79.243z M104.272,78.561c-0.368,0.346-0.657,0.662-1.192,1.087c0.248,0.286,0.671,0.646,0.709,1.14
		c0.031,0.498,0.014,2.806,0.044,3.384c0.393,0,0.323,0.042,0.999,0.016c-0.067-0.392-0.011-3.389-0.011-3.817
		c0.253-0.241,0.29-0.278,0.58-0.494c0.208,0.182,0.697,0.289,0.697,0.611s0.096,1.746-0.018,2.271
		c-0.142,0.64-0.079,1.101,0.268,1.749c0.263-0.293,1.244-0.979,1.457-1.151c0.21-0.182,0.102-0.319-0.17-0.245
		c-0.291,0.063-0.341,0.119-0.341-0.064c0-0.345-0.137-1.905-0.158-2.902c-0.037-1-0.524-1.294-0.804-1.432
		c-0.286,0.319-0.924,0.719-1.307,1.044C104.734,79.544,104.591,79.067,104.272,78.561L104.272,78.561z M108.292,76.144
		c0.336-0.269,0.585-0.721,0.723-0.828c0.258-0.214,0.045-0.432-0.174-0.227c-0.175,0.171-0.632-0.227-0.652-0.253
		c-0.148-0.175-0.367-2.461-0.264-2.512c0,0,1.454-0.179,1.645-0.176c0.144,0.009,0.163-0.454,0.009-0.461
		c-0.238,0-1.347,0.152-1.387,0.044c-0.061-0.242-0.21-1.057,0.154-1.756c0.172-0.305-0.005-0.601-0.12-0.289
		c-0.129,0.319-1.04,1.732-1.629,1.966c-0.48,0.198-0.425,0.306-0.117,0.386c0.246,0.047,0.5,0.341,0.454,0.338
		c-0.049,1.172-0.163,2.621,0.201,3.234C107.367,75.997,108.003,76.398,108.292,76.144L108.292,76.144z M113.288,76.666
		c-0.18,0.354-0.469,0.679-1,0.919c0.322,0.28,0.741,0.641,1.018,0.823c0.319-0.354,0.609-0.682,0.976-1.027
		C113.919,77.31,113.5,77.128,113.288,76.666L113.288,76.666z M110.998,75.371c0.461-0.039,1.207,0.239,2.031,0.17
		c0.983-0.07,1.753-1.592,1.33-2.776c-0.396-1.125-1.649-0.927-2.494-1.195c-0.775-0.211-1.096-0.7-0.25-1.255
		c0.995-0.643,2.23,0.387,2.348,0.604c0.183,0.327,0.335,0.323,0.335-0.104c0.025-0.931-0.059-0.404-0.152-1.279
		c-0.031-0.313-0.259-0.34-0.28-0.04c-0.021,0.306-0.393,0.212-0.673,0.212c-0.286-0.006-1.115-0.132-1.833,0.266
		c-0.455,0.265-1.5,1.083-0.915,2.063c0.34,0.571,2.344,1.036,2.843,1.366c0.502,0.327,0.614,1.168,0.135,1.553
		c-0.596,0.474-2.216,0.076-2.466-0.211c-0.328-0.363-0.454-0.662-0.522-1.083c-0.069-0.432-0.431-0.394-0.431,0
		c0,0.391,0.092,1.739,0.164,2.055c0.066,0.329,0.395,0.22,0.425-0.029C110.628,75.455,110.783,75.389,110.998,75.371
		L110.998,75.371z M108.898,79.569c-0.382,0.287,0.449,0.685,0.375,0.664c0.03,1.175-0.141,2.385,0.26,2.982
		c0.253,0.371,1.042,0.642,1.18,0.288c0.133-0.358,0.731-1.088,0.864-1.213c0.25-0.221,0.03-0.42-0.179-0.205
		c-0.433,0.458-0.675,0.248-0.994-0.056c-0.154-0.176-0.211-1.821-0.101-1.869c0,0,0.794-0.115,0.985-0.115
		c0.147,0,0.134-0.456-0.021-0.456c-0.238,0-0.947,0.007-0.988-0.104c-0.088-0.227,0.141-1.336,0.182-1.835
		c0.033-0.351-0.156-0.462-0.251-0.135C110.109,77.836,109.347,79.243,108.898,79.569L108.898,79.569z"/>
</g>
</svg>
